<?xml version="1.0" encoding="UTF-8"?><svg id="Layer_5" xmlns="http://www.w3.org/2000/svg" width="203.07mm" height="203.07mm" viewBox="0 0 575.62 575.62"><defs><style>.cls-1{fill:#3b2417;}</style></defs><path class="cls-1" d="M538.83,175.66c-.06-.47-.15-.93-.3-1.4-1.18-3.76-4.5-6.21-7.48-8.5-13.45-10.33-29.21-17.67-45.75-21.43-2.99-.68-6-1.24-9.02-1.68-8.03-8.26-20.9-11.76-31.96-14.17-2.23-.49-3.67,1.45-3.59,3.18-.14-.07-.28-.13-.41-.2-4.07-2.21-7.77-7.08-10.23-10.91-1.28-2-2.41-4.78-2.3-7.29,.27-.32,.54-.64,.81-.96,4.49-5.31,9.55-10.92,11.12-17.9,3.54-15.73-11.45-25.64-25.14-27.55-8.94-1.25-18.44,.25-26.91,3.24-4.6,1.62-8.87,4.02-13.45,5.68-3.47,1.26-6.71,1.61-10.07,1.31,.06-1.18-.56-2.35-2.05-2.74-8.94-2.35-18.16-2.21-27.3-1.33-7.27,.71-15.55,.95-22.07,4.62-6.98,3.92-8.6,11.2-8.92,18.64-.17,3.92-.02,8.44-2.22,11.87-1.42,2.22-4.9,4.32-7.39,2.65-.43-.75-1.22-1.25-2.39-1.15-6,.5-11.95-1.03-16.72-4.8-1.48-1.17-3.29-.66-4.3,.42-1.42-.33-2.88-.49-4.36-.5-3.51,0-6.81,.83-9.84,2.25-.64-.96-1.73-1.53-2.99-1.01-.23,.1-.46,.19-.69,.29,0,0,0,0,0,0,0,0-.02,0-.02,.01-11.47,4.9-23.6,12.47-27.45,25.08-3.17,10.39,.29,23.79,10.84,28.48,.73,.32,1.44,.34,2.07,.16,1.5,.75,3.09,1.34,4.71,1.81,.62,.52,1.26,1.01,1.92,1.46,.23,.43,.55,.81,.94,1.11-5.88,1.68-12.24,1.87-17.94,4.25-4.84,2.02-9.56,5.55-11.54,10.42-21.39,3.58-42.79,7.15-64.18,10.73-.08-4.2-.74-8.35-5.13-10.26-5.73-2.49-12.58-1.61-18.49-.36-6.93,1.46-13.78,3.41-20.64,5.15-7.44,1.88-15.23,3.29-22.51,5.72-2.9,.97-4.05,2.9-4.39,5.83-.25,2.16-.47,4.32-.68,6.48-1.2,.16-2.16,1.18-2.45,2.33-9.92,1.72-19.85,3.44-29.77,5.15-1.24,.21-2.1,1.6-2.11,2.77-.02,2.47,1.21,4.69,3.49,5.73,1.07,.49,2.09,.31,2.88-.2,0,.28,0,.55,0,.83-4.34,.25-8.11,2.24-10.45,7.29-1.46,3.16-1.73,6.67-2.06,10.08-.43,4.47-.82,8.94-1.17,13.42-.67,8.58-1.21,17.17-1.6,25.77-.8,17.57-1.02,35.16-.65,52.75,.69,33.02,3.47,65.99,8.24,98.67-.17,.24-.31,.52-.4,.81-.81,.43-1.42,1.23-1.45,2.41-.3,15.22,3.65,31.49,14.7,42.55,7.1,7.1,17.15,11.63,27.2,11.67,.45,.62,1.19,1.01,2.25,.91,25.66-2.61,51.32-5.23,76.98-7.84,25.16-2.56,50.51-4.51,75.36-9.3,12.02-2.32,23.92-5.23,35.98-7.38,12.63-2.25,25.38-3.2,38.16-3.97,25.11-1.49,49.99-4.15,74.85-8.04,14.17-2.22,28.3-4.7,42.42-7.23,12.24-2.19,25.13-3.82,35.8-10.7,2.92-1.88,.53-6.41-2.37-5.25,8.66-11.88,13.2-26.26,15.18-40.82,2.65-19.46,1.74-39.38,1.78-58.98,.02-11.69,.05-23.39,.07-35.08,0-2.18-2-3.08-3.64-2.69,2-7.34,2.06-15.14,.89-22.69,8.26,5.78,16.95,10.91,26.04,15.32,1.84,.89,4.45-.15,4.33-2.48-.02-.34-.04-.67-.06-1.01,1.7,1.64,3.35,3.33,4.94,5.09,1.6,1.77,4.05,.58,4.81-1.27,6.38-15.62,2.41-32.92-4.03-47.84-.17-.39-.34-.77-.51-1.15,4.43-2.12,6.48-10.1,7.31-14.38,2.23-11.51-.26-23.75-6.87-33.33l7.41,1.7c4.16,.96,8.51,2.45,12.83,1.8,3.3-.5,6.38-2.57,6.59-6.18,.14-2.37-.98-4.3-2.51-5.96Zm-308.67-38.43s0,.01,0,.02c.16-1.72,.51-3.42,1.07-5.02,1.19-3.44,3.18-6.43,5.65-9.05-2.69,4.46-5.11,9.2-6.72,14.05Zm258.88,71.41c-.19-.04-.37-.08-.56-.12-.4-.7-.81-1.39-1.22-2.08,.61,.72,1.2,1.46,1.79,2.2Zm8.63,15.31c.54,.4,1.09,.82,1.64,1.25,2.25,6.85,3.7,13.9,4.64,21.03-2.09-7.92-4.8-15.68-8.12-23.21-.09-.21-.19-.42-.29-.63,.71,.52,1.43,1.04,2.14,1.57Zm-13.66-38.78c1.63,1.74,3.18,3.57,4.61,5.48,.63,2.08,1.35,4.13,2.12,6.16-2.5-3.75-4.9-7.55-6.73-11.64Zm-10.54-37.07c1.18,1.48,2.19,3.12,2.98,4.95,1.05,2.42,1.6,4.88,1.72,7.29-.96-4.42-3.48-8.69-6.41-12.45,.57,.07,1.14,.13,1.71,.2Zm2.76,32.09c.02,.15,.04,.3,.08,.45,1.05,4.03,2.72,7.77,4.71,11.36-.2-.17-.4-.35-.61-.52-.68-.57-1.37-1.12-2.07-1.67-.39-.3-.78-.6-1.17-.9,.94-1.25,1.02-3.21-.68-4.29-1.79-1.13-3.74-.65-4.99,.6-.28-.2-.57-.38-.87-.55,2.06-1.25,3.94-2.76,5.6-4.48Zm-5.12,12.95c1.25,1.57,2.47,3.17,3.65,4.79,2.37,3.25,4.6,6.6,6.7,10.03,.1,.17,.2,.34,.31,.52-1.3,1.47-.59,4.72,2.1,5.07,.05,0,.1,.01,.14,.02,.2,.4,.5,.77,.93,1.09,.2,.15,.41,.3,.61,.45,2.63,4.87,5,9.89,7.05,15.03,4.32,10.81,7.38,22.08,9.1,33.57-.29-.21-.57-.42-.86-.63-5.77-4.11-12.5-8.56-19.34-10.65-2.47-.75-5.37-1.06-7.77,.08-3.35,1.59-4.14,4.93-4.06,8.36,.19,8.34,1.17,16.66,.11,24.99-.55,4.31-1.71,8.69-3.67,12.63-.2,.24-.4,.48-.62,.7-.23,.16-.42,.36-.58,.59-.52,.51-1.05,.98-1.62,1.42-2.98,2.31-6.74,3.42-9.48,1.72-.41-3.37-.84-6.73-1.3-10.09-2.36-17.32-5.38-34.55-9.04-51.64-3.21-14.99-7.11-30.73-17.6-42.35,.48-1.69,.9-3.4,1.26-5.12,11.8,6.3,27.5,5.04,37.59-3.95,.88,.5,1.98,.58,2.96-.1,.1,.06,.26,.12,.49,.19,.32,.23,.6,.49,.85,.78,.75,.77,1.41,1.67,2.08,2.51Zm-39.53,26.35c-2.62-4.31-5.51-8.44-8.66-12.39,.28-.63,.54-1.27,.79-1.92,3.36,4.33,5.88,9.19,7.87,14.3Zm13.66-77.85c2.78,.69,5.6,1.55,8.28,2.71,0,1.44,.92,2.85,2.78,2.81,.79-.02,1.58-.02,2.38-.02,2.16,1.46,4.1,3.23,5.67,5.4,4.02,5.57,5.28,12.92,3.93,19.61-.34,.31-.69,.62-1.06,.93-4.37,3.61-8.9,7.05-13.35,10.56-2.08,1.64-.23,4.85,2.03,4.91,.1,0,.2,0,.3,0-5.86,3.24-13.07,4.25-20.05,2.51-3.51-.87-6.68-2.4-9.6-4.51-1.4-1.01-3.95-.02-4.23,1.72-.41,2.61-.98,5.28-1.71,7.96-1.39,.74-2.25,2.54-1.23,4.05-.21,.63-.44,1.26-.67,1.89-2.46-1.98-5.99,1.82-3.67,4.44,.39,.44,.77,.89,1.16,1.34-4.11,8.19-10.22,15.21-18.87,18.56-7.95,3.08-18.24,2.26-25.46-2.58,5.85-.53,11.78-2.22,16.72-4.16,9.49-3.73,17.26-10.13,18.64-20.76,1.07-8.27-1.44-16.51-4.66-24.18,8.73,2.04,17.78,3.38,26.5,.76,8.36-2.51,16.04-8.7,17.53-17.69,1.1-6.64-1.1-13.35-6.18-17.3,1.62,.31,3.23,.65,4.83,1.05Zm-164.79,5.07c6.6,.81,11.65,5.84,18.08,7.2,.96,.2,1.95,.33,2.96,.38-2.13,1.09-4.02,2.56-5.5,4.37-1.43,1.29-2.66,2.92-3.62,5-.67,1.46-1.06,3.01-1.15,4.55-1.25,.35-2.47,.83-3.64,1.44-4.86-2.96-11.51-2.14-15.94,1.91-.37,.33-.7,.69-1.03,1.05-.8-.23-1.59-.48-2.37-.76-3-1.07-6.85-2.62-9.41-4.88-.01-.05-.03-.09-.04-.14-2.76-12.28,10.63-21.47,21.66-20.12Zm-16.59-1.66c4.37-5.06,10.3-7.17,17.16-5.32,5.3,1.43,10.41,4.06,15.05,7.23-.76-.35-1.51-.72-2.24-1.1-6.16-3.18-11.95-5.71-19.05-4.82-3.86,.48-7.63,1.9-10.93,4Zm53.85-19.32c5.43,.09,10.03,2.33,14.38,5.11,.92,1.13,1.84,2.27,2.76,3.4-.96,.7-1.87,1.48-2.7,2.33-3.42,3.51-5.76,9.45-3.76,13.88-.02,2.5-.22,4.95-.59,7.39-.72-.45-1.44-.89-2.18-1.31,.23-.08,.46-.17,.69-.26,3.39-1.36,1.91-6.93-1.53-5.55-2.63,1.05-5.58,1.6-8.63,2.02-2-.45-4.05-.67-6.14-.59,.94-.65,1.79-1.45,2.5-2.43,2.77-3.86,2.13-8.55,.51-12.73-.89-2.3-2.48-5.01-3.41-7.74,1.75-2.61,4.9-3.57,8.11-3.52Zm-7.74-4.19c2.25-3.21,7.27-2.83,10.92-1.3-3.74-.57-7.55-.35-10.92,1.3Zm61.82-22.82c-.27-2.09-1.08-4.08,.46-5.84,1.3-1.49,3.29-2.37,5.09-3.11,7.72-3.18,19.14-4.33,23.36,4.74,3.87,8.33-6.62,13.06-10.71,18.65-4.66,6.35-3.49,14.48,3.82,18.11,1.85,.92,3.82,1.45,5.87,1.66,2.07,.22,4.68-.52,6.61,.26,1.07,.44,1.74,1.05,2.11,1.77-1.84,.06-3.68,.2-5.52,.45-5.48,.75-10.4,2.71-15.36,5.01-.86-.29-1.72-.55-2.56-.79-1.91-.55-3.48,1.11-3.65,2.77-2.93-1.57-5.96-1.42-8.59,.44,.49-6.82,4.02-13.46,4.68-20.26,.63-6.52-1.17-13.53-7.03-17.18-.13-.08-.26-.14-.39-.22,1.58-1.61,2.12-3.96,1.8-6.46Zm47.12,72.58c-6.34,.07-12.77-1.46-18.9-3.02,3.48-5.13,5.33-11.24,2.28-17.23-.49-.95-1.07-1.83-1.72-2.64,.92-.29,1.87-.55,2.82-.79,.73,1.22,2.22,1.95,3.78,.96,.96-.61,1.88-1.3,2.72-2.07,4.92-.41,9.77,.22,13.85,2.58,3.9,2.26,7.38,7.11,6.11,11.82-1.07,3.95-5.36,6.43-9.19,4.92-3.37-1.33-4.87,3.97-1.74,5.45Zm-25.38,5.89c-.02-.11-.06-.22-.1-.33,.61-.93,1.19-1.88,1.72-2.84,.19-.19,.37-.38,.56-.57,3.1,6.82,5.98,14.2,6,21.76,.03,8.24-4.49,14.16-11.72,17.71-.89,.44-1.9,.89-2.97,1.34,8.46-9.84,8.85-24.45,6.51-37.08Zm-4.21-25.69c.41,.3,.9,.5,1.43,.55,1.66,2.79,2.56,6.01,2.5,9.29-.07-.09-.13-.18-.21-.26-.27-.27-.63-.5-1.01-.65-.41-3.1-1.32-6.14-2.71-8.93Zm5.32-7.99c4.05-1.6,8.21-2.4,12.43-2.68-.09,.12-.18,.24-.27,.35-3.87,.58-7.69,1.63-11.19,2.92-.32-.2-.64-.4-.97-.59Zm-6.65,5.62c-.37-.58-.75-1.14-1.17-1.69,.42,.35,.82,.72,1.2,1.1-.03,.19-.04,.39-.03,.58Zm-16.36-26.43c-.95-4.31-3.4-8.09-8.54-7.95-7.89,.21-9.68,9.31-12.91,14.66-.3,.49-.64,1.04-1.05,1.55-1.96-.45-3.95-.51-5.91-.22-1.19-1.55-1.36-4.08-.86-5.84,.98-3.41,3.6-6.44,6.11-8.85,4.1-3.95,10.74-8.27,16.73-6.67,5.93,1.58,7.01,7.94,6.43,13.33Zm-4.31,25.96c.04,.24,.12,.45,.23,.65-1.79,2.41-3.92,4.21-5.81,1.14-1.96-3.19-1.17-7.51-2.49-10.97-.96-2.52-2.71-4.65-4.91-6.19,1.09-1.49,2.01-3.18,2.72-4.89,1.01-2.42,2.97-8.08,6.37-7.91,3.51,.17,3.05,6.51,2.91,8.73-.13,2.05,1.58,2.95,3.17,2.73-1.55,5.45-3.08,10.78-2.19,16.71Zm-24.24-10.76c2.52,.92,4.82,.58,6.84-.53,2.08,1.05,3.72,2.89,4.36,5.52,1.3,5.29,.78,11.77,6.73,14.4,4.05,1.78,7.77-.44,10.27-3.6,.48-.61,1.07-1.67,1.76-2.76,2.79-.05,5.47-.66,8.08-1.56,.95,1.11,1.76,2.35,2.28,3.21,1.51,2.48,2.51,5.27,2.92,8.14,1,7-1.61,13.76-6.22,18.78-.85,.66-1.71,1.31-2.58,1.95-3.07,.25-6.25-.58-8.67-2.47-2.89-2.25-6.99,1.79-4.07,4.07,1.62,1.26,3.41,2.26,5.29,2.97-1.46,.45-3.01,.51-4.69-.13-3.15-1.2-5.67-3.76-7.99-6.1-.88-.89-2.4-1.11-3.49-.45-.43,.26-.8,.56-1.11,.87-1.88-3.19-3.84-6.46-7.07-8.16,6.07-3.27,8.45-11.82,5.24-17.88-3.33-6.28-10.91-8.82-17.64-7.64,.04-1.19,.53-2.48,.98-3.37,.9-1.77,2.43-3.31,4.14-4.48,.05,.06,.1,.12,.15,.18,1.51,1.87,3.74,.8,4.49-.96Zm4.76,49.97c-.78-3.79-4.27-6.46-3.84-10.08,1.2,.94,2.06,2.31,2.9,3.72,1.1,1.83,2.12,3.73,3.36,5.47-.4,1.4-1.02,2.71-2.36,3.67,.14-.89,.13-1.82-.06-2.77Zm-19.8,5.46c.49,.25,.99,.5,1.49,.74-.36-.04-.72-.09-1.07-.15-5.06-.78-10.65-2.96-13.54-7.44-.01-.02-.02-.04-.03-.06,0,0,0,0,0,0,1.16-1.74,.09-3.41-1.43-3.99-.1-.69-.14-1.39-.1-2.07,1.42-.33,2.78-.77,3.95-1.35,2.45-1.22,4.16-3.8,3.97-6.41,.83,.56,1.76,.97,2.76,1.17,2.54,.52,4.55-.82,6.95-1.24,2.91-.51,5.7,.36,8.53,.63-1.28,2.56-1.75,5.42-1.08,8.25,.37,1.56,1.14,2.96,2,4.3,.75,1.17,2.06,2.64,1.82,4.14-.15,.94-.78,1.67-1.6,2.26-3.41-.53-6.84-2.3-9.69-3.75-3.29-1.67-6.21,3.29-2.9,4.97Zm2.35-26.5c-2.03,.31-5.45,2.64-6.75,.08-1.17-2.3,1.79-3.16,3.36-2.06,.6,.42,1.2,.56,1.75,.5,1.47,.64,3.44-.43,3.8-1.95,.72-3.03,1.2-6.09,1.43-9.18,.87-.37,1.52-1.23,1.74-2.18,3.07-.23,6.2,.55,8.53,2.72,3.1,2.89,3.17,7.87,.31,11-3.59,3.93-9.64,.38-14.18,1.07Zm-15-8.46c1.81,.44,3.55,1.11,5.23,1.93-2.33,1.92-3.6,5.08-2.51,8.21-.33-.03-.68-.02-1.06,.03-3.89,.58-6.69,3.24-8.21,6.59-.34,.04-.68,.08-1.03,.11,.35-2.27-1.82-3.69-3.75-3.1,.28-1.08-.05-2.26-1.36-2.92-1.39-.7-2.82-1.16-4.26-1.42,.02-1.65,.47-3.3,1.29-4.64,.78-.73,1.63-1.34,2.45-1.78,4.05-2.17,8.63-2.58,13.22-3.02Zm-5.44,31.01c.62,.97,1.34,1.86,2.12,2.69-.36,.16-.71,.42-1.02,.81-3.58,4.5-8.03,9.59-14,10.66-5.94,1.06-11.93-2.83-14.14-8.3-2.22-5.5-1.08-12.51,2.85-16.96,.12-.13,.24-.26,.37-.39,1.05-.34,2.06-.7,3.01-1.07,1.04-.4,2.03-1.46,2.17-2.61,.37-.16,.74-.29,1.12-.41,.58,1.08,1.38,2.06,2.42,2.9,.9,.73,1.89,1.3,2.91,1.68,1.05,.78,2.23,1.42,3.52,1.87-.02,2.92,.77,5.71,3.34,7.58,1.62,1.18,3.53,1.71,5.34,1.54Zm-3.04-8.31c.2,0,.4,0,.61,0,0,.57,.02,1.13,.07,1.69-.1-.11-.18-.21-.22-.29-.25-.42-.39-.89-.46-1.39Zm-26.29-7.48c-.61,.17-1.23,.32-1.86,.47-.07,0-.14-.01-.22-.02,.66-.22,1.36-.38,2.07-.45Zm-7.88,6.98c1.76-.09,3.54-.33,5.29-.64-2.2,4.99-2.64,10.81-.98,15.96,2.43,7.53,9.36,13.2,17.34,13.56,8.73,.4,15.68-6.16,20.72-12.51,.45-.56,.65-1.17,.67-1.77,.92,.61,1.87,1.17,2.87,1.66-.11,.04-.23,.06-.34,.1-7.25,2.55-8.61,11.15-15.57,14.21-6.71,2.95-14.64,1.45-20.22-3.12-6.41-5.25-10.43-13.99-10.48-22.26,0-1.69,.19-3.51,.69-5.21Zm34.31,34.85c3.76-2.11,6.17-5.24,8.48-8.79,1.38-2.11,2.74-3.66,5.22-4.42,2.3-.7,4.85-.72,7.24-.82,4.05-.17,8.26-.14,12.13,1.18,4.59,1.56,6.24,4.71,7.86,9.02,1.64,4.34,4.23,7.33,7.4,9.3-7.9,10.67-26.1,12.36-38.05,10.18-8.18-1.49-15.94-4.69-22.77-9.42-1.73-1.2-3.39-2.51-4.96-3.91,5.86,1.33,12.18,.63,17.45-2.33Zm46.69-4.83c-1.43-3.47-2.36-6.91-5.16-9.58-1.35-1.29-2.93-2.3-4.62-3.07,1.31-.11,2.63-.38,3.94-.87,.2-.07,.39-.16,.58-.24,2.16,3.98,4.31,7.96,6.47,11.93,1.11,2.04,2.14,4.29,3.34,6.4-.09,.28-.18,.55-.28,.82-1.81-1.25-3.29-3-4.27-5.38Zm-.49-17.02c.42-.46,.81-.94,1.16-1.47,.16-.25,.3-.51,.44-.77,4.51,2.67,10.31,2.58,15.31,1.02,3.81-1.18,7.37-3.11,10.49-5.59,.56-.13,1.11-.28,1.67-.47,2.29-.78,4.33-2.06,6.14-3.64,.06,.02,.11,.03,.17,.05,1.45,11.38,.17,24.29-9.87,31.37-2.25,1.59-4.86,2.77-7.61,3.13-3.67,.47-5.65-1.24-7.39-4.27-3.65-6.37-7.02-12.91-10.51-19.37Zm87.81-40.95c.88,6.88-3.35,12.53-9.1,15.62,.82-.81,1.54-1.72,2.12-2.71,3.41-5.78,1.42-12.91-2.81-17.67-3.58-4.02-8.29-6.1-13.42-6.84,1.31,.11,2.62,.25,3.93,.4,7.91,.92,18.03,1.4,19.28,11.21Zm-7.6-19.15c-3.81-.64-7.9-1.18-11.42-2.66-2.14-.9-3.15-2.05-2.56-4.41,.46-1.84,1.45-3.59,2.41-5.21,.37-.62,.77-1.23,1.17-1.83,.97,2.53,2.52,4.86,4.18,6.99,1.88,2.41,3.89,4.98,6.22,7.12Zm-122.4-45.99c2.39-5.41,8.53-6.99,14.35-7.75-4.27,2.48-8.11,5.71-11.17,9.59-1.95,2.47-3.51,5.16-4.94,7.93,.14-3.35,.39-6.67,1.75-9.77Zm-20.15,27.94c1.83,1.21,3.89,1.7,5.94,1.58-.59,.45-1.21,.88-1.87,1.24-3.87,2.15-6.84,.63-9.71-2.22-.34-.34-.67-.68-1-1.03,2.16,.4,4.38,.55,6.63,.43Zm-50.54,31.65c-2.04-8.12,2.66-16.63,6.79-23.35,4.23-6.88,10.68-13.23,19.29-13.22,8.06,0,11.31,7.04,16.89,11.5,6.02,4.81,12.87,3.27,18.39-1.57,5.35-4.7,8.19-11.49,11.23-17.75,3.36-6.9,7.41-13,14.02-17.19,6.21-3.94,13.51-5.96,20.86-5.57,.46,.48,1.14,.78,2.03,.73,.8-.05,1.6-.09,2.4-.14,3.06,.61,6.05,1.52,9.13,2.05,4.23,.73,8.37,.61,12.49-.63,4.27-1.28,8.2-3.44,12.29-5.15,4.34-1.81,8.91-3.11,13.55-3.87,7.42-1.22,15.06-1.07,22.13,1.71,5.63,2.22,11.24,6.41,12.42,12.69,1.12,5.95-2.06,11.33-5.6,15.89-.35,.05-.71,.18-1.08,.4-2.71,1.63-4.45,4.19-5.18,7.12-2.64,3.18-5.15,6.48-6.92,10.21-1.52,3.18-2.95,7.01-1.26,10.42,.87,1.76,2.3,3.02,3.95,3.95-1.34-.12-2.68-.22-4.02-.28-.6-2.84-2.33-5.42-4.95-6.8-4.02-2.11-8.73-.03-12.84-2.08-4.97-2.48-3.87-7.3-.71-10.88,3.08-3.49,7.16-5.93,9.64-9.97,2.22-3.61,2.59-7.99,1.13-11.95-3.38-9.13-13.03-12.71-22.12-11.43-5.12,.72-10.85,2.53-14.93,5.83-1.8,1.46-3.22,3.39-3.69,5.69-.27,1.35-.15,2.64,.06,3.99,.07,.43,.99,3.51,.27,3.78-1.07,.4-1.66,1.2-1.87,2.09-10.72-1.07-22.71,9.14-26.57,18.06-.71,1.65-1.08,3.45-1.12,5.23-.14-.09-.28-.18-.42-.26-6.69-8.25-15.11-16.3-25.67-11.87-5.53,2.32-7.98,7.68-6.91,13.46,.04,.19,.08,.38,.13,.56-1.86,4.97-.94,11.13,.31,16.32,.46,1.9,2.21,2.37,3.65,1.87-.33,.38-.72,.71-1.18,.98-.02-.01-.03-.03-.05-.04-7.52-6.35-16.95-12.51-26.85-14.06-9.48-1.48-17.3,3.34-22.42,11.06-2.31,3.48-4.96,8.39-5.98,13.27-.28-.21-.62-.36-1.03-.42-1.32-.2-2.69-.44-4.05-.76-2.71-2.55-4.7-5.88-5.63-9.59Zm-17.97,32.86c1.36-2.24,3.7-3.95,5.97-5.15,7.45-3.96,16.29-3.29,23.96-6.65,.19,.31,.4,.62,.63,.92,.24,.3,.49,.59,.75,.88,2.16,6.62,7.19,9.57,13.12,10.42-1.09,5.11-.34,10.82,1.16,15.53,1.08,3.36,2.63,6.64,4.62,9.62-1.24-.06-2.09,.89-2.37,2.05-6.57-1.71-13.32-2.69-19.98-4.04-7.79-1.57-16.01-3.61-22.29-8.76-3.11-2.55-6.74-6.4-6.74-10.71,1.93-.55,2.11-2.66,1.18-4.1Zm-75.79,21.23c0,1.18,.16,2.82-.69,3.79-.74,.85-2.15,1.11-3.18,1.37-10.49,2.71-21.3,5.12-31.96,7.06-1.34,.24-2.71,.46-4.1,.6-.5-3.52-.99-7.05-1.49-10.57-.01-.08-.03-.16-.05-.24,2.8,.05,5.62-.35,8.34-.96,5.47-1.22,10.79-3.18,16.13-4.88,5.66-1.8,11.31-3.61,16.97-5.41-.03,.55-.06,1.06-.06,1.48,.03,2.59,.08,5.18,.08,7.77Zm-40.33-10.47c5.46-1.38,10.93-2.77,16.39-4.15,5.39-1.36,10.89-2.99,16.51-2.8,1.8,.06,5.65,.14,6.83,1.9,.09,.14,.17,.3,.25,.46-.26,.01-.52,.05-.81,.14-10.75,3.43-21.51,7.5-32.48,10.18-5.2,1.27-10.29,1.53-15.17-.94-1.15-.58-2.28-1.19-3.42-1.77l11.91-3.02Zm-19.82,9.36c.06-.64,.01-2.05,.14-3.11,4.25,.52,7.9,3.69,11.91,5.09,.53,.19,1.06,.34,1.6,.48-.44,.68-.58,1.55-.46,2.42,.43,3.03,.85,6.05,1.28,9.08-2.34-.24-4.62-.87-6.71-2.08-2.81-1.64-5.14-3.93-7.61-6.03-.14-.41-.35-.79-.63-1.13,.16-1.57,.32-3.15,.48-4.72Zm-37.54,214.94c-7.39-56.22-8.74-113.22-3.98-169.72,.33-3.91,.57-7.87,1.09-11.77,.41-3.02,1.17-6.45,4.11-7.99,.75-.39,1.54-.65,2.35-.8-.1,56.59-1.04,113.18-2.86,169.75-.22,6.84-.46,13.69-.71,20.53Zm2.93,35.76c-.15,.07-.29,.14-.42,.22-.27-.88-.53-1.78-.76-2.67,1.39-.16,2.76-1.19,2.83-2.8,.09-2.27,.18-4.53,.27-6.8,.7,1.14,1.35,2.31,1.97,3.43,2.67,4.82,5.52,9.42,8.97,13.73,4.4,5.49,9.55,10.35,15.24,14.48-2.33-1.14-4.55-2.64-6.58-4.07-2.86-2.01-5.69-4.07-8.53-6.11-1.52-1.09-3.04-2.18-4.56-3.27-.36-.26-2.97-2.32-4.1-2.73,.52-1.99-1.77-4.57-4.32-3.4Zm37.34,27.5c-10.21,1.57-20.85-2.66-28.05-10.21-2.17-2.28-4.01-4.78-5.55-7.45,3.77,2.72,7.57,5.42,11.35,8.13,6.47,4.64,14.18,10.34,22.43,9.2-.07,.11-.14,.22-.19,.34Zm-22.2-28.81c-4.38-6.04-7.33-14.26-12.88-19.45,2.12-55.03,3.44-110.1,3.92-165.17,.12-13.24,.17-26.48,.2-39.72,3.7,.96,7.4,2.99,10.22,4.35,.29,.14,.57,.28,.86,.42,.83,.7,1.65,1.43,2.43,2.19,4.19,4.09,4.77,8.77,5.29,14.39,1.12,12.01,2.24,24.03,3.35,36.04,1.08,11.65,2.01,23.33,3.32,34.97,1.23,10.92,3.08,21.8,7.33,32,.34,.82,.87,1.37,1.48,1.69,.06,4.49,.12,8.98,.17,13.47,.4,35.72,.58,71.44,.57,107.16-10.32-5.32-19.44-12.91-26.27-22.33Zm16.93-196.1c1.08,10.61,2.67,21.16,4.19,31.72,2.31,16.08,4.36,32.31,3.97,48.54-2.94-12.77-3.61-26.13-4.82-39.1-.91-9.72-1.81-19.45-2.72-29.17-.44-4.77-.89-9.53-1.33-14.3-.42-4.56-.45-9.45-1.7-13.89-.17-.61-.38-1.19-.61-1.75,.7,.3,1.43,.6,2.15,.92-.14,.59-.23,1.2-.25,1.8-.18,5.01,.6,10.26,1.11,15.24Zm4.72-13.57s.08,.07,.11,.11c2.25,2.45,1.89,6.39,1.96,9.46,.1,4.4,.2,8.79,.3,13.19,.02,.85,.03,1.69,.05,2.54-.06-.47-.13-.94-.19-1.4-.6-4.7-1.14-9.41-1.56-14.13-.21-2.36-.39-4.71-.53-7.07-.05-.9-.11-1.79-.15-2.69Zm5.54-3.43c-.13,.28-.22,.59-.24,.9-.87-1.23-1.96-2.24-3.21-3.1-.2-.88-.82-1.65-1.95-1.97-.65-.18-1.25-.21-1.79-.15-3.18-1.62-6.45-3.1-9.66-4.65-1.57-.76-3.39-1.7-5.38-2.67-2.12-1.78-4.28-3.55-6.17-5.56-1.65-1.76-3.95-.65-4.65,1.09-.96-.29-1.92-.55-2.88-.75,0-.85,0-1.7,0-2.55,.62,.09,1.25,.13,1.83,.15,7.21,.24,14.42,.36,21.62,.54,3.7,.09,3.7-5.66,0-5.75-3.42-.09-6.83-.17-10.25-.26,3.29-.57,6.58-1.14,9.87-1.71,.46,.2,.98,.28,1.51,.23,3.3,2.65,6.23,5.8,10.13,7.62,5.47,2.56,11.55,2.4,17.4,1.5,6.7-1.03,13.32-2.79,19.94-4.27,3.29-.73,6.58-1.47,9.87-2.2,2.91-.65,6.13-1.06,8.63-2.79,4.09-2.84,3.85-8.36,3.6-13.12,.57,.33,1.27,.48,2.07,.3,15.59-3.36,31.35-5.79,47.22-7.29,.39,.89,1.22,1.55,2.52,1.47,3.79-.23,7.26-1.15,10.67-2.8,.49-.23,.83-.58,1.06-.99,1.61,6.16,7.16,11.25,12.36,14.41,6.2,3.77,13.37,5.65,20.42,7.07,2.6,.52,5.22,.99,7.84,1.47-5.16,.38-10.32,.79-15.48,1.24,1.52-1.82-.03-5.42-2.98-4.67-38.3,9.74-77.78,10.45-116.74,15.88-9.33,1.3-18.72,3.54-26.48,9.13-1.54,1.11-1.51,2.99-.71,4.23Zm35.93-8.75c-8.15,1.62-16.29,3.32-24.4,5.14,4.86-1.99,10.06-3.13,15.32-3.93,3.02-.46,6.05-.85,9.09-1.2Zm-33.33,36.09c-.1-4.59-.2-9.17-.31-13.76-.08-3.23,0-6.61-1.05-9.7,.57,.33,1.27,.47,2.08,.28,45.35-10.58,91.4-18.12,137.77-22.46,13.19-1.23,26.4-2.21,39.62-2.94,1.22-.07,2.03-.74,2.45-1.61,.28,.12,.56,.23,.84,.35,10.72,13.72,26.9,22.29,44.29,23.65,13.26,1.04,30.47-2.73,38.28-14.32,.81,.22,1.64,.39,2.48,.53,5.76,6.78,14.88,10.37,23.99,10.37,13.99,0,25.59-8.92,32.48-20.62,.13-.22,.25-.46,.38-.68,7.35,9.67,13.04,20.49,16.89,31.95-7-3.78-16.65-2.5-24.17-2.39-11.5,.18-22.99,.72-34.46,1.56-22.84,1.68-45.58,4.6-68.2,8.16-22.72,3.58-45.36,7.71-67.98,11.82-21.69,3.94-43.37,8.07-64.82,13.17-21.81,5.18-43.39,11.41-64.35,19.37-5.17,1.06-10.34,2.14-15.5,3.23-.21-11.99-.44-23.98-.7-35.97Zm339.53-12.43c-44.39,3.33-88.69,7.81-132.85,13.46-44.74,5.72-89.33,12.62-133.71,20.7-2.49,.45-4.97,.91-7.46,1.37,23.14-6.14,46.66-10.92,70.19-15.3,43.86-8.15,87.88-16.53,132.33-20.7,12.58-1.18,25.19-2.02,37.82-2.45,6.41-.22,12.82-.32,19.23-.31,4.78,0,10.6-.41,14.34,3.13,.04,.04,.08,.07,.12,.1Zm-4.2,184.24c-12.26,2.2-24.52,4.38-36.82,6.39-24.87,4.07-49.82,7.26-74.98,8.78-12.38,.75-24.77,1.38-37.07,3.08-12.14,1.68-24.08,4.44-36.05,6.98-24.61,5.2-49.56,7.57-74.55,10.11-14.99,1.53-29.99,3.06-44.98,4.58,11.58-1.8,23.17-3.59,34.75-5.39,23.95-3.71,47.91-7.43,71.86-11.14,23.66-3.67,47.3-7.39,70.97-10.99,23.61-3.59,47.27-6.33,71.03-8.61,23.75-2.28,47.5-4.54,71.25-6.82-5.08,1.26-10.3,2.1-15.41,3.02Zm22.16-9.42c-46.69,4.44-93.6,7.94-140.03,14.71-47.97,7-95.84,14.78-143.74,22.2-13.39,2.08-26.78,4.15-40.17,6.23-10.3,1.6-21.07,2.58-31.31,5.09,0-20.9-.05-41.8-.18-62.69,.34,6.81,.78,13.63,1.32,20.45,.88,11.11,1.51,22.36-.67,33.36-.72,3.62,4.83,5.16,5.55,1.53,3.85-19.38,.17-39.37-.8-58.86-1.01-20.35-.87-40.76,.42-61.1,.74-11.68,1.86-23.32,3.34-34.93,.47-3.66-5.29-3.63-5.75,0-2.06,16.18-3.3,32.35-3.86,48.54-.21-18.37-.47-36.73-.79-55.1,2.42-.51,4.84-1.01,7.27-1.52,.6,.76,1.57,1.15,2.79,.66,2.28-.91,4.56-1.8,6.85-2.67,38-7.81,76.18-14.77,114.5-20.84,44.41-7.04,89.01-12.89,133.74-17.54,25.2-2.63,50.43-4.87,75.7-6.75,.71-.05,1.29-.32,1.73-.7,1.29,5.8,2.13,11.71,2.48,17.68,.42,7,.51,14,1.55,20.95,.58,3.92,1.63,8.16,4.26,11.15,.38,3.33,.55,7.08,4.04,8.66,4.42,2,9.14-1.23,12.61-4.82,2.2,39.06-1.42,78.31-10.83,116.31,0,0,0,0,0,0Zm21.18-76.75c-.04,18.04-.18,36.44-6,53.72-1.9,5.64-4.42,11.06-7.63,16.04,8.55-38.12,11.47-77.43,8.57-116.4,.32-.55,.61-1.11,.9-1.67,1.79-2.28,3.24-4.71,4.23-6.92,.01-.03,.03-.07,.04-.1-.04,18.44-.07,36.89-.11,55.33Zm2.01-91.84c.13,0,.26,0,.4,0,1.84,.12,3.6,.98,5.23,1.76,3.75,1.8,7.39,3.83,10.89,6.08,3.03,1.95,5.94,4.08,8.72,6.35,.05,.55,.11,1.11,.15,1.66-8.87-4.61-17.35-9.91-25.4-15.86Zm37.19,17.3c-1.18-1.19-2.4-2.36-3.63-3.49,4.6-6.03,2.73-15.55,1.67-22.5-.6-3.93-1.48-7.81-2.6-11.61,4.95,11.9,7.92,25.11,4.56,37.6Zm-4.71-51.45c1.17,.47,2.38,.68,3.68,.32-.34,.92-.75,1.84-1.29,2.39-.26,.26-.54,.38-.84,.4-.51-1.04-1.02-2.08-1.55-3.11Zm21.05-46.12c-2.62,.02-5.25-.09-7.87-.14-5.18-.09-10.35-.19-15.53-.28-.08-.02-.15-.04-.23-.05-.56-.13-1.1-.07-1.59,.1-2.14,.44-2.74,3.18-1.36,4.84,7.26,8.77,10.65,20.71,8.92,31.98-.16,1.04-.23,2.87-.86,3.74-.78,1.08-1.79-.18-2.87-.84-1.43-.87-2.9-1.67-4.4-2.42-1.16-2.22-2.31-4.45-3.42-6.69,.92-.57,1.46-1.62,.94-2.98-2.23-5.83-5.2-11.3-8.8-16.3-.16-.56-.32-1.12-.47-1.68-.35-1.32-1.33-1.94-2.38-2.03-3.1-3.76-6.59-7.2-10.43-10.26,3.22-5.89,4.31-13,2.29-20.14-.03-.12-.07-.24-.11-.36,14.72,3.08,28.69,8.95,41.14,17.44,2.77,1.89,5.49,3.89,8.06,6.06-.34,.02-.71-.01-1.02-.01Z"/><path class="cls-1" d="M362.26,340.44c-.26-10.3-2.72-21.26-8.04-30.34-1.53-3.69-3.64-7.17-6.41-10.29-9.64-10.87-23.93-11.02-37.01-7.24-1.48,.43-2.95,.89-4.41,1.37,.56-1.76-.47-4.21-2.66-3.97-12.56,1.36-25.12,2.72-37.67,4.08-5.97,.65-11.95,1.24-17.91,1.94-4.44,.53-8.83,1.27-12.83,3.18-.89-1.67-3.74-2.41-5.21-.33-7.27,10.31-14.61,20.87-20.49,32.12-1.13-.34-2.45-.07-3.27,1.19-5.11,7.85-9.15,16.28-12.66,24.95-3.13,7.74-6.04,15.69-7.32,23.97-1.18,7.61-1.09,15.48,1.96,22.67,3.01,7.08,8.9,13.26,16.71,14.66,.2,.04,.39,.05,.58,.06-.19,1.28,.38,2.64,2.01,3.04,4.9,1.2,9.82,2.3,14.76,3.32,6.49,3,13.72,4.02,20.9,4.89,19.78,2.41,41.63,2.91,58.02-10.2,.23-.18,.41-.38,.56-.58,20.71-6.32,39.59-20.98,50.31-39.39,6.85-11.76,10.44-25.49,10.1-39.11Zm-55.43-40.57c.2-.07,.4-.14,.6-.21,6.42-.83,12.89-1.04,19.28-.63,6.44,.41,12.39,2.06,17.06,6.7,2.12,2.1,3.9,4.54,5.4,7.15,.38,.94,.72,1.89,1.02,2.87,3.96,12.96,.2,26.69-3.85,39.14-3.96,12.15-8.16,24.85-17.35,34.15-8.08,8.17-18.76,13.16-29.62,16.47-9.94,3.04-23.27,6.26-35.51,5.77-7.19-4.51-12.9-11.46-17.67-18.42-3.57-5.22-6.78-10.82-8.28-17.02-1.48-6.1-.78-12.29,1.33-18.15,4.18-11.6,13.11-21.6,21.92-29.97,8.75-8.32,18.67-15.34,29.39-20.88,5.25-2.71,10.68-5.05,16.26-6.98Zm-54.35,109.64c-7.72-2.29-14.21-7-17.97-15.42-1.89-4.23-2.33-8.74-1.11-13.14,3.48,10.56,10.95,20.44,18.49,27.99,.19,.19,.39,.38,.58,.57Zm-9.43-70.05c4.22-6.98,9.54-13.33,15.74-18.71,4.18-3.63,8.73-6.81,13.53-9.55-10.14,7.14-19.33,15.66-27.05,25.37-.75,.95-1.49,1.91-2.22,2.89Zm-10.41-34.26c.81,.74,1.98,1.01,3.19,.25,.81-.51,1.65-.95,2.51-1.33-7.6,4.5-13,11.67-17.63,19.1-1,1.6-1.98,3.2-2.96,4.82,4.53-7.88,9.69-15.43,14.89-22.83Zm-39.85,72.79c1.6-7.1,3.97-14.22,6.9-21.11-1.87,8.27-2.42,16.73-1.59,25.21,.97,9.84,2.64,19.64,4.17,29.42-11.54-5.38-11.97-22.52-9.48-33.53Zm15.79,37.89c.04-.32,.03-.65-.02-1-.09-.59-.18-1.19-.27-1.78,.85,1.15,1.76,2.26,2.73,3.31-.63-.15-1.25-.3-1.88-.45-.19-.05-.38-.07-.56-.08Zm41.04,8.78c-1.21-.11-2.45-.22-3.69-.34-.29-.66-.89-1.18-1.88-1.34-6.69-1.06-13.36-2.29-19.99-3.66-.29-.15-.59-.3-.88-.46-6.38-3.55-11.12-9.28-14.29-15.78-7.48-15.36-4.97-32.71,1.25-48.02,3.58-8.82,8.38-17.13,13.29-25.27,4.47-7.43,9.25-15.29,16.73-20.06,8.7-5.54,19.52-6.64,29.48-8.3,5.71-.95,11.43-1.9,17.14-2.86-4.66,1.55-9.21,3.44-13.61,5.68-23.56,11.97-41.5,34.58-45.82,60.9-1.02,6.21-1.3,12.47-.73,18.74,.04,.45,.16,.84,.34,1.18-.27,9.14,4.86,18.07,12.04,23.77,6.73,5.33,14.92,7.55,23.31,8.04,6.89,3.81,14.58,5.6,22.81,5.2-11.17,3.93-23.89,3.68-35.5,2.58Zm105.12-67.03c-5.43,23.16-22.7,41.4-43.84,51.46-10.11,4.81-22.14,8.59-33.51,7.08,.07,0,.14-.02,.21-.03,25.78-3.51,53.24-12.88,65.73-37.54,3.26-6.44,5.63-13.3,7.9-20.14,2.1-6.33,4.05-12.72,5.23-19.28,.29,6.18-.3,12.4-1.72,18.44Z"/><path class="cls-1" d="M310.51,337.03c-1.41-2.08-3.39-3.76-5.85-4.81-5.48-2.35-10.69-.08-15.35,2.99-8.79,5.79-17.23,14.24-17.39,25.46-.15,10.5,7.49,19.51,18.43,18.86,11.48-.68,20.33-10.64,24.16-20.84,2.66-7.09,1.58-16.64-4-21.66Zm-14.02,33.46c-1,.47-2.22,.87-3.38,.85,.42-.75,.48-1.7-.13-2.67-4.11-6.59-5.89-15.41-.99-22.11,2.09-2.86,5.29-5.1,8.87-5.51,5.31-.62,5.24,3.8,4.98,7.78-.49,7.62-1.42,17.91-9.35,21.65Zm-18.25-5.23c-1.73-6.29,.63-12.12,4.5-16.87-.52,1.3-.93,2.61-1.22,3.91-1.03,4.68-.93,9.69,.62,14.25,.75,2.21,1.83,4.6,3.35,6.54-3.38-1.15-6.14-3.78-7.25-7.83Z"/><path class="cls-1" d="M186.68,241.34c-2.4-1.03-5.33-.15-7.83,.16l-10.09,1.25c-14.94,1.86-29.89,3.71-44.83,5.57-.66,.08-1.2,.34-1.62,.71-.86-3.01-5.89-2.82-5.64,.65,.45,6.09,.27,12.62,1.58,18.6,1.06,4.83,4.55,7.54,9.52,7.21,12.76-.86,25.69-3.47,38.21-5.94,3.11-.62,6.21-1.26,9.31-1.94,2.96-.65,6.17-1.11,8.9-2.51,4.22-2.17,6.06-6.4,6.37-10.95,.26-3.83,.28-11.02-3.89-12.8Zm-3.56,17.49c-1.52,1.65-4,2.02-6.08,2.5-2.55,.58-5.1,1.13-7.65,1.67-10.41,2.17-20.89,4-31.42,5.46-3.07,.43-6.14,.86-9.23,1.18-2.54,.26-4.17,.15-4.86-2.52-.63-2.47-.56-5.18-.75-7.7-.13-1.81-.27-3.62-.4-5.43,.34,.11,.74,.15,1.19,.09,10.46-1.3,20.92-2.6,31.38-3.9l16.25-2.02c2.43-.3,4.86-.6,7.28-.91,1.31-.16,2.61-.34,3.92-.49,1.45-.16,1.42-.26,1.66,1.16,.55,3.34,1.2,8.18-1.31,10.91Z"/></svg>