<?xml version="1.0" encoding="UTF-8"?><svg xmlns="http://www.w3.org/2000/svg" width="499.53mm" height="311.38mm" xmlns:xlink="http://www.w3.org/1999/xlink" viewBox="0 0 1415.98 882.66"><defs><style>.cls-1{fill:url(#linear-gradient-2);}.cls-2{fill:#f3e639;}.cls-3{fill:#fff;}.cls-4{fill:#f7eb64;}.cls-5{fill:#f49619;}.cls-6{fill:url(#linear-gradient-6);}.cls-7{fill:#3f3f3e;}.cls-8{fill:#1e1b15;}.cls-9{fill:#f8f4bd;}.cls-10{fill:url(#linear-gradient-5);}.cls-11{fill:url(#linear-gradient-7);}.cls-12{fill:#383a25;}.cls-13{fill:#aba3a1;}.cls-14{fill:url(#linear-gradient-3);}.cls-15{fill:url(#linear-gradient);}.cls-16{fill:url(#linear-gradient-4);}</style><linearGradient id="linear-gradient" x1="713.58" y1="212.44" x2="713.58" y2="600.16" gradientUnits="userSpaceOnUse"><stop offset="0" stop-color="#fff" stop-opacity="0"/><stop offset=".18" stop-color="#fafcfd" stop-opacity=".02"/><stop offset=".33" stop-color="#ebf4f9" stop-opacity=".07"/><stop offset=".47" stop-color="#d3e7f2" stop-opacity=".17"/><stop offset=".6" stop-color="#b1d4e8" stop-opacity=".3"/><stop offset=".73" stop-color="#85bcdb" stop-opacity=".48"/><stop offset=".85" stop-color="#4e9ecb" stop-opacity=".69"/><stop offset=".97" stop-color="#0f7bb9" stop-opacity=".94"/><stop offset="1" stop-color="#0073b5"/></linearGradient><linearGradient id="linear-gradient-2" x1="568.95" y1="532.93" x2="528.24" y2="380.99" gradientUnits="userSpaceOnUse"><stop offset="0" stop-color="#3f3f3e" stop-opacity=".2"/><stop offset=".15" stop-color="#62314b" stop-opacity=".37"/><stop offset=".38" stop-color="#90205d" stop-opacity=".59"/><stop offset=".58" stop-color="#b5126b" stop-opacity=".77"/><stop offset=".76" stop-color="#d00875" stop-opacity=".89"/><stop offset=".9" stop-color="#e0027b" stop-opacity=".97"/><stop offset="1" stop-color="#e6007e"/></linearGradient><linearGradient id="linear-gradient-3" x1="822.42" y1="542.46" x2="876.1" y2="394.98" gradientUnits="userSpaceOnUse"><stop offset="0" stop-color="#3f3f3e" stop-opacity=".2"/><stop offset="1" stop-color="#3aaa35"/></linearGradient><linearGradient id="linear-gradient-4" x1="923.09" y1="770.23" x2="1038.79" y2="452.36" gradientUnits="userSpaceOnUse"><stop offset="0" stop-color="#3f3f3e" stop-opacity=".2"/><stop offset=".14" stop-color="#60324a" stop-opacity=".36"/><stop offset=".37" stop-color="#8f205c" stop-opacity=".57"/><stop offset=".57" stop-color="#b4126b" stop-opacity=".75"/><stop offset=".75" stop-color="#cf0875" stop-opacity=".87"/><stop offset=".9" stop-color="#e0027b" stop-opacity=".95"/><stop offset="1" stop-color="#e6007e" stop-opacity=".98"/></linearGradient><linearGradient id="linear-gradient-5" x1="482.72" y1="737.19" x2="394.64" y2="408.5" gradientUnits="userSpaceOnUse"><stop offset="0" stop-color="#3f3f3e" stop-opacity=".2"/><stop offset=".21" stop-color="#746f30" stop-opacity=".43"/><stop offset=".42" stop-color="#a49a25" stop-opacity=".63"/><stop offset=".61" stop-color="#cabd1c" stop-opacity=".79"/><stop offset=".77" stop-color="#e5d515" stop-opacity=".9"/><stop offset=".91" stop-color="#f5e411" stop-opacity=".97"/><stop offset="1" stop-color="#fcea10"/></linearGradient><linearGradient id="linear-gradient-6" x1="986.28" y1="1118.43" x2="1214.97" y2="490.13" gradientUnits="userSpaceOnUse"><stop offset="0" stop-color="#736556" stop-opacity=".2"/><stop offset=".19" stop-color="#97883f" stop-opacity=".41"/><stop offset=".4" stop-color="#bcac29" stop-opacity=".62"/><stop offset=".6" stop-color="#d8c817" stop-opacity=".78"/><stop offset=".77" stop-color="#eddc0a" stop-opacity=".9"/><stop offset=".91" stop-color="#fae802" stop-opacity=".97"/><stop offset="1" stop-color="#ffed00"/></linearGradient><linearGradient id="linear-gradient-7" x1="382.7" y1="778.16" x2="209.66" y2="132.35" gradientTransform="translate(75.21 355.94) rotate(-.59) scale(.98 .94) skewX(-1.17)" gradientUnits="userSpaceOnUse"><stop offset="0" stop-color="#736556" stop-opacity=".2"/><stop offset=".1" stop-color="#6c6e69" stop-opacity=".32"/><stop offset=".33" stop-color="#608292" stop-opacity=".55"/><stop offset=".54" stop-color="#5691b2" stop-opacity=".74"/><stop offset=".72" stop-color="#4e9cc9" stop-opacity=".87"/><stop offset=".87" stop-color="#4aa3d7" stop-opacity=".96"/><stop offset=".97" stop-color="#49a6dd" stop-opacity=".99"/><stop offset=".99" stop-color="#2a80c3" stop-opacity="1"/><stop offset="1" stop-color="#1d71b8"/></linearGradient></defs><g id="Layer_22"><polygon class="cls-15" points="-64.2 212.44 1491.36 212.44 1491.36 600.16 -64.2 590.07 -64.2 212.44"/><path class="cls-12" d="M-110.43,1337.46c40.7,4.73,82.54,2.97,123.57,2.18,44.34-.86,88.74-.47,133.1-.85,45.91-.4,91.81-.97,137.72-1.5,92.19-1.06,184.42-1.93,276.62-.72,92.89,1.21,185.48,6.88,278.38,7.46,91.99,.57,183.95-1.93,275.93-2,93.33-.07,186.65,.81,279.98,.57,34.89-.09,70.26-1.85,105.08-.23,25.93,1.2,52.12,3.54,78.13,2.37,4.68-.21,10.25-.35,14.9-1.54V594.81c-184.29-50.3-489.87-115.55-876.98-116.22-393.33-.68-703.53,65.62-888.93,116.22v717.34c13.09,15.84,36.66,22.3,62.5,25.31Z"/><path class="cls-9" d="M631.96,483.23s-16.42-94.88,77.19-90.66c93.61,4.22,69.47,95.69,69.47,95.69l-146.67-5.03Z"/><path class="cls-4" d="M648.09,480.41s-13.71-79.22,64.45-75.7c78.16,3.52,58.01,79.9,58.01,79.9l-122.46-4.2Z"/><path class="cls-2" d="M663.65,480.37s-12.06-61.77,42.27-61.86c54.34-.09,42.82,60.68,42.82,60.68l-85.09,1.17Z"/><path class="cls-5" d="M677.67,469.61s4.11-52.18,34.91-37.86,20.28,37.86,20.28,37.86h-55.19Z"/><path class="cls-7" d="M80.1,1229.42c.84,22.49-1.3,47.72,7.86,68.9,8.4,19.42,26.27,26.87,46.02,30.16,28.38,4.73,57.56,2.97,86.18,2.18,30.92-.86,61.89-.47,92.82-.85,32.01-.4,64.03-.97,96.04-1.5,64.29-1.06,128.6-1.93,192.9-.72,64.78,1.21,129.35,6.88,194.13,7.46,64.15,.57,128.28-1.93,192.43-2,65.08-.07,130.16,.81,195.25,.57,24.33-.09,49-1.85,73.28-.23,18.08,1.2,36.35,3.54,54.49,2.37,5.73-.37,13.4-.52,16.08-6.53,3.63-8.16,1.87-19.03,1.32-27.64-.72-11.44,.14-22.75,.61-34.19,.64-15.61,1.18-31.22,1.82-46.82,1.4-34.06,3.36-68.27,7.91-102.07-217.87-335.32-480.37-632.68-480.37-632.68-132.05-57.58-294.91,0-294.91,0-167.54,88.55-371.67,470.83-485.26,706.64,.44,12.32,.94,24.64,1.4,36.95Z"/><path class="cls-13" d="M697.89,471.32c.1-.67,.71-4.73,.81-5.4,.09-.59,.67-4.46,.76-5.04,2.68-.31,5.56-.55,8.62-.66,3.58-.14,6.93-.1,10.01,.06-.16,3.59-.32,7.18-.48,10.77-6.57,.09-13.15,.19-19.72,.28Z"/><path class="cls-13" d="M696.95,528.99h27.52s15.82,94.93,10.32,99.75-58.47,0-58.47,0c0,0,7.57-54.34,20.64-99.75Z"/><path class="cls-13" d="M681.75,778.33s55.98-5.5,70.64,0c0,0,59.37,185.04,62.81,242.14,0,0-144.46-18.57-211.18,0,0,0,41.96-168.54,77.73-242.14Z"/><path class="cls-1" d="M610.7,512.73c-22.1,18.16-52.43,25.1-87.44,25.68-1.31-51.68-2.62-103.35-3.93-155.03,3.73-.87,7.45-1.75,11.18-2.62,26.73,43.99,53.46,87.98,80.19,131.97Z"/><path class="cls-14" d="M868.64,548.48c-28.43,3.09-57.62-7.71-87.23-26.39,27.2-43.96,54.4-87.91,81.61-131.87,3.6,1.31,7.19,2.62,10.79,3.93-1.72,51.45-3.45,102.89-5.17,154.34Z"/><path class="cls-16" d="M1022.72,783.22c-61.28,6.66-124.18-16.62-188-56.89,58.63-94.74,117.26-189.49,175.89-284.23,7.75,2.82,15.51,5.65,23.26,8.47-3.71,110.88-7.43,221.76-11.14,332.65Z"/><path class="cls-10" d="M384.3,749.14c61.28,6.66,124.18-16.62,188-56.89-58.63-94.74-117.26-189.49-175.89-284.23-7.75,2.82-15.51,5.65-23.26,8.47,3.71,110.88,7.43,221.76,11.14,332.65Z"/><polygon class="cls-8" points="535.22 379.2 532.83 370.74 503.84 378.93 500.04 378.93 500.04 387.86 501.72 387.86 501.72 490.24 498.58 492.87 498.58 545.41 514.63 545.41 514.63 492.87 511.49 490.33 511.49 387.86 513.17 387.86 513.17 385.44 516.83 384.4 517.47 386.66 533.5 382.13 532.86 379.87 535.22 379.2"/><path class="cls-7" d="M492.61,549.34s.62-10.72,3.71-15.46c0,0-3.65,9.85,4.78,12.45,0,0,4.82-7.33,5.17-10.87,.35-3.54,1.59,11.83,1.59,11.83l10.07-16.31,1.15,21.64-26.49-3.27Z"/><polygon class="cls-8" points="857.9 388.41 860.36 379.94 890.18 388.14 894.09 388.14 894.09 397.07 892.36 397.07 892.36 499.44 895.59 502.08 895.59 554.62 879.08 554.62 879.08 502.08 882.31 499.54 882.31 397.07 880.58 397.07 880.58 394.64 876.82 393.61 876.16 395.87 859.67 391.33 860.33 389.08 857.9 388.41"/><path class="cls-7" d="M895.59,556.61s-.96-6.98-3.52-10c0,0,3.22,6.35-3.08,8.21,0,0-4-4.68-4.42-6.98s-.68,7.74-.68,7.74l-8.4-10.43,.09,14.13,20.01-2.67Z"/><polygon class="cls-8" points="1000.11 431.88 1005.56 413.16 1071.52 431.29 1080.18 431.29 1080.18 451.03 1076.36 451.03 1076.36 677.49 1083.5 683.32 1083.5 799.55 1046.97 799.55 1046.97 683.32 1054.11 677.7 1054.11 451.03 1050.29 451.03 1050.29 445.67 1041.97 443.38 1040.52 448.38 1004.03 438.35 1005.49 433.35 1000.11 431.88"/><path class="cls-7" d="M1084.14,801.85s-1.9-13.85-7-19.86c0,0,6.39,12.6-6.12,16.3,0,0-7.94-9.29-8.78-13.87-.85-4.57-1.35,15.38-1.35,15.38l-16.69-20.71,.19,28.06,39.75-5.3Z"/><path class="cls-6" d="M1172.43,1140.17c-115.04,15.38-232-27.95-350.04-104.59,113.39-188.17,226.79-376.34,340.18-564.51,14.42,5.25,28.83,10.5,43.25,15.75-11.13,217.79-22.26,435.57-33.39,653.36Z"/><polygon class="cls-8" points="406.2 405.45 400.9 386.73 336.78 404.86 328.36 404.86 328.36 424.6 332.07 424.6 332.07 651.07 325.13 656.9 325.13 773.12 360.65 773.12 360.65 656.9 353.71 651.28 353.71 424.6 357.42 424.6 357.42 419.24 365.5 416.96 366.92 421.96 402.38 411.93 400.97 406.93 406.2 405.45"/><path class="cls-7" d="M312.6,775.86s4.1-21.09,11.49-29.64c0,0-9.86,18.55,6.16,25.95,0,0,11.5-13.24,13.14-20.18,1.64-6.93,0,23.87,0,23.87l24.32-29.64-3.49,43.2-51.63-13.55Z"/><path class="cls-11" d="M601.09,996.83c-82.25,77-199.54,110.82-336.71,120.15-17.69-206.34-35.38-412.69-53.07-619.03,14.41-4.24,28.81-8.48,43.21-12.72,115.52,170.53,231.04,341.07,346.57,511.6Z"/><polygon class="cls-8" points="280.88 478.73 270.84 443.24 149.24 477.62 133.28 477.62 133.28 515.06 140.32 515.06 140.32 944.51 127.15 955.57 127.15 1175.97 194.5 1175.97 194.5 955.57 181.34 944.9 181.34 515.06 188.38 515.06 188.38 504.89 203.71 500.56 206.39 510.04 273.65 491.02 270.97 481.54 280.88 478.73"/><polygon class="cls-8" points="1137.44 470.23 1147.77 434.73 1272.85 469.12 1289.27 469.12 1289.27 506.55 1282.03 506.55 1282.03 936 1295.57 947.06 1295.57 1167.47 1226.29 1167.47 1226.29 947.06 1239.83 936.4 1239.83 506.55 1232.59 506.55 1232.59 496.39 1216.83 492.05 1214.07 501.53 1144.88 482.51 1147.64 473.03 1137.44 470.23"/><g><path class="cls-3" d="M688.21,443.32s-.07-.1-.09-.19c-.02-.09-.03-.17-.03-.26,.02-.06,.05-.09,.11-.09s.09,.03,.1,.09c0,.14,.03,.25,.09,.32,0,.02,.01,.04,.01,.07s0,.05-.02,.07-.04,.03-.07,.03-.06-.01-.09-.04Zm.44-.44c0,.14,.03,.25,.09,.32,0,.02,.01,.04,.01,.07s0,.05-.03,.07-.04,.03-.08,.03c-.08,0-.14-.08-.17-.23-.02-.08-.03-.16-.03-.25,.02-.06,.05-.09,.11-.09s.09,.03,.1,.09Z"/><path class="cls-3" d="M690.47,443.08s.06,.01,.09,.04c.03,.03,.04,.06,.04,.09,0,.78,0,1.25,.01,1.42,0,.16,.01,.25,.01,.25,0,.04-.01,.09-.04,.12-.02,.04-.05,.06-.08,.06s-.05,0-.07,0c-.01,0-.03,0-.04-.01-.01,0-.02-.01-.04-.02l-.03-.03s-.02-.02-.03-.05c-.01-.02-.02-.04-.03-.06,0-.01-.02-.04-.04-.07-.02-.04-.05-.11-.11-.21-.06-.11-.11-.21-.15-.29-.16-.29-.3-.52-.44-.69,0,.65-.02,1.1-.05,1.35,0,.05-.04,.07-.11,.07-.03,0-.06,0-.08-.02-.02-.02-.03-.04-.03-.08s0-.23,.02-.59,.02-.58,.02-.67v-.17c0-.14,.01-.22,.03-.24,.02-.02,.04-.03,.07-.03,.11,0,.28,.18,.5,.54,.04,.07,.13,.22,.25,.44,.12,.22,.2,.36,.22,.41l-.04-1.25c0-.17,.02-.27,.06-.29,.02-.01,.05-.02,.08-.02Z"/><path class="cls-3" d="M691.15,443.7s.05-.03,.08-.03,.05,0,.06,.02c.01,.01,.02,.02,.03,.03,0,0,0,.02,.01,.04-.01,.16-.02,.3-.02,.42s.01,.27,.04,.43,.06,.24,.1,.24c.05,0,.12-.03,.21-.09,.08-.06,.14-.12,.18-.19-.02-.29-.04-.53-.04-.74,0-.04,.01-.08,.04-.11s.06-.04,.1-.04c.06,0,.09,.04,.09,.13,0,.14,.01,.35,.03,.63,.02,.28,.04,.46,.06,.53,0,.02,0,.03,0,.06s-.01,.04-.04,.06c-.03,.02-.06,.03-.1,.03s-.07-.02-.09-.07c0-.04-.01-.1-.03-.18-.14,.15-.28,.22-.42,.22-.07,0-.12-.02-.18-.07s-.09-.12-.12-.2c-.05-.17-.08-.32-.08-.47s0-.33,.02-.54c0-.03,.02-.06,.05-.09Z"/><path class="cls-3" d="M694.61,444.94c0,.09-.04,.14-.13,.14-.04,0-.08-.09-.15-.27-.06-.18-.15-.31-.25-.41,0,.01-.05,.05-.13,.12s-.12,.1-.13,.12v.3s0,.05-.02,.07-.02,.03-.04,.04c-.02,.01-.05,.02-.09,.02-.05,0-.08-.03-.08-.1,0-.19,0-.47-.02-.87-.02-.39-.02-.74-.02-1.05,0-.04,.02-.07,.05-.09,.03-.02,.06-.03,.1-.03,.05,0,.07,.03,.08,.09v.53c0,.06,0,.11,0,.14s0,.08,0,.14c0,.13,.01,.28,.02,.45,.06-.04,.13-.11,.22-.21s.16-.18,.21-.24c.07-.11,.14-.17,.2-.17,.02,0,.03,0,.05,.01,.04,.02,.06,.05,.06,.08s-.01,.07-.04,.13c-.07,.12-.16,.24-.25,.34,.09,.1,.18,.24,.27,.43,.05,.12,.08,.21,.08,.28Z"/><path class="cls-3" d="M695.89,443.67c.09,0,.13,.07,.13,.22v.26c0,.07,0,.13,0,.2l.04,.68c0,.05-.05,.07-.15,.07h-.04s-.04,0-.05-.03c0-.02,0-.04,0-.07,0-.03,0-.05,0-.09-.09,.1-.21,.15-.37,.15-.28,0-.42-.22-.42-.65,0-.24,.04-.42,.14-.55,.09-.12,.22-.19,.39-.19,.08,0,.16,.01,.24,.04,.03-.04,.06-.05,.11-.05Zm-.31,.27c-.11,0-.2,.03-.25,.1-.06,.07-.08,.19-.08,.36,0,.3,.08,.44,.24,.44,.04,0,.09-.02,.14-.06,.05-.04,.09-.08,.11-.13,.04-.11,.06-.23,.06-.35s-.02-.22-.05-.28c-.03-.06-.08-.09-.16-.09Z"/><path class="cls-3" d="M696.61,444.98l-.03-1.22s.01-.07,.04-.09c.03-.02,.05-.04,.08-.04,.06,0,.1,.03,.11,.08,0,.05,.01,.11,.01,.17,.11-.14,.24-.21,.41-.21,.25,0,.37,.28,.37,.85v.24c0,.1,0,.18-.02,.23-.01,.06-.06,.09-.13,.09-.05,0-.07-.03-.07-.1v-.17c0-.23,0-.39-.02-.48s-.03-.15-.04-.2c-.03-.11-.09-.16-.17-.16-.1,0-.17,.04-.21,.11-.04,.08-.07,.17-.08,.28-.01,.19-.02,.38-.02,.59,0,.04-.01,.07-.04,.1s-.07,.04-.11,.04c-.05,0-.08-.03-.08-.1Z"/><path class="cls-3" d="M699.24,443.7s.07-.03,.12-.03,.08,.03,.09,.07c.03,.25,.04,.48,.04,.7s0,.44-.02,.66-.05,.39-.1,.51c-.07,.16-.19,.24-.37,.24-.09,0-.17-.03-.23-.08-.07-.06-.1-.12-.1-.2,0-.04,.01-.07,.04-.1s.06-.03,.1-.03,.06,0,.08,.03c.02,.02,.03,.04,.04,.06,.02,.06,.05,.09,.1,.09s.09-.04,.13-.12c.04-.08,.06-.18,.07-.32,.01-.13,.02-.28,.02-.43,0-.47-.01-.79-.04-.97,0-.03,0-.06,.03-.08Zm.06-.51s.07,.02,.1,.05c.03,.03,.05,.07,.05,.11s-.02,.07-.05,.11c-.04,.04-.07,.06-.11,.06s-.07-.02-.1-.05c-.03-.03-.05-.07-.05-.12,0-.1,.05-.15,.16-.16h0Z"/><path class="cls-3" d="M700.49,443.68c.11,0,.21,.03,.3,.09,.1,.06,.14,.14,.14,.23s-.04,.18-.12,.26-.18,.14-.31,.15c-.06,0-.14,.01-.25,.01,.02,.17,.07,.28,.13,.34,.02,.02,.05,.03,.08,.03,.12,0,.23-.04,.31-.12s.14-.12,.18-.12c.02,0,.04,.01,.07,.04s.05,.06,.05,.08c0,.05-.06,.13-.19,.23-.06,.05-.12,.08-.2,.12s-.15,.05-.22,.05c-.17,0-.3-.11-.38-.34-.05-.14-.08-.29-.08-.46s.04-.31,.12-.43c.08-.12,.2-.18,.37-.18Zm.01,.21c-.08,0-.14,.04-.19,.13-.02,.03-.04,.1-.06,.2,.28,0,.42-.07,.42-.21,0-.08-.06-.13-.17-.13Z"/><path class="cls-3" d="M702.39,444.95c-.07,.08-.16,.13-.27,.13s-.21-.03-.29-.1c-.17-.13-.25-.33-.25-.6,0-.21,.06-.38,.17-.51s.26-.19,.43-.19,.29,.06,.35,.17c.05,.1,.08,.26,.08,.46v.25c0,.12,0,.28,0,.48,.01,.21,.02,.36,.02,.46,0,.17-.04,.3-.13,.38s-.21,.12-.39,.12c-.1,0-.21-.02-.32-.07-.11-.04-.16-.1-.16-.15,0-.04,.01-.07,.04-.1,.02-.02,.05-.03,.08-.03s.1,.02,.2,.07c.1,.04,.18,.07,.23,.07,.14,0,.22-.12,.22-.35s0-.4-.01-.49Zm0-.63c0-.15-.02-.25-.06-.31s-.11-.09-.2-.09-.17,.04-.22,.13c-.06,.08-.08,.19-.08,.32s.03,.23,.08,.31c.05,.08,.13,.11,.24,.11s.18-.05,.21-.14c.02-.08,.04-.19,.04-.33Z"/><path class="cls-3" d="M704.08,443.13c0-.08,.02-.12,.04-.15,.02-.02,.05-.03,.09-.03,.09,0,.13,.04,.13,.1,0,.05,0,.2-.01,.42s-.01,.43-.01,.61,0,.32,.02,.43c.02,.19,.06,.29,.1,.29s.08-.03,.1-.09c.01-.02,.03-.05,.05-.06,.02-.02,.05-.03,.08-.03,.07,0,.1,.06,.1,.18,0,.06-.03,.13-.1,.19s-.14,.09-.21,.09-.12-.01-.16-.03-.07-.06-.1-.1c-.03-.05-.04-.09-.06-.13-.01-.04-.03-.1-.03-.16-.01-.1-.02-.26-.03-.48s0-.43,0-.63,0-.34,0-.41Z"/><path class="cls-3" d="M705.59,443.68c.11,0,.21,.03,.3,.09,.1,.06,.14,.14,.14,.23s-.04,.18-.12,.26-.18,.14-.31,.15c-.06,0-.14,.01-.25,.01,.02,.17,.07,.28,.13,.34,.02,.02,.05,.03,.08,.03,.12,0,.23-.04,.31-.12s.14-.12,.18-.12c.02,0,.04,.01,.07,.04s.05,.06,.05,.08c0,.05-.06,.13-.19,.23-.06,.05-.12,.08-.2,.12s-.15,.05-.22,.05c-.17,0-.3-.11-.38-.34-.05-.14-.08-.29-.08-.46s.04-.31,.12-.43c.08-.12,.2-.18,.37-.18Zm.01,.21c-.08,0-.14,.04-.19,.13-.02,.03-.04,.1-.06,.2,.28,0,.42-.07,.42-.21,0-.08-.06-.13-.17-.13Z"/><path class="cls-3" d="M707.59,443.65s.05,0,.06,.03c.01,.02,.02,.04,.02,.06v.03c-.09,.21-.15,.39-.19,.52-.03,.09-.04,.16-.06,.21-.01,.05-.04,.13-.06,.24-.03,.12-.05,.19-.06,.23-.03,.07-.08,.1-.15,.1-.03,0-.06-.02-.07-.07-.06-.2-.16-.43-.28-.68s-.19-.4-.21-.43c-.02-.04-.03-.07-.03-.1s.01-.06,.04-.09c.03-.03,.06-.04,.09-.04s.06,.02,.09,.05c.02,.04,.08,.17,.19,.37,.1,.2,.17,.36,.22,.48,0-.01,0-.04,.02-.07,.1-.35,.18-.61,.25-.76,.03-.05,.08-.08,.13-.08Z"/><path class="cls-3" d="M708.52,443.68c.11,0,.21,.03,.3,.09,.1,.06,.14,.14,.14,.23s-.04,.18-.12,.26-.18,.14-.31,.15c-.06,0-.14,.01-.25,.01,.02,.17,.07,.28,.13,.34,.02,.02,.05,.03,.08,.03,.12,0,.23-.04,.31-.12s.14-.12,.18-.12c.02,0,.04,.01,.07,.04s.05,.06,.05,.08c0,.05-.06,.13-.19,.23-.06,.05-.12,.08-.2,.12s-.15,.05-.22,.05c-.17,0-.3-.11-.38-.34-.05-.14-.08-.29-.08-.46s.04-.31,.12-.43c.08-.12,.2-.18,.37-.18Zm.01,.21c-.08,0-.14,.04-.19,.13-.02,.03-.04,.1-.06,.2,.28,0,.42-.07,.42-.21,0-.08-.06-.13-.17-.13Z"/><path class="cls-3" d="M710.51,443.13c0-.08,.02-.12,.04-.15,.02-.02,.05-.03,.09-.03,.09,0,.13,.04,.13,.1,0,.05,0,.2-.01,.42s-.01,.43-.01,.61,0,.32,.02,.43c.02,.19,.06,.29,.1,.29s.08-.03,.1-.09c.01-.02,.03-.05,.05-.06,.02-.02,.05-.03,.08-.03,.07,0,.1,.06,.1,.18,0,.06-.03,.13-.1,.19s-.14,.09-.21,.09-.12-.01-.16-.03-.07-.06-.1-.1c-.03-.05-.04-.09-.06-.13-.01-.04-.03-.1-.03-.16-.01-.1-.02-.26-.03-.48s0-.43,0-.63,0-.34,0-.41Z"/><path class="cls-3" d="M711.78,443.17s.07,.02,.1,.05,.05,.07,.05,.11-.02,.07-.05,.11-.07,.06-.11,.06-.07-.02-.1-.05-.05-.07-.05-.12c0-.1,.05-.15,.16-.16h0Zm.13,1.57v.21s-.01,.07-.04,.09c-.03,.02-.06,.04-.1,.04-.05,0-.08-.03-.08-.07-.03-.64-.04-.99-.04-1.06s0-.15,0-.25c0-.04,.03-.05,.07-.05,.11,0,.17,.04,.18,.13,0,.04,0,.08,0,.1v.19s-.01,.67-.01,.67Z"/><path class="cls-3" d="M713.5,443.65s.05,0,.06,.03c.01,.02,.02,.04,.02,.06v.03c-.09,.21-.15,.39-.19,.52-.03,.09-.04,.16-.06,.21-.01,.05-.04,.13-.06,.24-.03,.12-.05,.19-.06,.23-.03,.07-.08,.1-.15,.1-.03,0-.06-.02-.07-.07-.06-.2-.16-.43-.28-.68s-.19-.4-.21-.43c-.02-.04-.03-.07-.03-.1s.01-.06,.04-.09c.03-.03,.06-.04,.09-.04s.06,.02,.09,.05c.02,.04,.08,.17,.19,.37,.1,.2,.17,.36,.22,.48,0-.01,0-.04,.02-.07,.1-.35,.18-.61,.25-.76,.03-.05,.08-.08,.13-.08Z"/><path class="cls-3" d="M714.43,443.68c.11,0,.21,.03,.3,.09,.1,.06,.14,.14,.14,.23s-.04,.18-.12,.26-.18,.14-.31,.15c-.06,0-.14,.01-.25,.01,.02,.17,.07,.28,.13,.34,.02,.02,.05,.03,.08,.03,.12,0,.23-.04,.31-.12s.14-.12,.18-.12c.02,0,.04,.01,.07,.04s.05,.06,.05,.08c0,.05-.06,.13-.19,.23-.06,.05-.12,.08-.2,.12s-.15,.05-.22,.05c-.17,0-.3-.11-.38-.34-.05-.14-.08-.29-.08-.46s.04-.31,.12-.43c.08-.12,.2-.18,.37-.18Zm.01,.21c-.08,0-.14,.04-.19,.13-.02,.03-.04,.1-.06,.2,.28,0,.42-.07,.42-.21,0-.08-.06-.13-.17-.13Z"/><path class="cls-3" d="M715.54,443.67h.15s.05,0,.06,0v-.62s.02-.06,.05-.09c.03-.02,.06-.04,.09-.04s.05,0,.07,.03c.02,.02,.02,.05,.02,.08,0,.04,0,.25,0,.62h.35c.06-.01,.09,.02,.09,.09,0,.05-.02,.09-.05,.12-.03,.03-.06,.04-.1,.04-.04,0-.07,0-.1,0h-.18c0,.08,0,.24,.03,.48,.02,.24,.03,.4,.04,.47s.01,.12,0,.14-.02,.04-.03,.04c-.03,.01-.06,.02-.1,.02s-.07-.02-.08-.07c-.04-.26-.07-.62-.08-1.08-.02,0-.09,0-.21,0s-.18-.03-.18-.1c0-.1,.06-.15,.17-.15Z"/><path class="cls-3" d="M717.92,443.17s.07,.02,.1,.05,.05,.07,.05,.11-.02,.07-.05,.11-.07,.06-.11,.06-.07-.02-.1-.05-.05-.07-.05-.12c0-.1,.05-.15,.16-.16h0Zm.13,1.57v.21s-.01,.07-.04,.09c-.03,.02-.06,.04-.1,.04-.05,0-.08-.03-.08-.07-.03-.64-.04-.99-.04-1.06s0-.15,0-.25c0-.04,.03-.05,.07-.05,.11,0,.17,.04,.18,.13,0,.04,0,.08,0,.1v.19s-.01,.67-.01,.67Z"/><path class="cls-3" d="M719.53,444.95c-.07,.08-.16,.13-.27,.13s-.21-.03-.29-.1c-.17-.13-.25-.33-.25-.6,0-.21,.06-.38,.17-.51s.26-.19,.43-.19,.29,.06,.35,.17c.05,.1,.08,.26,.08,.46v.25c0,.12,0,.28,0,.48,.01,.21,.02,.36,.02,.46,0,.17-.04,.3-.13,.38s-.21,.12-.39,.12c-.1,0-.21-.02-.32-.07-.11-.04-.16-.1-.16-.15,0-.04,.01-.07,.04-.1,.02-.02,.05-.03,.08-.03s.1,.02,.2,.07c.1,.04,.18,.07,.23,.07,.14,0,.22-.12,.22-.35s0-.4-.01-.49Zm0-.63c0-.15-.02-.25-.06-.31s-.11-.09-.2-.09-.17,.04-.22,.13c-.06,.08-.08,.19-.08,.32s.03,.23,.08,.31c.05,.08,.13,.11,.24,.11s.18-.05,.21-.14c.02-.08,.04-.19,.04-.33Z"/><path class="cls-3" d="M720.7,443.68c.11,0,.21,.03,.3,.09,.1,.06,.14,.14,.14,.23s-.04,.18-.12,.26-.18,.14-.31,.15c-.06,0-.14,.01-.25,.01,.02,.17,.07,.28,.13,.34,.02,.02,.05,.03,.08,.03,.12,0,.23-.04,.31-.12s.14-.12,.18-.12c.02,0,.04,.01,.07,.04s.05,.06,.05,.08c0,.05-.06,.13-.19,.23-.06,.05-.12,.08-.2,.12s-.15,.05-.22,.05c-.17,0-.3-.11-.38-.34-.05-.14-.08-.29-.08-.46s.04-.31,.12-.43c.08-.12,.2-.18,.37-.18Zm.01,.21c-.08,0-.14,.04-.19,.13-.02,.03-.04,.1-.06,.2,.28,0,.42-.07,.42-.21,0-.08-.06-.13-.17-.13Z"/><path class="cls-3" d="M721.85,444.98l-.03-1.22s.01-.07,.04-.09c.03-.02,.05-.04,.08-.04,.06,0,.1,.03,.11,.08,0,.05,.01,.11,.01,.17,.11-.14,.24-.21,.41-.21,.25,0,.37,.28,.37,.85v.24c0,.1,0,.18-.02,.23-.01,.06-.06,.09-.13,.09-.05,0-.07-.03-.07-.1v-.17c0-.23,0-.39-.02-.48s-.03-.15-.04-.2c-.03-.11-.09-.16-.17-.16-.1,0-.17,.04-.21,.11-.04,.08-.07,.17-.08,.28-.01,.19-.02,.38-.02,.59,0,.04-.01,.07-.04,.1s-.07,.04-.11,.04c-.05,0-.08-.03-.08-.1Z"/><path class="cls-3" d="M723.57,444.71s.08,.02,.11,.05c.03,.03,.05,.08,.06,.13,0,.04-.02,.08-.05,.12-.03,.04-.07,.06-.11,.06s-.08-.01-.12-.03c-.03-.02-.05-.06-.05-.11s.02-.1,.05-.14c.03-.05,.07-.07,.11-.07Z"/><path class="cls-3" d="M688.63,446.76s.02-.04,.05-.06c.03-.02,.06-.03,.09-.03s.05,0,.07,.02c.02,.01,.03,.03,.03,.05,.04,.54,.06,.88,.06,1.02s0,.25,0,.32-.01,.15-.03,.23c-.02,.08-.04,.15-.07,.2-.07,.11-.17,.17-.32,.17s-.26-.05-.36-.15c-.09-.1-.14-.24-.14-.42,0-.03,.01-.06,.05-.08,.03-.02,.06-.04,.1-.04,.04,0,.07,.04,.08,.12,.03,.23,.11,.35,.26,.35,.04,0,.07-.01,.1-.04,.03-.02,.05-.05,.06-.09,.01-.03,.03-.08,.03-.14,.01-.08,.02-.18,.02-.3s-.01-.33-.04-.64c-.03-.31-.04-.48-.04-.5Z"/><path class="cls-3" d="M689.84,447.28c.11,0,.21,.03,.3,.09,.1,.06,.14,.14,.14,.23s-.04,.18-.12,.26-.18,.14-.31,.15c-.06,0-.14,.01-.25,.01,.02,.17,.07,.28,.13,.34,.02,.02,.05,.03,.08,.03,.12,0,.23-.04,.31-.12s.14-.12,.18-.12c.02,0,.04,.01,.07,.04s.05,.06,.05,.08c0,.05-.06,.13-.19,.23-.06,.05-.12,.08-.2,.12s-.15,.05-.22,.05c-.17,0-.3-.11-.38-.34-.05-.14-.08-.29-.08-.46s.04-.31,.12-.43c.08-.12,.2-.18,.37-.18Zm.01,.21c-.08,0-.14,.04-.19,.13-.02,.03-.04,.1-.06,.2,.28,0,.42-.07,.42-.21,0-.08-.06-.13-.17-.13Z"/><path class="cls-3" d="M691.73,448.55c-.07,.08-.16,.13-.27,.13s-.21-.03-.29-.1c-.17-.13-.25-.33-.25-.6,0-.21,.06-.38,.17-.51s.26-.19,.43-.19,.29,.06,.35,.17c.05,.1,.08,.26,.08,.46v.25c0,.12,0,.28,0,.48,.01,.21,.02,.36,.02,.46,0,.17-.04,.3-.13,.38s-.21,.12-.39,.12c-.1,0-.21-.02-.32-.07-.11-.04-.16-.1-.16-.15,0-.04,.01-.07,.04-.1,.02-.02,.05-.03,.08-.03s.1,.02,.2,.07c.1,.04,.18,.07,.23,.07,.14,0,.22-.12,.22-.35s0-.4-.01-.49Zm0-.63c0-.15-.02-.25-.06-.31s-.11-.09-.2-.09-.17,.04-.22,.13c-.06,.08-.08,.19-.08,.32s.03,.23,.08,.31c.05,.08,.13,.11,.24,.11s.18-.05,.21-.14c.02-.08,.04-.19,.04-.33Z"/><path class="cls-3" d="M693.85,446.57s.06-.04,.08-.04c.02,0,.08,0,.16,0s.15,.01,.21,.04c.05,.02,.08,.07,.08,.14s-.03,.11-.09,.11c-.01,0-.05-.01-.1-.03-.06-.02-.09-.03-.11-.03-.07,0-.11,.04-.13,.13,0,.03,0,.09,0,.18v.23h.21c.09,0,.13,.03,.13,.09,0,.08-.06,.13-.18,.13-.02,0-.04,0-.07,0s-.06,0-.09,0c0,.08,.01,.22,.03,.43,.01,.21,.02,.4,.02,.6,0,.04-.02,.07-.05,.1s-.07,.04-.1,.04c-.05,0-.08-.03-.08-.1,0-.18,0-.35-.02-.52-.01-.17-.02-.35-.03-.54-.18,0-.29-.02-.32-.05-.01-.01-.02-.03-.02-.05,0-.05,.02-.09,.06-.1,.04-.02,.09-.02,.15-.02h.12c0-.33,.02-.53,.05-.61,.02-.05,.04-.08,.07-.11Z"/><path class="cls-3" d="M695.6,447.22c.07,0,.11,.02,.11,.07,0,.03-.02,.09-.05,.16,.1,.14,.16,.32,.16,.55,0,.14-.04,.28-.11,.43-.04,.07-.09,.13-.15,.18-.06,.04-.13,.07-.2,.07s-.14-.02-.22-.05c-.04,.07-.07,.11-.11,.11s-.06,0-.08-.02c-.02-.01-.03-.03-.03-.06s.02-.08,.06-.15c-.14-.15-.22-.33-.22-.52,0-.07,.01-.15,.04-.23,.03-.09,.07-.17,.12-.23,.05-.07,.11-.12,.18-.17s.15-.06,.22-.06,.13,.01,.19,.04c.03-.06,.07-.09,.11-.09Zm-.22,.34s-.08-.04-.12-.04-.09,.02-.15,.07c-.09,.09-.14,.2-.14,.34,0,.09,.04,.19,.11,.31l.31-.67Zm.18,.48c0-.1-.02-.19-.05-.29l-.3,.64s.1,.06,.17,.06c.12-.06,.18-.2,.18-.41Z"/><path class="cls-3" d="M696.31,446.73c0-.08,.02-.12,.04-.15,.02-.02,.05-.03,.09-.03,.09,0,.13,.04,.13,.1,0,.05,0,.2-.01,.42s-.01,.43-.01,.61,0,.32,.02,.43c.02,.19,.06,.29,.1,.29s.08-.03,.1-.09c.01-.02,.03-.05,.05-.06,.02-.02,.05-.03,.08-.03,.07,0,.1,.06,.1,.18,0,.06-.03,.13-.1,.19s-.14,.09-.21,.09-.12-.01-.16-.03-.07-.06-.1-.1c-.03-.05-.04-.09-.06-.13-.01-.04-.03-.1-.03-.16-.01-.1-.02-.26-.03-.48s0-.43,0-.63,0-.34,0-.41Z"/><path class="cls-3" d="M697.81,447.28c.11,0,.21,.03,.3,.09,.1,.06,.14,.14,.14,.23s-.04,.18-.12,.26-.18,.14-.31,.15c-.06,0-.14,.01-.25,.01,.02,.17,.07,.28,.13,.34,.02,.02,.05,.03,.08,.03,.12,0,.23-.04,.31-.12s.14-.12,.18-.12c.02,0,.04,.01,.07,.04s.05,.06,.05,.08c0,.05-.06,.13-.19,.23-.06,.05-.12,.08-.2,.12s-.15,.05-.22,.05c-.17,0-.3-.11-.38-.34-.05-.14-.08-.29-.08-.46s.04-.31,.12-.43c.08-.12,.2-.18,.37-.18Zm.01,.21c-.08,0-.14,.04-.19,.13-.02,.03-.04,.1-.06,.2,.28,0,.42-.07,.42-.21,0-.08-.06-.13-.17-.13Z"/><path class="cls-3" d="M699.23,448.23v.31s-.01,.07-.05,.1c-.03,.03-.07,.04-.1,.04-.05,0-.08-.04-.09-.11,0-.02,0-.16-.02-.44s-.04-.49-.08-.65c-.02-.08-.03-.12-.03-.14,0-.07,.04-.1,.12-.1,.03,0,.06,.01,.08,.04,.02,.03,.03,.05,.04,.08,0,.03,0,.06,.01,.11,0,.05,0,.07,0,.09,.04-.1,.1-.18,.19-.23,.08-.05,.18-.07,.28-.07,.16,0,.25,.04,.25,.13,0,.04-.01,.08-.04,.1s-.06,.04-.1,.04c-.17,0-.29,.05-.36,.16-.07,.11-.11,.29-.11,.54Z"/><path class="cls-3" d="M701.4,448.67c-.05,0-.08-.03-.09-.09,0-.4-.02-.76-.07-1.08,0-.04,.01-.08,.04-.11,.03-.03,.06-.05,.1-.05s.06,.02,.08,.06c.07-.1,.17-.15,.3-.15,.16,0,.28,.08,.37,.23,.1-.14,.23-.22,.4-.22s.29,.07,.37,.2c.05,.08,.09,.19,.11,.32,.02,.13,.03,.32,.03,.57,0,.1,0,.17-.03,.22-.02,.05-.06,.08-.13,.08-.05,0-.08-.03-.08-.1v-.38c0-.45-.11-.68-.34-.68-.07,0-.13,.03-.16,.08-.03,.06-.05,.13-.06,.2,0,.12-.01,.23-.01,.33v.43s-.02,.06-.05,.08c-.03,.02-.07,.03-.1,.03-.04,0-.07-.03-.08-.09v-.62c0-.22-.03-.36-.1-.41-.04-.03-.09-.04-.16-.04s-.13,.03-.16,.08c-.04,.05-.05,.14-.05,.26l.02,.56c0,.17-.05,.26-.14,.26Z"/><path class="cls-3" d="M703.74,446.77s.07,.02,.1,.05,.05,.07,.05,.11-.02,.07-.05,.11-.07,.06-.11,.06-.07-.02-.1-.05-.05-.07-.05-.12c0-.1,.05-.15,.16-.16h0Zm.13,1.57v.21s-.01,.07-.04,.09c-.03,.02-.06,.04-.1,.04-.05,0-.08-.03-.08-.07-.03-.64-.04-.99-.04-1.06s0-.15,0-.25c0-.04,.03-.05,.07-.05,.11,0,.17,.04,.18,.13,0,.04,0,.08,0,.1v.19s-.01,.67-.01,.67Z"/><path class="cls-3" d="M705.34,448.55c-.07,.08-.16,.13-.27,.13s-.21-.03-.29-.1c-.17-.13-.25-.33-.25-.6,0-.21,.06-.38,.17-.51s.26-.19,.43-.19,.29,.06,.35,.17c.05,.1,.08,.26,.08,.46v.25c0,.12,0,.28,0,.48,.01,.21,.02,.36,.02,.46,0,.17-.04,.3-.13,.38s-.21,.12-.39,.12c-.1,0-.21-.02-.32-.07-.11-.04-.16-.1-.16-.15,0-.04,.01-.07,.04-.1,.02-.02,.05-.03,.08-.03s.1,.02,.2,.07c.1,.04,.18,.07,.23,.07,.14,0,.22-.12,.22-.35s0-.4-.01-.49Zm0-.63c0-.15-.02-.25-.06-.31s-.11-.09-.2-.09-.17,.04-.22,.13c-.06,.08-.08,.19-.08,.32s.03,.23,.08,.31c.05,.08,.13,.11,.24,.11s.18-.05,.21-.14c.02-.08,.04-.19,.04-.33Z"/><path class="cls-3" d="M707.46,446.57s.06-.04,.08-.04c.02,0,.08,0,.16,0s.15,.01,.21,.04c.05,.02,.08,.07,.08,.14s-.03,.11-.09,.11c-.01,0-.05-.01-.1-.03-.06-.02-.09-.03-.11-.03-.07,0-.11,.04-.13,.13,0,.03,0,.09,0,.18v.23h.21c.09,0,.13,.03,.13,.09,0,.08-.06,.13-.18,.13-.02,0-.04,0-.07,0s-.06,0-.09,0c0,.08,.01,.22,.03,.43,.01,.21,.02,.4,.02,.6,0,.04-.02,.07-.05,.1s-.07,.04-.1,.04c-.05,0-.08-.03-.08-.1,0-.18,0-.35-.02-.52-.01-.17-.02-.35-.03-.54-.18,0-.29-.02-.32-.05-.01-.01-.02-.03-.02-.05,0-.05,.02-.09,.06-.1,.04-.02,.09-.02,.15-.02h.12c0-.33,.02-.53,.05-.61,.02-.05,.04-.08,.07-.11Z"/><path class="cls-3" d="M708.78,448.23v.31s-.01,.07-.05,.1c-.03,.03-.07,.04-.1,.04-.05,0-.08-.04-.09-.11,0-.02,0-.16-.02-.44s-.04-.49-.08-.65c-.02-.08-.03-.12-.03-.14,0-.07,.04-.1,.12-.1,.03,0,.06,.01,.08,.04,.02,.03,.03,.05,.04,.08,0,.03,0,.06,.01,.11,0,.05,0,.07,0,.09,.04-.1,.1-.18,.19-.23,.08-.05,.18-.07,.28-.07,.16,0,.25,.04,.25,.13,0,.04-.01,.08-.04,.1s-.06,.04-.1,.04c-.17,0-.29,.05-.36,.16-.07,.11-.11,.29-.11,.54Z"/><path class="cls-3" d="M710.02,446.77s.07,.02,.1,.05,.05,.07,.05,.11-.02,.07-.05,.11-.07,.06-.11,.06-.07-.02-.1-.05-.05-.07-.05-.12c0-.1,.05-.15,.16-.16h0Zm.13,1.57v.21s-.01,.07-.04,.09c-.03,.02-.06,.04-.1,.04-.05,0-.08-.03-.08-.07-.03-.64-.04-.99-.04-1.06s0-.15,0-.25c0-.04,.03-.05,.07-.05,.11,0,.17,.04,.18,.13,0,.04,0,.08,0,.1v.19s-.01,.67-.01,.67Z"/><path class="cls-3" d="M710.94,447.37c.08-.07,.18-.1,.29-.1s.22,.02,.32,.06c.1,.04,.15,.09,.15,.16,0,.03-.01,.06-.04,.08-.03,.02-.05,.03-.07,.03s-.03,0-.04,0c-.01,0-.05-.02-.12-.06-.07-.04-.13-.05-.19-.05s-.11,.01-.15,.04-.06,.07-.06,.13,.02,.1,.07,.13c.05,.03,.13,.06,.25,.08s.21,.06,.27,.1c.06,.04,.09,.12,.09,.23,0,.17-.04,.28-.13,.35-.09,.07-.19,.1-.32,.1s-.23-.02-.32-.05c-.09-.03-.13-.08-.13-.15,0-.08,.04-.12,.12-.12,.02,0,.06,.01,.13,.04,.07,.03,.14,.04,.2,.04s.12-.02,.15-.06,.05-.09,.05-.15-.02-.1-.07-.12c-.05-.03-.12-.05-.21-.06-.09-.02-.16-.03-.21-.05-.12-.05-.18-.16-.18-.32,0-.12,.04-.21,.13-.28Z"/><path class="cls-3" d="M713.26,448.54c0,.09-.04,.14-.13,.14-.04,0-.08-.09-.15-.27-.06-.18-.15-.31-.25-.41,0,.01-.05,.05-.13,.12s-.12,.1-.13,.12v.3s0,.05-.02,.07-.02,.03-.04,.04c-.02,.01-.05,.02-.09,.02-.05,0-.08-.03-.08-.1,0-.19,0-.47-.02-.87-.02-.39-.02-.74-.02-1.05,0-.04,.02-.07,.05-.09,.03-.02,.06-.03,.1-.03,.05,0,.07,.03,.08,.09v.53c0,.06,0,.11,0,.14s0,.08,0,.14c0,.13,.01,.28,.02,.45,.06-.04,.13-.11,.22-.21s.16-.18,.21-.24c.07-.11,.14-.17,.2-.17,.02,0,.03,0,.05,.01,.04,.02,.06,.05,.06,.08s-.01,.07-.04,.13c-.07,.12-.16,.24-.25,.34,.09,.1,.18,.24,.27,.43,.05,.12,.08,.21,.08,.28Z"/><path class="cls-3" d="M713.91,448.31s.08,.02,.11,.05c.03,.03,.05,.08,.06,.13,0,.04-.02,.08-.05,.12-.03,.04-.07,.06-.11,.06s-.08-.01-.12-.03c-.03-.02-.05-.06-.05-.11s.02-.1,.05-.14c.03-.05,.07-.07,.11-.07Z"/><path class="cls-3" d="M716.18,446.76s.02-.04,.05-.06c.03-.02,.06-.03,.09-.03s.05,0,.07,.02c.02,.01,.03,.03,.03,.05,.04,.54,.06,.88,.06,1.02s0,.25,0,.32-.01,.15-.03,.23c-.02,.08-.04,.15-.07,.2-.07,.11-.17,.17-.32,.17s-.26-.05-.36-.15c-.09-.1-.14-.24-.14-.42,0-.03,.01-.06,.05-.08,.03-.02,.06-.04,.1-.04,.04,0,.07,.04,.08,.12,.03,.23,.11,.35,.26,.35,.04,0,.07-.01,.1-.04,.03-.02,.05-.05,.06-.09,.01-.03,.03-.08,.03-.14,.01-.08,.02-.18,.02-.3s-.01-.33-.04-.64c-.03-.31-.04-.48-.04-.5Z"/><path class="cls-3" d="M717.39,447.28c.11,0,.21,.03,.3,.09,.1,.06,.14,.14,.14,.23s-.04,.18-.12,.26-.18,.14-.31,.15c-.06,0-.14,.01-.25,.01,.02,.17,.07,.28,.13,.34,.02,.02,.05,.03,.08,.03,.12,0,.23-.04,.31-.12s.14-.12,.18-.12c.02,0,.04,.01,.07,.04s.05,.06,.05,.08c0,.05-.06,.13-.19,.23-.06,.05-.12,.08-.2,.12s-.15,.05-.22,.05c-.17,0-.3-.11-.38-.34-.05-.14-.08-.29-.08-.46s.04-.31,.12-.43c.08-.12,.2-.18,.37-.18Zm.01,.21c-.08,0-.14,.04-.19,.13-.02,.03-.04,.1-.06,.2,.28,0,.42-.07,.42-.21,0-.08-.06-.13-.17-.13Z"/><path class="cls-3" d="M719.28,448.55c-.07,.08-.16,.13-.27,.13s-.21-.03-.29-.1c-.17-.13-.25-.33-.25-.6,0-.21,.06-.38,.17-.51s.26-.19,.43-.19,.29,.06,.35,.17c.05,.1,.08,.26,.08,.46v.25c0,.12,0,.28,0,.48,.01,.21,.02,.36,.02,.46,0,.17-.04,.3-.13,.38s-.21,.12-.39,.12c-.1,0-.21-.02-.32-.07-.11-.04-.16-.1-.16-.15,0-.04,.01-.07,.04-.1,.02-.02,.05-.03,.08-.03s.1,.02,.2,.07c.1,.04,.18,.07,.23,.07,.14,0,.22-.12,.22-.35s0-.4-.01-.49Zm0-.63c0-.15-.02-.25-.06-.31s-.11-.09-.2-.09-.17,.04-.22,.13c-.06,.08-.08,.19-.08,.32s.03,.23,.08,.31c.05,.08,.13,.11,.24,.11s.18-.05,.21-.14c.02-.08,.04-.19,.04-.33Z"/><path class="cls-3" d="M688.43,450.17s.06-.04,.08-.04c.02,0,.08,0,.16,0s.15,.01,.21,.04c.05,.02,.08,.07,.08,.14s-.03,.11-.09,.11c-.01,0-.05-.01-.1-.03-.06-.02-.09-.03-.11-.03-.07,0-.11,.04-.13,.13,0,.03,0,.09,0,.18v.23h.21c.09,0,.13,.03,.13,.09,0,.08-.06,.13-.18,.13-.02,0-.04,0-.07,0s-.06,0-.09,0c0,.08,.01,.22,.03,.43,.01,.21,.02,.4,.02,.6,0,.04-.02,.07-.05,.1s-.07,.04-.1,.04c-.05,0-.08-.03-.08-.1,0-.18,0-.35-.02-.52-.01-.17-.02-.35-.03-.54-.18,0-.29-.02-.32-.05-.01-.01-.02-.03-.02-.05,0-.05,.02-.09,.06-.1,.04-.02,.09-.02,.15-.02h.12c0-.33,.02-.53,.05-.61,.02-.05,.04-.08,.07-.11Z"/><path class="cls-3" d="M690.19,450.82c.07,0,.11,.02,.11,.07,0,.03-.02,.09-.05,.16,.1,.14,.16,.32,.16,.55,0,.14-.04,.28-.11,.43-.04,.07-.09,.13-.15,.18-.06,.04-.13,.07-.2,.07s-.14-.02-.22-.05c-.04,.07-.07,.11-.11,.11s-.06,0-.08-.02c-.02-.01-.03-.03-.03-.06s.02-.08,.06-.15c-.14-.15-.22-.33-.22-.52,0-.07,.01-.15,.04-.23,.03-.09,.07-.17,.12-.23,.05-.07,.11-.12,.18-.17s.15-.06,.22-.06,.13,.01,.19,.04c.03-.06,.07-.09,.11-.09Zm-.22,.34s-.08-.04-.12-.04-.09,.02-.15,.07c-.09,.09-.14,.2-.14,.34,0,.09,.04,.19,.11,.31l.31-.67Zm.18,.48c0-.1-.02-.19-.05-.29l-.3,.64s.1,.06,.17,.06c.12-.06,.18-.2,.18-.41Z"/><path class="cls-3" d="M690.89,450.33c0-.08,.02-.12,.04-.15,.02-.02,.05-.03,.09-.03,.09,0,.13,.04,.13,.1,0,.05,0,.2-.01,.42s-.01,.43-.01,.61,0,.32,.02,.43c.02,.19,.06,.29,.1,.29s.08-.03,.1-.09c.01-.02,.03-.05,.05-.06,.02-.02,.05-.03,.08-.03,.07,0,.1,.06,.1,.18,0,.06-.03,.13-.1,.19s-.14,.09-.21,.09-.12-.01-.16-.03-.07-.06-.1-.1c-.03-.05-.04-.09-.06-.13-.01-.04-.03-.1-.03-.16-.01-.1-.02-.26-.03-.48s0-.43,0-.63,0-.34,0-.41Z"/><path class="cls-3" d="M692.4,450.88c.11,0,.21,.03,.3,.09,.1,.06,.14,.14,.14,.23s-.04,.18-.12,.26-.18,.14-.31,.15c-.06,0-.14,.01-.25,.01,.02,.17,.07,.28,.13,.34,.02,.02,.05,.03,.08,.03,.12,0,.23-.04,.31-.12s.14-.12,.18-.12c.02,0,.04,.01,.07,.04s.05,.06,.05,.08c0,.05-.06,.13-.19,.23-.06,.05-.12,.08-.2,.12s-.15,.05-.22,.05c-.17,0-.3-.11-.38-.34-.05-.14-.08-.29-.08-.46s.04-.31,.12-.43c.08-.12,.2-.18,.37-.18Zm.01,.21c-.08,0-.14,.04-.19,.13-.02,.03-.04,.1-.06,.2,.28,0,.42-.07,.42-.21,0-.08-.06-.13-.17-.13Z"/><path class="cls-3" d="M693.82,451.83v.31s-.01,.07-.05,.1c-.03,.03-.07,.04-.1,.04-.05,0-.08-.04-.09-.11,0-.02,0-.16-.02-.44s-.04-.49-.08-.65c-.02-.08-.03-.12-.03-.14,0-.07,.04-.1,.12-.1,.03,0,.06,.01,.08,.04,.02,.03,.03,.05,.04,.08,0,.03,0,.06,.01,.11,0,.05,0,.07,0,.09,.04-.1,.1-.18,.19-.23,.08-.05,.18-.07,.28-.07,.16,0,.25,.04,.25,.13,0,.04-.01,.08-.04,.1s-.06,.04-.1,.04c-.17,0-.29,.05-.36,.16-.07,.11-.11,.29-.11,.54Z"/><path class="cls-3" d="M695.99,452.27c-.05,0-.08-.03-.09-.09,0-.4-.02-.76-.07-1.08,0-.04,.01-.08,.04-.11,.03-.03,.06-.05,.1-.05s.06,.02,.08,.06c.07-.1,.17-.15,.3-.15,.16,0,.28,.08,.37,.23,.1-.14,.23-.22,.4-.22s.29,.07,.37,.2c.05,.08,.09,.19,.11,.32,.02,.13,.03,.32,.03,.57,0,.1,0,.17-.03,.22-.02,.05-.06,.08-.13,.08-.05,0-.08-.03-.08-.1v-.38c0-.45-.11-.68-.34-.68-.07,0-.13,.03-.16,.08-.03,.06-.05,.13-.06,.2,0,.12-.01,.23-.01,.33v.43s-.02,.06-.05,.08c-.03,.02-.07,.03-.1,.03-.04,0-.07-.03-.08-.09v-.62c0-.22-.03-.36-.1-.41-.04-.03-.09-.04-.16-.04s-.13,.03-.16,.08c-.04,.05-.05,.14-.05,.26l.02,.56c0,.17-.05,.26-.14,.26Z"/><path class="cls-3" d="M698.33,450.37s.07,.02,.1,.05,.05,.07,.05,.11-.02,.07-.05,.11-.07,.06-.11,.06-.07-.02-.1-.05-.05-.07-.05-.12c0-.1,.05-.15,.16-.16h0Zm.13,1.57v.21s-.01,.07-.04,.09c-.03,.02-.06,.04-.1,.04-.05,0-.08-.03-.08-.07-.03-.64-.04-.99-.04-1.06s0-.15,0-.25c0-.04,.03-.05,.07-.05,.11,0,.17,.04,.18,.13,0,.04,0,.08,0,.1v.19s-.01,.67-.01,.67Z"/><path class="cls-3" d="M699.93,452.15c-.07,.08-.16,.13-.27,.13s-.21-.03-.29-.1c-.17-.13-.25-.33-.25-.6,0-.21,.06-.38,.17-.51s.26-.19,.43-.19,.29,.06,.35,.17c.05,.1,.08,.26,.08,.46v.25c0,.12,0,.28,0,.48,.01,.21,.02,.36,.02,.46,0,.17-.04,.3-.13,.38s-.21,.12-.39,.12c-.1,0-.21-.02-.32-.07-.11-.04-.16-.1-.16-.15,0-.04,.01-.07,.04-.1,.02-.02,.05-.03,.08-.03s.1,.02,.2,.07c.1,.04,.18,.07,.23,.07,.14,0,.22-.12,.22-.35s0-.4-.01-.49Zm0-.63c0-.15-.02-.25-.06-.31s-.11-.09-.2-.09-.17,.04-.22,.13c-.06,.08-.08,.19-.08,.32s.03,.23,.08,.31c.05,.08,.13,.11,.24,.11s.18-.05,.21-.14c.02-.08,.04-.19,.04-.33Z"/><path class="cls-3" d="M702.05,450.17s.06-.04,.08-.04c.02,0,.08,0,.16,0s.15,.01,.21,.04c.05,.02,.08,.07,.08,.14s-.03,.11-.09,.11c-.01,0-.05-.01-.1-.03-.06-.02-.09-.03-.11-.03-.07,0-.11,.04-.13,.13,0,.03,0,.09,0,.18v.23h.21c.09,0,.13,.03,.13,.09,0,.08-.06,.13-.18,.13-.02,0-.04,0-.07,0s-.06,0-.09,0c0,.08,.01,.22,.03,.43,.01,.21,.02,.4,.02,.6,0,.04-.02,.07-.05,.1s-.07,.04-.1,.04c-.05,0-.08-.03-.08-.1,0-.18,0-.35-.02-.52-.01-.17-.02-.35-.03-.54-.18,0-.29-.02-.32-.05-.01-.01-.02-.03-.02-.05,0-.05,.02-.09,.06-.1,.04-.02,.09-.02,.15-.02h.12c0-.33,.02-.53,.05-.61,.02-.05,.04-.08,.07-.11Z"/><path class="cls-3" d="M703.37,451.83v.31s-.01,.07-.05,.1c-.03,.03-.07,.04-.1,.04-.05,0-.08-.04-.09-.11,0-.02,0-.16-.02-.44s-.04-.49-.08-.65c-.02-.08-.03-.12-.03-.14,0-.07,.04-.1,.12-.1,.03,0,.06,.01,.08,.04,.02,.03,.03,.05,.04,.08,0,.03,0,.06,.01,.11,0,.05,0,.07,0,.09,.04-.1,.1-.18,.19-.23,.08-.05,.18-.07,.28-.07,.16,0,.25,.04,.25,.13,0,.04-.01,.08-.04,.1s-.06,.04-.1,.04c-.17,0-.29,.05-.36,.16-.07,.11-.11,.29-.11,.54Z"/><path class="cls-3" d="M704.61,450.37s.07,.02,.1,.05,.05,.07,.05,.11-.02,.07-.05,.11-.07,.06-.11,.06-.07-.02-.1-.05-.05-.07-.05-.12c0-.1,.05-.15,.16-.16h0Zm.13,1.57v.21s-.01,.07-.04,.09c-.03,.02-.06,.04-.1,.04-.05,0-.08-.03-.08-.07-.03-.64-.04-.99-.04-1.06s0-.15,0-.25c0-.04,.03-.05,.07-.05,.11,0,.17,.04,.18,.13,0,.04,0,.08,0,.1v.19s-.01,.67-.01,.67Z"/><path class="cls-3" d="M705.56,451.91s.08,.02,.11,.05c.03,.03,.05,.08,.06,.13,0,.04-.02,.08-.05,.12-.03,.04-.07,.06-.11,.06s-.08-.01-.12-.03c-.03-.02-.05-.06-.05-.11s.02-.1,.05-.14c.03-.05,.07-.07,.11-.07Z"/><path class="cls-3" d="M707.83,450.36s.02-.04,.05-.06c.03-.02,.06-.03,.09-.03s.05,0,.07,.02c.02,.01,.03,.03,.03,.05,.04,.54,.06,.88,.06,1.02s0,.25,0,.32-.01,.15-.03,.23c-.02,.08-.04,.15-.07,.2-.07,.11-.17,.17-.32,.17s-.26-.05-.36-.15c-.09-.1-.14-.24-.14-.42,0-.03,.01-.06,.05-.08,.03-.02,.06-.04,.1-.04,.04,0,.07,.04,.08,.12,.03,.23,.11,.35,.26,.35,.04,0,.07-.01,.1-.04,.03-.02,.05-.05,.06-.09,.01-.03,.03-.08,.03-.14,.01-.08,.02-.18,.02-.3s-.01-.33-.04-.64c-.03-.31-.04-.48-.04-.5Z"/><path class="cls-3" d="M709.04,450.88c.11,0,.21,.03,.3,.09,.1,.06,.14,.14,.14,.23s-.04,.18-.12,.26-.18,.14-.31,.15c-.06,0-.14,.01-.25,.01,.02,.17,.07,.28,.13,.34,.02,.02,.05,.03,.08,.03,.12,0,.23-.04,.31-.12s.14-.12,.18-.12c.02,0,.04,.01,.07,.04s.05,.06,.05,.08c0,.05-.06,.13-.19,.23-.06,.05-.12,.08-.2,.12s-.15,.05-.22,.05c-.17,0-.3-.11-.38-.34-.05-.14-.08-.29-.08-.46s.04-.31,.12-.43c.08-.12,.2-.18,.37-.18Zm.01,.21c-.08,0-.14,.04-.19,.13-.02,.03-.04,.1-.06,.2,.28,0,.42-.07,.42-.21,0-.08-.06-.13-.17-.13Z"/><path class="cls-3" d="M710.93,452.15c-.07,.08-.16,.13-.27,.13s-.21-.03-.29-.1c-.17-.13-.25-.33-.25-.6,0-.21,.06-.38,.17-.51s.26-.19,.43-.19,.29,.06,.35,.17c.05,.1,.08,.26,.08,.46v.25c0,.12,0,.28,0,.48,.01,.21,.02,.36,.02,.46,0,.17-.04,.3-.13,.38s-.21,.12-.39,.12c-.1,0-.21-.02-.32-.07-.11-.04-.16-.1-.16-.15,0-.04,.01-.07,.04-.1,.02-.02,.05-.03,.08-.03s.1,.02,.2,.07c.1,.04,.18,.07,.23,.07,.14,0,.22-.12,.22-.35s0-.4-.01-.49Zm0-.63c0-.15-.02-.25-.06-.31s-.11-.09-.2-.09-.17,.04-.22,.13c-.06,.08-.08,.19-.08,.32s.03,.23,.08,.31c.05,.08,.13,.11,.24,.11s.18-.05,.21-.14c.02-.08,.04-.19,.04-.33Z"/><path class="cls-3" d="M713.04,450.17s.06-.04,.08-.04c.02,0,.08,0,.16,0s.15,.01,.21,.04c.05,.02,.08,.07,.08,.14s-.03,.11-.09,.11c-.01,0-.05-.01-.1-.03-.06-.02-.09-.03-.11-.03-.07,0-.11,.04-.13,.13,0,.03,0,.09,0,.18v.23h.21c.09,0,.13,.03,.13,.09,0,.08-.06,.13-.18,.13-.02,0-.04,0-.07,0s-.06,0-.09,0c0,.08,.01,.22,.03,.43,.01,.21,.02,.4,.02,.6,0,.04-.02,.07-.05,.1s-.07,.04-.1,.04c-.05,0-.08-.03-.08-.1,0-.18,0-.35-.02-.52-.01-.17-.02-.35-.03-.54-.18,0-.29-.02-.32-.05-.01-.01-.02-.03-.02-.05,0-.05,.02-.09,.06-.1,.04-.02,.09-.02,.15-.02h.12c0-.33,.02-.53,.05-.61,.02-.05,.04-.08,.07-.11Z"/><path class="cls-3" d="M714.8,450.82c.07,0,.11,.02,.11,.07,0,.03-.02,.09-.05,.16,.1,.14,.16,.32,.16,.55,0,.14-.04,.28-.11,.43-.04,.07-.09,.13-.15,.18-.06,.04-.13,.07-.2,.07s-.14-.02-.22-.05c-.04,.07-.07,.11-.11,.11s-.06,0-.08-.02c-.02-.01-.03-.03-.03-.06s.02-.08,.06-.15c-.14-.15-.22-.33-.22-.52,0-.07,.01-.15,.04-.23,.03-.09,.07-.17,.12-.23,.05-.07,.11-.12,.18-.17s.15-.06,.22-.06,.13,.01,.19,.04c.03-.06,.07-.09,.11-.09Zm-.22,.34s-.08-.04-.12-.04-.09,.02-.15,.07c-.09,.09-.14,.2-.14,.34,0,.09,.04,.19,.11,.31l.31-.67Zm.18,.48c0-.1-.02-.19-.05-.29l-.3,.64s.1,.06,.17,.06c.12-.06,.18-.2,.18-.41Z"/><path class="cls-3" d="M715.5,450.33c0-.08,.02-.12,.04-.15,.02-.02,.05-.03,.09-.03,.09,0,.13,.04,.13,.1,0,.05,0,.2-.01,.42s-.01,.43-.01,.61,0,.32,.02,.43c.02,.19,.06,.29,.1,.29s.08-.03,.1-.09c.01-.02,.03-.05,.05-.06,.02-.02,.05-.03,.08-.03,.07,0,.1,.06,.1,.18,0,.06-.03,.13-.1,.19s-.14,.09-.21,.09-.12-.01-.16-.03-.07-.06-.1-.1c-.03-.05-.04-.09-.06-.13-.01-.04-.03-.1-.03-.16-.01-.1-.02-.26-.03-.48s0-.43,0-.63,0-.34,0-.41Z"/><path class="cls-3" d="M717.01,450.88c.11,0,.21,.03,.3,.09,.1,.06,.14,.14,.14,.23s-.04,.18-.12,.26-.18,.14-.31,.15c-.06,0-.14,.01-.25,.01,.02,.17,.07,.28,.13,.34,.02,.02,.05,.03,.08,.03,.12,0,.23-.04,.31-.12s.14-.12,.18-.12c.02,0,.04,.01,.07,.04s.05,.06,.05,.08c0,.05-.06,.13-.19,.23-.06,.05-.12,.08-.2,.12s-.15,.05-.22,.05c-.17,0-.3-.11-.38-.34-.05-.14-.08-.29-.08-.46s.04-.31,.12-.43c.08-.12,.2-.18,.37-.18Zm.01,.21c-.08,0-.14,.04-.19,.13-.02,.03-.04,.1-.06,.2,.28,0,.42-.07,.42-.21,0-.08-.06-.13-.17-.13Z"/><path class="cls-3" d="M718.43,451.83v.31s-.01,.07-.05,.1c-.03,.03-.07,.04-.1,.04-.05,0-.08-.04-.09-.11,0-.02,0-.16-.02-.44s-.04-.49-.08-.65c-.02-.08-.03-.12-.03-.14,0-.07,.04-.1,.12-.1,.03,0,.06,.01,.08,.04,.02,.03,.03,.05,.04,.08,0,.03,0,.06,.01,.11,0,.05,0,.07,0,.09,.04-.1,.1-.18,.19-.23,.08-.05,.18-.07,.28-.07,.16,0,.25,.04,.25,.13,0,.04-.01,.08-.04,.1s-.06,.04-.1,.04c-.17,0-.29,.05-.36,.16-.07,.11-.11,.29-.11,.54Z"/><path class="cls-3" d="M688.2,455.87c-.05,0-.08-.03-.09-.09,0-.4-.02-.76-.07-1.08,0-.04,.01-.08,.04-.11,.03-.03,.06-.05,.1-.05s.06,.02,.08,.06c.07-.1,.17-.15,.3-.15,.16,0,.28,.08,.37,.23,.1-.14,.23-.22,.4-.22s.29,.07,.37,.2c.05,.08,.09,.19,.11,.32,.02,.13,.03,.32,.03,.57,0,.1,0,.17-.03,.22-.02,.05-.06,.08-.13,.08-.05,0-.08-.03-.08-.1v-.38c0-.45-.11-.68-.34-.68-.07,0-.13,.03-.16,.08-.03,.06-.05,.13-.06,.2,0,.12-.01,.23-.01,.33v.43s-.02,.06-.05,.08c-.03,.02-.07,.03-.1,.03-.04,0-.07-.03-.08-.09v-.62c0-.22-.03-.36-.1-.41-.04-.03-.09-.04-.16-.04s-.13,.03-.16,.08c-.04,.05-.05,.14-.05,.26l.02,.56c0,.17-.05,.26-.14,.26Z"/><path class="cls-3" d="M690.53,453.97s.07,.02,.1,.05,.05,.07,.05,.11-.02,.07-.05,.11-.07,.06-.11,.06-.07-.02-.1-.05-.05-.07-.05-.12c0-.1,.05-.15,.16-.16h0Zm.13,1.57v.21s-.01,.07-.04,.09c-.03,.02-.06,.04-.1,.04-.05,0-.08-.03-.08-.07-.03-.64-.04-.99-.04-1.06s0-.15,0-.25c0-.04,.03-.05,.07-.05,.11,0,.17,.04,.18,.13,0,.04,0,.08,0,.1v.19s-.01,.67-.01,.67Z"/><path class="cls-3" d="M692.14,455.75c-.07,.08-.16,.13-.27,.13s-.21-.03-.29-.1c-.17-.13-.25-.33-.25-.6,0-.21,.06-.38,.17-.51s.26-.19,.43-.19,.29,.06,.35,.17c.05,.1,.08,.26,.08,.46v.25c0,.12,0,.28,0,.48,.01,.21,.02,.36,.02,.46,0,.17-.04,.3-.13,.38s-.21,.12-.39,.12c-.1,0-.21-.02-.32-.07-.11-.04-.16-.1-.16-.15,0-.04,.01-.07,.04-.1,.02-.02,.05-.03,.08-.03s.1,.02,.2,.07c.1,.04,.18,.07,.23,.07,.14,0,.22-.12,.22-.35s0-.4-.01-.49Zm0-.63c0-.15-.02-.25-.06-.31s-.11-.09-.2-.09-.17,.04-.22,.13c-.06,.08-.08,.19-.08,.32s.03,.23,.08,.31c.05,.08,.13,.11,.24,.11s.18-.05,.21-.14c.02-.08,.04-.19,.04-.33Z"/><path class="cls-3" d="M694.7,455.75c-.07,.08-.16,.13-.27,.13s-.21-.03-.29-.1c-.17-.13-.25-.33-.25-.6,0-.21,.06-.38,.17-.51s.26-.19,.43-.19,.29,.06,.35,.17c.05,.1,.08,.26,.08,.46v.25c0,.12,0,.28,0,.48,.01,.21,.02,.36,.02,.46,0,.17-.04,.3-.13,.38s-.21,.12-.39,.12c-.1,0-.21-.02-.32-.07-.11-.04-.16-.1-.16-.15,0-.04,.01-.07,.04-.1,.02-.02,.05-.03,.08-.03s.1,.02,.2,.07c.1,.04,.18,.07,.23,.07,.14,0,.22-.12,.22-.35s0-.4-.01-.49Zm0-.63c0-.15-.02-.25-.06-.31s-.11-.09-.2-.09-.17,.04-.22,.13c-.06,.08-.08,.19-.08,.32s.03,.23,.08,.31c.05,.08,.13,.11,.24,.11s.18-.05,.21-.14c.02-.08,.04-.19,.04-.33Z"/><path class="cls-3" d="M695.88,454.48c.11,0,.21,.03,.3,.09,.1,.06,.14,.14,.14,.23s-.04,.18-.12,.26-.18,.14-.31,.15c-.06,0-.14,.01-.25,.01,.02,.17,.07,.28,.13,.34,.02,.02,.05,.03,.08,.03,.12,0,.23-.04,.31-.12s.14-.12,.18-.12c.02,0,.04,.01,.07,.04s.05,.06,.05,.08c0,.05-.06,.13-.19,.23-.06,.05-.12,.08-.2,.12s-.15,.05-.22,.05c-.17,0-.3-.11-.38-.34-.05-.14-.08-.29-.08-.46s.04-.31,.12-.43c.08-.12,.2-.18,.37-.18Zm.01,.21c-.08,0-.14,.04-.19,.13-.02,.03-.04,.1-.06,.2,.28,0,.42-.07,.42-.21,0-.08-.06-.13-.17-.13Z"/><path class="cls-3" d="M697.03,455.78l-.03-1.22s.01-.07,.04-.09c.03-.02,.05-.04,.08-.04,.06,0,.1,.03,.11,.08,0,.05,.01,.11,.01,.17,.11-.14,.24-.21,.41-.21,.25,0,.37,.28,.37,.85v.24c0,.1,0,.18-.02,.23-.01,.06-.06,.09-.13,.09-.05,0-.07-.03-.07-.1v-.17c0-.23,0-.39-.02-.48s-.03-.15-.04-.2c-.03-.11-.09-.16-.17-.16-.1,0-.17,.04-.21,.11-.04,.08-.07,.17-.08,.28-.01,.19-.02,.38-.02,.59,0,.04-.01,.07-.04,.1s-.07,.04-.11,.04c-.05,0-.08-.03-.08-.1Z"/><path class="cls-3" d="M698.95,453.77s.06-.04,.08-.04c.02,0,.08,0,.16,0s.15,.01,.21,.04c.05,.02,.08,.07,.08,.14s-.03,.11-.09,.11c-.01,0-.05-.01-.1-.03-.06-.02-.09-.03-.11-.03-.07,0-.11,.04-.13,.13,0,.03,0,.09,0,.18v.23h.21c.09,0,.13,.03,.13,.09,0,.08-.06,.13-.18,.13-.02,0-.04,0-.07,0s-.06,0-.09,0c0,.08,.01,.22,.03,.43,.01,.21,.02,.4,.02,.6,0,.04-.02,.07-.05,.1s-.07,.04-.1,.04c-.05,0-.08-.03-.08-.1,0-.18,0-.35-.02-.52-.01-.17-.02-.35-.03-.54-.18,0-.29-.02-.32-.05-.01-.01-.02-.03-.02-.05,0-.05,.02-.09,.06-.1,.04-.02,.09-.02,.15-.02h.12c0-.33,.02-.53,.05-.61,.02-.05,.04-.08,.07-.11Z"/><path class="cls-3" d="M700.7,454.42c.07,0,.11,.02,.11,.07,0,.03-.02,.09-.05,.16,.1,.14,.16,.32,.16,.55,0,.14-.04,.28-.11,.43-.04,.07-.09,.13-.15,.18-.06,.04-.13,.07-.2,.07s-.14-.02-.22-.05c-.04,.07-.07,.11-.11,.11s-.06,0-.08-.02c-.02-.01-.03-.03-.03-.06s.02-.08,.06-.15c-.14-.15-.22-.33-.22-.52,0-.07,.01-.15,.04-.23,.03-.09,.07-.17,.12-.23,.05-.07,.11-.12,.18-.17s.15-.06,.22-.06,.13,.01,.19,.04c.03-.06,.07-.09,.11-.09Zm-.22,.34s-.08-.04-.12-.04-.09,.02-.15,.07c-.09,.09-.14,.2-.14,.34,0,.09,.04,.19,.11,.31l.31-.67Zm.18,.48c0-.1-.02-.19-.05-.29l-.3,.64s.1,.06,.17,.06c.12-.06,.18-.2,.18-.41Z"/><path class="cls-3" d="M702.13,454.47v-.58c0-.11,.03-.16,.1-.16s.11,.03,.12,.09c0,.03,0,.18,.01,.47,0,.29,.02,.56,.03,.81,.01,.25,.02,.49,.02,.7,0,.06-.04,.09-.14,.09-.06,0-.09-.04-.09-.13-.09,.07-.19,.1-.31,.1-.15,0-.27-.06-.36-.17-.09-.11-.14-.25-.14-.41s.03-.32,.1-.46c.07-.14,.17-.25,.31-.31,.09-.04,.17-.06,.25-.06,.03,0,.06,0,.09,0Zm.02,.41s-.03-.08-.05-.1c-.02-.02-.04-.04-.06-.04-.02,0-.05,0-.08,0s-.07,.01-.12,.04c-.05,.02-.08,.06-.12,.12-.06,.11-.1,.22-.1,.34s.02,.22,.07,.29c.05,.07,.11,.11,.2,.11s.16-.04,.21-.13,.08-.2,.08-.33c0-.15,0-.25-.02-.29Z"/><path class="cls-3" d="M702.93,454.47h.15s.05,0,.06,0v-.62s.02-.06,.05-.09c.03-.02,.06-.04,.09-.04s.05,0,.07,.03c.02,.02,.02,.05,.02,.08,0,.04,0,.25,0,.62h.35c.06-.01,.09,.02,.09,.09,0,.05-.02,.09-.05,.12-.03,.03-.06,.04-.1,.04-.04,0-.07,0-.1,0h-.18c0,.08,0,.24,.03,.48,.02,.24,.03,.4,.04,.47s.01,.12,0,.14-.02,.04-.03,.04c-.03,.01-.06,.02-.1,.02s-.07-.02-.08-.07c-.04-.26-.07-.62-.08-1.08-.02,0-.09,0-.21,0s-.18-.03-.18-.1c0-.1,.06-.15,.17-.15Z"/><path class="cls-3" d="M704.51,453.64c0,.17-.03,.3-.09,.4-.04,.06-.08,.09-.13,.09-.06,0-.1-.03-.1-.1,0-.02,0-.04,0-.06,.06-.07,.09-.18,.09-.32,.01-.06,.04-.09,.1-.09s.09,.03,.11,.09Zm.36,0c0,.17-.03,.3-.09,.4-.04,.06-.07,.09-.11,.09s-.07,0-.08-.03c-.02-.02-.03-.04-.03-.06s0-.05,0-.07c.06-.07,.09-.18,.09-.32,.01-.06,.05-.09,.1-.09s.09,.03,.11,.09Z"/></g></g><g id="Layer_26"><polygon class="cls-9" points="325.13 0 328.14 7.65 333.64 11.84 328.14 16.03 325.13 23.68 322.13 16.03 316.63 11.84 322.13 7.65 325.13 0"/><polygon class="cls-9" points="1245.66 315.33 1248.67 322.98 1254.16 327.17 1248.67 331.35 1245.66 339.01 1242.65 331.35 1237.16 327.17 1242.65 322.98 1245.66 315.33"/><polygon class="cls-9" points="1239.79 356.76 1241.87 362.04 1245.66 364.93 1241.87 367.82 1239.79 373.1 1237.72 367.82 1233.93 364.93 1237.72 362.04 1239.79 356.76"/><polygon class="cls-9" points="1144.99 224.08 1148 231.74 1153.49 235.92 1148 240.11 1144.99 247.76 1141.98 240.11 1136.49 235.92 1141.98 231.74 1144.99 224.08"/><polygon class="cls-9" points="1168.99 178.99 1173.84 191.33 1182.71 198.08 1173.84 204.83 1168.99 217.18 1164.14 204.83 1155.27 198.08 1164.14 191.33 1168.99 178.99"/><polygon class="cls-9" points="204.35 267.84 208.32 277.94 215.57 283.46 208.32 288.99 204.35 299.08 200.38 288.99 193.13 283.46 200.38 277.94 204.35 267.84"/><polygon class="cls-9" points="67.48 365.14 71.44 375.23 78.7 380.76 71.44 386.28 67.48 396.38 63.51 386.28 56.26 380.76 63.51 375.23 67.48 365.14"/><polygon class="cls-9" points="834.72 246.13 837.4 252.96 842.31 256.7 837.4 260.43 834.72 267.27 832.03 260.43 827.12 256.7 832.03 252.96 834.72 246.13"/><polygon class="cls-9" points="908.41 189.48 911.1 196.32 916 200.06 911.1 203.79 908.41 210.63 905.73 203.79 900.82 200.06 905.73 196.32 908.41 189.48"/><polygon class="cls-9" points="919.63 219.11 923.6 229.21 930.85 234.73 923.6 240.26 919.63 250.36 915.66 240.26 908.41 234.73 915.66 229.21 919.63 219.11"/><polygon class="cls-9" points="979.75 40.36 982.43 47.19 987.34 50.93 982.43 54.66 979.75 61.5 977.06 54.66 972.15 50.93 977.06 47.19 979.75 40.36"/><polygon class="cls-9" points="378.22 167.29 380.34 172.69 384.22 175.64 380.34 178.59 378.22 183.98 376.1 178.59 372.23 175.64 376.1 172.69 378.22 167.29"/><polygon class="cls-9" points="343.84 206.21 345.42 210.24 348.31 212.44 345.42 214.64 343.84 218.66 342.26 214.64 339.37 212.44 342.26 210.24 343.84 206.21"/><polygon class="cls-9" points="437.23 51.61 439.98 57.2 446.15 58.09 441.69 62.44 442.74 68.57 437.23 65.68 431.72 68.57 432.77 62.44 428.31 58.09 434.47 57.2 437.23 51.61"/><polygon class="cls-9" points="225.16 294.87 227.91 300.46 234.07 301.35 229.61 305.7 230.67 311.83 225.16 308.94 219.65 311.83 220.7 305.7 216.24 301.35 222.4 300.46 225.16 294.87"/><polygon class="cls-9" points="531.51 281.36 534.27 286.94 540.43 287.84 535.97 292.18 537.02 298.32 531.51 295.42 526 298.32 527.06 292.18 522.6 287.84 528.76 286.94 531.51 281.36"/><polygon class="cls-9" points="494.91 311.26 496.66 314.82 500.6 315.39 497.75 318.17 498.42 322.08 494.91 320.23 491.39 322.08 492.06 318.17 489.22 315.39 493.15 314.82 494.91 311.26"/><polygon class="cls-9" points="716.6 174.89 719.36 180.47 725.52 181.37 721.06 185.71 722.11 191.85 716.6 188.95 711.09 191.85 712.14 185.71 707.69 181.37 713.85 180.47 716.6 174.89"/><polygon class="cls-9" points="813.47 259.64 816.22 265.22 822.38 266.12 817.93 270.46 818.98 276.6 813.47 273.7 807.96 276.6 809.01 270.46 804.55 266.12 810.71 265.22 813.47 259.64"/><polygon class="cls-9" points="870.94 79.83 873.69 85.42 879.86 86.31 875.4 90.66 876.45 96.79 870.94 93.9 865.43 96.79 866.48 90.66 862.02 86.31 868.18 85.42 870.94 79.83"/><polygon class="cls-9" points="1339.23 131.33 1342.02 136.98 1348.25 137.88 1343.74 142.28 1344.8 148.49 1339.23 145.56 1333.65 148.49 1334.72 142.28 1330.21 137.88 1336.44 136.98 1339.23 131.33"/></g></svg>