<?xml version="1.0" encoding="UTF-8"?><svg id="Layer_22" xmlns="http://www.w3.org/2000/svg" width="425.04mm" height="700.76mm" xmlns:xlink="http://www.w3.org/1999/xlink" viewBox="0 0 1204.85 1986.39"><defs><style>.cls-1{fill:url(#linear-gradient-2);}.cls-2{fill:#f3e639;}.cls-3{fill:#f7eb64;}.cls-4{fill:#f49619;}.cls-5{fill:url(#linear-gradient-6);}.cls-6{fill:#1e1b15;}.cls-7{fill:#736556;}.cls-8{fill:#f8f4bd;}.cls-9{fill:url(#linear-gradient-5);}.cls-10{fill:url(#linear-gradient-7);}.cls-11{fill:#383a25;}.cls-12{fill:url(#linear-gradient-9);}.cls-13{fill:#aba3a1;}.cls-14{fill:url(#linear-gradient-3);}.cls-15{fill:url(#linear-gradient);}.cls-16{fill:#14142c;}.cls-17{fill:url(#linear-gradient-4);}.cls-18{fill:url(#linear-gradient-8);}</style><linearGradient id="linear-gradient" x1="605.68" y1="112.09" x2="605.68" y2="499.88" gradientUnits="userSpaceOnUse"><stop offset="0" stop-color="#fff" stop-opacity="0"/><stop offset=".18" stop-color="#fafcfd" stop-opacity=".02"/><stop offset=".33" stop-color="#ebf4f9" stop-opacity=".07"/><stop offset=".47" stop-color="#d3e7f2" stop-opacity=".17"/><stop offset=".6" stop-color="#b1d4e8" stop-opacity=".3"/><stop offset=".73" stop-color="#85bcdb" stop-opacity=".48"/><stop offset=".85" stop-color="#4e9ecb" stop-opacity=".69"/><stop offset=".97" stop-color="#0f7bb9" stop-opacity=".94"/><stop offset="1" stop-color="#0073b5"/></linearGradient><linearGradient id="linear-gradient-2" x1="459.8" y1="398.9" x2="419.09" y2="246.96" gradientUnits="userSpaceOnUse"><stop offset="0" stop-color="#736556" stop-opacity=".5"/><stop offset="0" stop-color="#746456" stop-opacity=".5"/><stop offset=".27" stop-color="#9c4064" stop-opacity=".68"/><stop offset=".51" stop-color="#bc246f" stop-opacity=".82"/><stop offset=".71" stop-color="#d21077" stop-opacity=".92"/><stop offset=".89" stop-color="#e0047c" stop-opacity=".98"/><stop offset="1" stop-color="#e6007e"/></linearGradient><linearGradient id="linear-gradient-3" x1="713.27" y1="408.42" x2="766.95" y2="260.94" gradientUnits="userSpaceOnUse"><stop offset="0" stop-color="#736556" stop-opacity=".5"/><stop offset=".06" stop-color="#6e6a53" stop-opacity=".54"/><stop offset=".36" stop-color="#578546" stop-opacity=".74"/><stop offset=".63" stop-color="#47993c" stop-opacity=".88"/><stop offset=".85" stop-color="#3da537" stop-opacity=".97"/><stop offset="1" stop-color="#3aaa35"/></linearGradient><linearGradient id="linear-gradient-4" x1="813.94" y1="636.2" x2="929.64" y2="318.33" gradientUnits="userSpaceOnUse"><stop offset="0" stop-color="#736556" stop-opacity=".5"/><stop offset=".25" stop-color="#9a4263" stop-opacity=".66"/><stop offset=".5" stop-color="#bb256f" stop-opacity=".8"/><stop offset=".71" stop-color="#d21177" stop-opacity=".9"/><stop offset=".88" stop-color="#e0047c" stop-opacity=".96"/><stop offset="1" stop-color="#e6007e" stop-opacity=".98"/></linearGradient><linearGradient id="linear-gradient-5" x1="373.57" y1="603.16" x2="285.5" y2="274.46" gradientUnits="userSpaceOnUse"><stop offset="0" stop-color="#736556" stop-opacity=".5"/><stop offset=".09" stop-color="#83754d" stop-opacity=".56"/><stop offset=".33" stop-color="#ae9e37" stop-opacity=".72"/><stop offset=".54" stop-color="#cfbe26" stop-opacity=".84"/><stop offset=".74" stop-color="#e7d61a" stop-opacity=".93"/><stop offset=".9" stop-color="#f6e412" stop-opacity=".98"/><stop offset="1" stop-color="#fcea10"/></linearGradient><linearGradient id="linear-gradient-6" x1="874.02" y1="995.15" x2="1102.7" y2="366.85" gradientUnits="userSpaceOnUse"><stop offset="0" stop-color="#736556" stop-opacity=".5"/><stop offset=".1" stop-color="#85774a" stop-opacity=".57"/><stop offset=".33" stop-color="#b0a030" stop-opacity=".72"/><stop offset=".55" stop-color="#d2c11b" stop-opacity=".84"/><stop offset=".74" stop-color="#ead90c" stop-opacity=".93"/><stop offset=".9" stop-color="#f9e703" stop-opacity=".98"/><stop offset="1" stop-color="#ffed00"/></linearGradient><linearGradient id="linear-gradient-7" x1="320.67" y1="887.65" x2="147.63" y2="241.84" gradientTransform="translate(30.06 120.59) rotate(-.59) scale(.98 .94) skewX(-1.17)" gradientUnits="userSpaceOnUse"><stop offset="0" stop-color="#736556" stop-opacity=".5"/><stop offset=".01" stop-color="#726658" stop-opacity=".51"/><stop offset=".27" stop-color="#637c87" stop-opacity=".68"/><stop offset=".5" stop-color="#588eac" stop-opacity=".81"/><stop offset=".7" stop-color="#4f9bc6" stop-opacity=".91"/><stop offset=".86" stop-color="#4aa3d7" stop-opacity=".96"/><stop offset=".97" stop-color="#49a6dd" stop-opacity=".99"/><stop offset=".99" stop-color="#2a80c3" stop-opacity="1"/><stop offset="1" stop-color="#1d71b8"/></linearGradient><linearGradient id="linear-gradient-8" x1="1013.84" y1="2211.81" x2="1476.91" y2="939.54" gradientUnits="userSpaceOnUse"><stop offset="0" stop-color="#736556" stop-opacity=".5"/><stop offset="0" stop-color="#746456" stop-opacity=".5"/><stop offset=".27" stop-color="#9c4064" stop-opacity=".68"/><stop offset=".51" stop-color="#bc246f" stop-opacity=".82"/><stop offset=".71" stop-color="#d21077" stop-opacity=".92"/><stop offset=".89" stop-color="#e0047c" stop-opacity=".98"/><stop offset="1" stop-color="#e6007e"/></linearGradient><linearGradient id="linear-gradient-9" x1="-2564.61" y1="2213.73" x2="-2101.54" y2="941.46" gradientTransform="translate(-2355.6) rotate(-180) scale(1 -1)" gradientUnits="userSpaceOnUse"><stop offset="0" stop-color="#736556" stop-opacity=".5"/><stop offset=".06" stop-color="#6e6a53" stop-opacity=".54"/><stop offset=".36" stop-color="#578546" stop-opacity=".74"/><stop offset=".63" stop-color="#47993c" stop-opacity=".88"/><stop offset=".85" stop-color="#3da537" stop-opacity=".97"/><stop offset="1" stop-color="#3aaa35"/></linearGradient></defs><rect class="cls-16" x="-3.61" y="-10.81" width="1218.58" height="558.22"/><polygon class="cls-15" points="-3.61 112.09 1214.97 112.09 1214.97 499.88 -3.61 489.78 -3.61 112.09"/><path class="cls-11" d="M1212.72,1493.97H-18.76V451.8c129.3-50.6,345.61-116.9,619.91-116.22,269.96,.67,483.06,65.92,611.57,116.22V1493.97Z"/><path class="cls-8" d="M522.81,349.2s-16.42-94.88,77.19-90.66c93.61,4.22,69.47,95.69,69.47,95.69l-146.67-5.03Z"/><path class="cls-3" d="M538.95,346.37s-13.71-79.22,64.45-75.7c78.16,3.52,58.01,79.9,58.01,79.9l-122.46-4.2Z"/><path class="cls-2" d="M554.5,346.33s-12.06-61.77,42.27-61.86c54.34-.09,42.82,60.68,42.82,60.68l-85.09,1.17Z"/><path class="cls-4" d="M568.52,335.58s4.11-52.18,34.91-37.86,20.28,37.86,20.28,37.86h-55.19Z"/><path class="cls-7" d="M-117.4,1248.17S208.32,482.06,454.81,351.79c0,0,162.86-57.58,294.91,0,0,0,351.28,397.93,578.39,792.22v860.67H-117.4v-756.51Z"/><path class="cls-13" d="M589.53,359.51l4.75-28.2s9.7-3.54,17.95-.4v28.6h-22.7Z"/><path class="cls-13" d="M591.7,425.18h27.52s15.82,94.93,10.32,99.75-58.47,0-58.47,0c0,0,7.57-54.34,20.64-99.75Z"/><path class="cls-13" d="M572.6,644.29s55.98-5.5,70.64,0c0,0,59.37,185.04,62.81,242.14,0,0-144.46-18.57-211.18,0,0,0,41.96-168.54,77.73-242.14Z"/><path class="cls-13" d="M470.89,1096.24s171.97-24.76,247.64,0c0,0,188.48,536.56,165.1,683.77,0,0-414.11-17.89-590.22,23.39,0,0,82.67-489.27,177.48-707.16Z"/><path class="cls-1" d="M501.55,378.69c-22.1,18.16-52.43,25.1-87.44,25.68-1.31-51.68-2.62-103.35-3.93-155.03,3.73-.87,7.45-1.75,11.18-2.62,26.73,43.99,53.46,87.98,80.19,131.97Z"/><path class="cls-14" d="M759.5,414.45c-28.43,3.09-57.62-7.71-87.23-26.39,27.2-43.96,54.4-87.91,81.61-131.87,3.6,1.31,7.19,2.62,10.79,3.93-1.72,51.45-3.45,102.89-5.17,154.34Z"/><path class="cls-17" d="M913.57,649.18c-61.28,6.66-124.18-16.62-188-56.89,58.63-94.74,117.26-189.49,175.89-284.23,7.75,2.82,15.51,5.65,23.26,8.47-3.71,110.88-7.43,221.76-11.14,332.65Z"/><path class="cls-9" d="M275.15,615.11c61.28,6.66,124.18-16.62,188-56.89-58.63-94.74-117.26-189.49-175.89-284.23-7.75,2.82-15.51,5.65-23.26,8.47,3.71,110.88,7.43,221.76,11.14,332.65Z"/><g><polygon class="cls-6" points="426.08 245.17 423.68 236.7 394.69 244.9 390.89 244.9 390.89 253.83 392.57 253.83 392.57 356.2 389.43 358.84 389.43 411.38 405.48 411.38 405.48 358.84 402.35 356.3 402.35 253.83 404.02 253.83 404.02 251.4 407.68 250.37 408.32 252.63 424.35 248.09 423.71 245.83 426.08 245.17"/><path class="cls-7" d="M383.47,415.31s.62-10.72,3.71-15.46c0,0-3.65,9.85,4.78,12.45,0,0,4.82-7.33,5.17-10.87,.35-3.54,1.59,11.83,1.59,11.83l10.07-16.31,1.15,21.64-26.49-3.27Z"/></g><g><polygon class="cls-6" points="748.75 254.37 751.21 245.91 781.03 254.11 784.94 254.11 784.94 263.03 783.22 263.03 783.22 365.41 786.44 368.04 786.44 420.59 769.93 420.59 769.93 368.04 773.16 365.5 773.16 263.03 771.43 263.03 771.43 260.61 767.67 259.58 767.02 261.83 750.52 257.3 751.18 255.04 748.75 254.37"/><path class="cls-7" d="M786.44,422.58s-.96-6.98-3.52-10c0,0,3.22,6.35-3.08,8.21,0,0-4-4.68-4.42-6.98s-.68,7.74-.68,7.74l-8.4-10.43,.09,14.13,20.01-2.67Z"/></g><g><polygon class="cls-6" points="890.96 297.84 896.41 279.12 962.37 297.25 971.03 297.25 971.03 317 967.21 317 967.21 543.46 974.35 549.29 974.35 665.52 937.82 665.52 937.82 549.29 944.96 543.67 944.96 317 941.14 317 941.14 311.63 932.82 309.35 931.37 314.35 894.88 304.32 896.34 299.32 890.96 297.84"/><path class="cls-7" d="M974.99,667.82s-1.9-13.85-7-19.86c0,0,6.39,12.6-6.12,16.3,0,0-7.94-9.29-8.78-13.87-.85-4.57-1.35,15.38-1.35,15.38l-16.69-20.71,.19,28.06,39.75-5.3Z"/></g><path class="cls-5" d="M1060.16,1016.88c-115.04,15.38-232-27.95-350.04-104.59,113.39-188.17,226.79-376.34,340.18-564.51,14.42,5.25,28.83,10.5,43.25,15.75-11.13,217.79-22.26,435.57-33.39,653.36Z"/><g><polygon class="cls-6" points="297.05 271.42 291.76 252.7 227.63 270.83 219.21 270.83 219.21 290.57 222.93 290.57 222.93 517.03 215.99 522.86 215.99 639.09 251.5 639.09 251.5 522.86 244.56 517.24 244.56 290.57 248.27 290.57 248.27 285.21 256.35 282.92 257.77 287.92 293.24 277.89 291.82 272.89 297.05 271.42"/><path class="cls-7" d="M203.45,641.83s4.1-21.09,11.49-29.64c0,0-9.86,18.55,6.16,25.95,0,0,11.5-13.24,13.14-20.18,1.64-6.93,0,23.87,0,23.87l24.32-29.64-3.49,43.2-51.63-13.55Z"/></g><path class="cls-10" d="M494.31,865.49c-82.25,77-199.54,110.82-336.71,120.15-17.69-206.34-35.38-412.69-53.07-619.03,14.41-4.24,28.81-8.48,43.21-12.72,115.52,170.53,231.04,341.07,346.57,511.6Z"/><g><polygon class="cls-6" points="171.73 344.7 161.69 309.2 40.09 343.59 24.13 343.59 24.13 381.02 31.17 381.02 31.17 810.47 18.01 821.53 18.01 1041.94 85.35 1041.94 85.35 821.53 72.19 810.87 72.19 381.02 79.23 381.02 79.23 370.86 94.56 366.52 97.24 376 164.5 356.98 161.82 347.5 171.73 344.7"/><path class="cls-7" d="M9.79,1053.91s6.1-31.39,17.1-44.13c0,0-14.68,27.62,9.17,38.63,0,0,17.13-19.71,19.57-30.04s0,35.54,0,35.54l36.21-44.13-5.19,64.31-76.86-20.18Z"/></g><g><polygon class="cls-6" points="1028.29 336.2 1038.62 300.7 1163.7 335.08 1180.12 335.08 1180.12 372.52 1172.88 372.52 1172.88 801.97 1186.42 813.03 1186.42 1033.43 1117.15 1033.43 1117.15 813.03 1130.69 802.36 1130.69 372.52 1123.44 372.52 1123.44 362.35 1107.68 358.02 1104.92 367.5 1035.73 348.48 1038.49 339 1028.29 336.2"/><path class="cls-7" d="M1168.73,1050.24s4.9-33.1-2.34-49.98c0,0,5.75,32.89-24.03,33.97,0,0-11.29-26.17-10.15-37.23,1.14-11.06-13,34.67-13,34.67l-22.98-57.72-17.91,64.84,90.41,11.44Z"/></g><path class="cls-18" d="M1497.9,2242.43c-301.3,29.75-607.62-54.05-916.79-202.25,296.99-363.87,593.97-727.75,890.96-1091.62,37.76,10.15,75.52,20.3,113.28,30.45-29.15,421.14-58.29,842.28-87.44,1263.42Z"/><path class="cls-12" d="M-275.05,2244.35c301.3,29.75,607.62-54.05,916.79-202.25C344.76,1678.22,47.77,1314.35-249.21,950.47c-37.76,10.15-75.52,20.3-113.28,30.45,29.15,421.14,58.29,842.28,87.44,1263.42Z"/></svg>