<?xml version="1.0" encoding="UTF-8"?><svg id="Layer_22" xmlns="http://www.w3.org/2000/svg" width="425.04mm" height="384.4mm" xmlns:xlink="http://www.w3.org/1999/xlink" viewBox="0 0 1204.85 1089.63"><defs><style>.cls-1{fill:url(#linear-gradient-2);}.cls-2{fill:#f3e639;}.cls-3{fill:#f7eb64;}.cls-4{fill:#f49619;}.cls-5{fill:url(#linear-gradient-6);}.cls-6{fill:#1e1b15;}.cls-7{fill:#736556;}.cls-8{fill:#f8f4bd;}.cls-9{fill:url(#linear-gradient-5);}.cls-10{fill:url(#linear-gradient-7);}.cls-11{fill:#383a25;}.cls-12{fill:#aba3a1;}.cls-13{fill:url(#linear-gradient-3);}.cls-14{fill:url(#linear-gradient);}.cls-15{fill:url(#linear-gradient-4);}</style><linearGradient id="linear-gradient" x1="605.68" y1="18.34" x2="605.68" y2="372.38" gradientUnits="userSpaceOnUse"><stop offset="0" stop-color="#fff" stop-opacity="0"/><stop offset=".18" stop-color="#fafcfd" stop-opacity=".02"/><stop offset=".33" stop-color="#ebf4f9" stop-opacity=".07"/><stop offset=".47" stop-color="#d3e7f2" stop-opacity=".17"/><stop offset=".6" stop-color="#b1d4e8" stop-opacity=".3"/><stop offset=".73" stop-color="#85bcdb" stop-opacity=".48"/><stop offset=".85" stop-color="#4e9ecb" stop-opacity=".69"/><stop offset=".97" stop-color="#0f7bb9" stop-opacity=".94"/><stop offset="1" stop-color="#0073b5"/></linearGradient><linearGradient id="linear-gradient-2" x1="459.8" y1="305.15" x2="419.09" y2="153.21" gradientUnits="userSpaceOnUse"><stop offset="0" stop-color="#736556" stop-opacity=".5"/><stop offset="0" stop-color="#746456" stop-opacity=".5"/><stop offset=".27" stop-color="#9c4064" stop-opacity=".68"/><stop offset=".51" stop-color="#bc246f" stop-opacity=".82"/><stop offset=".71" stop-color="#d21077" stop-opacity=".92"/><stop offset=".89" stop-color="#e0047c" stop-opacity=".98"/><stop offset="1" stop-color="#e6007e"/></linearGradient><linearGradient id="linear-gradient-3" x1="713.27" y1="314.68" x2="766.95" y2="167.19" gradientUnits="userSpaceOnUse"><stop offset="0" stop-color="#736556" stop-opacity=".5"/><stop offset=".06" stop-color="#6e6a53" stop-opacity=".54"/><stop offset=".36" stop-color="#578546" stop-opacity=".74"/><stop offset=".63" stop-color="#47993c" stop-opacity=".88"/><stop offset=".85" stop-color="#3da537" stop-opacity=".97"/><stop offset="1" stop-color="#3aaa35"/></linearGradient><linearGradient id="linear-gradient-4" x1="813.94" y1="542.45" x2="929.64" y2="224.58" gradientUnits="userSpaceOnUse"><stop offset="0" stop-color="#736556" stop-opacity=".5"/><stop offset=".25" stop-color="#9a4263" stop-opacity=".66"/><stop offset=".5" stop-color="#bb256f" stop-opacity=".8"/><stop offset=".71" stop-color="#d21177" stop-opacity=".9"/><stop offset=".88" stop-color="#e0047c" stop-opacity=".96"/><stop offset="1" stop-color="#e6007e" stop-opacity=".98"/></linearGradient><linearGradient id="linear-gradient-5" x1="373.57" y1="509.41" x2="285.5" y2="180.72" gradientUnits="userSpaceOnUse"><stop offset="0" stop-color="#736556" stop-opacity=".5"/><stop offset=".09" stop-color="#83754d" stop-opacity=".56"/><stop offset=".33" stop-color="#ae9e37" stop-opacity=".72"/><stop offset=".54" stop-color="#cfbe26" stop-opacity=".84"/><stop offset=".74" stop-color="#e7d61a" stop-opacity=".93"/><stop offset=".9" stop-color="#f6e412" stop-opacity=".98"/><stop offset="1" stop-color="#fcea10"/></linearGradient><linearGradient id="linear-gradient-6" x1="874.02" y1="901.4" x2="1102.7" y2="273.1" gradientUnits="userSpaceOnUse"><stop offset="0" stop-color="#736556" stop-opacity=".5"/><stop offset=".1" stop-color="#85774a" stop-opacity=".57"/><stop offset=".33" stop-color="#b0a030" stop-opacity=".72"/><stop offset=".55" stop-color="#d2c11b" stop-opacity=".84"/><stop offset=".74" stop-color="#ead90c" stop-opacity=".93"/><stop offset=".9" stop-color="#f9e703" stop-opacity=".98"/><stop offset="1" stop-color="#ffed00"/></linearGradient><linearGradient id="linear-gradient-7" x1="295.58" y1="658.89" x2="122.53" y2="13.08" gradientTransform="translate(52.23 242.6) rotate(-.59) scale(.98 .94) skewX(-1.17)" gradientUnits="userSpaceOnUse"><stop offset="0" stop-color="#736556" stop-opacity=".5"/><stop offset=".01" stop-color="#726658" stop-opacity=".51"/><stop offset=".27" stop-color="#637c87" stop-opacity=".68"/><stop offset=".5" stop-color="#588eac" stop-opacity=".81"/><stop offset=".7" stop-color="#4f9bc6" stop-opacity=".91"/><stop offset=".86" stop-color="#4aa3d7" stop-opacity=".96"/><stop offset=".97" stop-color="#49a6dd" stop-opacity=".99"/><stop offset=".99" stop-color="#2a80c3" stop-opacity="1"/><stop offset="1" stop-color="#1d71b8"/></linearGradient></defs><polygon class="cls-14" points="-3.61 18.34 1214.97 18.34 1214.97 372.38 -3.61 363.16 -3.61 18.34"/><path class="cls-11" d="M24.83,1100.7c28.38,4.73,57.56,2.97,86.18,2.18,30.92-.86,61.89-.47,92.82-.85,32.01-.4,64.03-.97,96.04-1.5,64.29-1.06,128.6-1.93,192.9-.72,64.78,1.21,129.35,6.88,194.13,7.46,64.15,.57,128.28-1.93,192.43-2,65.08-.07,130.16,.81,195.25,.57,24.33-.09,49-1.85,73.28-.23,18.08,1.2,36.35,3.54,54.49,2.37,3.26-.21,7.15-.35,10.39-1.54V358.06c-128.51-50.3-341.61-115.55-611.57-116.22-274.29-.68-490.61,65.62-619.91,116.22v717.34c9.13,15.84,25.57,22.3,43.58,25.31Z"/><path class="cls-8" d="M522.81,255.45s-16.42-94.88,77.19-90.66c93.61,4.22,69.47,95.69,69.47,95.69l-146.67-5.03Z"/><path class="cls-3" d="M538.95,252.63s-13.71-79.22,64.45-75.7c78.16,3.52,58.01,79.9,58.01,79.9l-122.46-4.2Z"/><path class="cls-2" d="M554.5,252.59s-12.06-61.77,42.27-61.86c54.34-.09,42.82,60.68,42.82,60.68l-85.09,1.17Z"/><path class="cls-4" d="M568.52,241.83s4.11-52.18,34.91-37.86,20.28,37.86,20.28,37.86h-55.19Z"/><path class="cls-7" d="M-29.05,1001.64c.84,22.49-1.3,47.72,7.86,68.9,8.4,19.42,26.27,26.87,46.02,30.16,28.38,4.73,57.56,2.97,86.18,2.18,30.92-.86,61.89-.47,92.82-.85,32.01-.4,64.03-.97,96.04-1.5,64.29-1.06,128.6-1.93,192.9-.72,64.78,1.21,129.35,6.88,194.13,7.46,64.15,.57,128.28-1.93,192.43-2,65.08-.07,130.16,.81,195.25,.57,24.33-.09,49-1.85,73.28-.23,18.08,1.2,36.35,3.54,54.49,2.37,5.73-.37,13.4-.52,16.08-6.53,3.63-8.16,1.87-19.03,1.32-27.64-.72-11.44,.14-22.75,.61-34.19,.64-15.61,1.18-31.22,1.82-46.82,1.4-34.06,3.36-68.27,7.91-102.07-217.87-335.32-480.37-632.68-480.37-632.68-132.05-57.58-294.91,0-294.91,0C287.27,346.59,83.13,728.88-30.45,964.69c.44,12.32,.94,24.64,1.4,36.95Z"/><path class="cls-12" d="M589.53,265.76l4.75-28.2s9.7-3.54,17.95-.4v28.6h-22.7Z"/><path class="cls-12" d="M591.7,331.43h27.52s15.82,94.93,10.32,99.75-58.47,0-58.47,0c0,0,7.57-54.34,20.64-99.75Z"/><path class="cls-12" d="M572.6,550.55s55.98-5.5,70.64,0c0,0,59.37,185.04,62.81,242.14,0,0-144.46-18.57-211.18,0,0,0,41.96-168.54,77.73-242.14Z"/><path class="cls-12" d="M492.76,1099.81c64.78,1.21,129.35,6.88,194.13,7.46,22.25,.2,44.49,.03,66.73-.29-20.53-63.03-35.09-104.48-35.09-104.48-75.67-24.76-247.64,0-247.64,0-12.29,28.24-24.37,61.05-36.1,96.75,19.32,.04,38.65,.2,57.97,.56Z"/><path class="cls-1" d="M501.55,284.94c-22.1,18.16-52.43,25.1-87.44,25.68-1.31-51.68-2.62-103.35-3.93-155.03,3.73-.87,7.45-1.75,11.18-2.62,26.73,43.99,53.46,87.98,80.19,131.97Z"/><path class="cls-13" d="M759.5,320.7c-28.43,3.09-57.62-7.71-87.23-26.39,27.2-43.96,54.4-87.91,81.61-131.87,3.6,1.31,7.19,2.62,10.79,3.93-1.72,51.45-3.45,102.89-5.17,154.34Z"/><path class="cls-15" d="M913.57,555.44c-61.28,6.66-124.18-16.62-188-56.89,58.63-94.74,117.26-189.49,175.89-284.23,7.75,2.82,15.51,5.65,23.26,8.47-3.71,110.88-7.43,221.76-11.14,332.65Z"/><path class="cls-9" d="M275.15,521.36c61.28,6.66,124.18-16.62,188-56.89-58.63-94.74-117.26-189.49-175.89-284.23-7.75,2.82-15.51,5.65-23.26,8.47,3.71,110.88,7.43,221.76,11.14,332.65Z"/><g><polygon class="cls-6" points="426.08 151.42 423.68 142.96 394.69 151.15 390.89 151.15 390.89 160.08 392.57 160.08 392.57 262.46 389.43 265.09 389.43 317.63 405.48 317.63 405.48 265.09 402.35 262.55 402.35 160.08 404.02 160.08 404.02 157.65 407.68 156.62 408.32 158.88 424.35 154.35 423.71 152.09 426.08 151.42"/><path class="cls-7" d="M383.47,321.56s.62-10.72,3.71-15.46c0,0-3.65,9.85,4.78,12.45,0,0,4.82-7.33,5.17-10.87,.35-3.54,1.59,11.83,1.59,11.83l10.07-16.31,1.15,21.64-26.49-3.27Z"/></g><g><polygon class="cls-6" points="748.75 160.63 751.21 152.16 781.03 160.36 784.94 160.36 784.94 169.29 783.22 169.29 783.22 271.66 786.44 274.3 786.44 326.84 769.93 326.84 769.93 274.3 773.16 271.76 773.16 169.29 771.43 169.29 771.43 166.86 767.67 165.83 767.02 168.09 750.52 163.55 751.18 161.29 748.75 160.63"/><path class="cls-7" d="M786.44,328.83s-.96-6.98-3.52-10c0,0,3.22,6.35-3.08,8.21,0,0-4-4.68-4.42-6.98s-.68,7.74-.68,7.74l-8.4-10.43,.09,14.13,20.01-2.67Z"/></g><g><polygon class="cls-6" points="890.96 204.09 896.41 185.38 962.37 203.51 971.03 203.51 971.03 223.25 967.21 223.25 967.21 449.71 974.35 455.54 974.35 571.77 937.82 571.77 937.82 455.54 944.96 449.92 944.96 223.25 941.14 223.25 941.14 217.89 932.82 215.6 931.37 220.6 894.88 210.57 896.34 205.57 890.96 204.09"/><path class="cls-7" d="M974.99,574.07s-1.9-13.85-7-19.86c0,0,6.39,12.6-6.12,16.3,0,0-7.94-9.29-8.78-13.87-.85-4.57-1.35,15.38-1.35,15.38l-16.69-20.71,.19,28.06,39.75-5.3Z"/></g><path class="cls-5" d="M1060.16,923.14c-115.04,15.38-232-27.95-350.04-104.59,113.39-188.17,226.79-376.34,340.18-564.51,14.42,5.25,28.83,10.5,43.25,15.75-11.13,217.79-22.26,435.57-33.39,653.36Z"/><g><polygon class="cls-6" points="297.05 177.67 291.76 158.95 227.63 177.08 219.21 177.08 219.21 196.82 222.93 196.82 222.93 423.29 215.99 429.12 215.99 545.34 251.5 545.34 251.5 429.12 244.56 423.49 244.56 196.82 248.27 196.82 248.27 191.46 256.35 189.18 257.77 194.18 293.24 184.15 291.82 179.15 297.05 177.67"/><path class="cls-7" d="M203.45,548.08s4.1-21.09,11.49-29.64c0,0-9.86,18.55,6.16,25.95,0,0,11.5-13.24,13.14-20.18,1.64-6.93,0,23.87,0,23.87l24.32-29.64-3.49,43.2-51.63-13.55Z"/></g><path class="cls-10" d="M494.31,771.74c-82.25,77-199.54,110.82-336.71,120.15-17.69-206.34-35.38-412.69-53.07-619.03,14.41-4.24,28.81-8.48,43.21-12.72,115.52,170.53,231.04,341.07,346.57,511.6Z"/><g><polygon class="cls-6" points="171.73 250.95 161.69 215.46 40.09 249.84 24.13 249.84 24.13 287.28 31.17 287.28 31.17 716.73 18.01 727.78 18.01 948.19 85.35 948.19 85.35 727.78 72.19 717.12 72.19 287.28 79.23 287.28 79.23 277.11 94.56 272.78 97.24 282.25 164.5 263.24 161.82 253.76 171.73 250.95"/><path class="cls-7" d="M9.79,960.17s6.1-31.39,17.1-44.13c0,0-14.68,27.62,9.17,38.63,0,0,17.13-19.71,19.57-30.04s0,35.54,0,35.54l36.21-44.13-5.19,64.31-76.86-20.18Z"/></g><g><polygon class="cls-6" points="1028.29 242.45 1038.62 206.95 1163.7 241.33 1180.12 241.33 1180.12 278.77 1172.88 278.77 1172.88 708.22 1186.42 719.28 1186.42 939.69 1117.15 939.69 1117.15 719.28 1130.69 708.62 1130.69 278.77 1123.44 278.77 1123.44 268.6 1107.68 264.27 1104.92 273.75 1035.73 254.73 1038.49 245.25 1028.29 242.45"/><path class="cls-7" d="M1168.73,956.49s4.9-33.1-2.34-49.98c0,0,5.75,32.89-24.03,33.97,0,0-11.29-26.17-10.15-37.23,1.14-11.06-13,34.67-13,34.67l-22.98-57.72-17.91,64.84,90.41,11.44Z"/></g></svg>