<?xml version="1.0" encoding="UTF-8"?><svg xmlns="http://www.w3.org/2000/svg" width="425.04mm" height="206.81mm" xmlns:xlink="http://www.w3.org/1999/xlink" viewBox="0 0 1204.85 586.24"><defs><style>.cls-1{fill:url(#linear-gradient-2);}.cls-2{fill:#f3e639;}.cls-3{fill:#fff;}.cls-4{fill:#f7eb64;}.cls-5{fill:#f49619;}.cls-6{fill:url(#linear-gradient-6);}.cls-7{fill:#3f3f3e;}.cls-8{fill:#1e1b15;}.cls-9{fill:#f8f4bd;}.cls-10{fill:url(#linear-gradient-5);}.cls-11{fill:url(#linear-gradient-7);}.cls-12{fill:#383a25;}.cls-13{fill:#aba3a1;}.cls-14{fill:url(#linear-gradient-3);}.cls-15{fill:url(#linear-gradient);}.cls-16{fill:url(#linear-gradient-4);}</style><linearGradient id="linear-gradient" x1="605.03" y1="114.8" x2="605.03" y2="468.83" gradientUnits="userSpaceOnUse"><stop offset="0" stop-color="#fff" stop-opacity="0"/><stop offset=".18" stop-color="#fafcfd" stop-opacity=".02"/><stop offset=".33" stop-color="#ebf4f9" stop-opacity=".07"/><stop offset=".47" stop-color="#d3e7f2" stop-opacity=".17"/><stop offset=".6" stop-color="#b1d4e8" stop-opacity=".3"/><stop offset=".73" stop-color="#85bcdb" stop-opacity=".48"/><stop offset=".85" stop-color="#4e9ecb" stop-opacity=".69"/><stop offset=".97" stop-color="#0f7bb9" stop-opacity=".94"/><stop offset="1" stop-color="#0073b5"/></linearGradient><linearGradient id="linear-gradient-2" x1="462.56" y1="401.6" x2="421.84" y2="249.66" gradientUnits="userSpaceOnUse"><stop offset="0" stop-color="#3f3f3e" stop-opacity=".2"/><stop offset=".15" stop-color="#62314b" stop-opacity=".37"/><stop offset=".38" stop-color="#90205d" stop-opacity=".59"/><stop offset=".58" stop-color="#b5126b" stop-opacity=".77"/><stop offset=".76" stop-color="#d00875" stop-opacity=".89"/><stop offset=".9" stop-color="#e0027b" stop-opacity=".97"/><stop offset="1" stop-color="#e6007e"/></linearGradient><linearGradient id="linear-gradient-3" x1="716.02" y1="411.13" x2="769.7" y2="263.65" gradientUnits="userSpaceOnUse"><stop offset="0" stop-color="#3f3f3e" stop-opacity=".2"/><stop offset="1" stop-color="#3aaa35"/></linearGradient><linearGradient id="linear-gradient-4" x1="816.7" y1="638.91" x2="932.39" y2="321.03" gradientUnits="userSpaceOnUse"><stop offset="0" stop-color="#3f3f3e" stop-opacity=".2"/><stop offset=".14" stop-color="#60324a" stop-opacity=".36"/><stop offset=".37" stop-color="#8f205c" stop-opacity=".57"/><stop offset=".57" stop-color="#b4126b" stop-opacity=".75"/><stop offset=".75" stop-color="#cf0875" stop-opacity=".87"/><stop offset=".9" stop-color="#e0027b" stop-opacity=".95"/><stop offset="1" stop-color="#e6007e" stop-opacity=".98"/></linearGradient><linearGradient id="linear-gradient-5" x1="376.32" y1="605.86" x2="288.25" y2="277.17" gradientUnits="userSpaceOnUse"><stop offset="0" stop-color="#3f3f3e" stop-opacity=".2"/><stop offset=".21" stop-color="#746f30" stop-opacity=".43"/><stop offset=".42" stop-color="#a49a25" stop-opacity=".63"/><stop offset=".61" stop-color="#cabd1c" stop-opacity=".79"/><stop offset=".77" stop-color="#e5d515" stop-opacity=".9"/><stop offset=".91" stop-color="#f5e411" stop-opacity=".97"/><stop offset="1" stop-color="#fcea10"/></linearGradient><linearGradient id="linear-gradient-6" x1="879.89" y1="987.1" x2="1108.57" y2="358.8" gradientUnits="userSpaceOnUse"><stop offset="0" stop-color="#736556" stop-opacity=".2"/><stop offset=".19" stop-color="#97883f" stop-opacity=".41"/><stop offset=".4" stop-color="#bcac29" stop-opacity=".62"/><stop offset=".6" stop-color="#d8c817" stop-opacity=".78"/><stop offset=".77" stop-color="#eddc0a" stop-opacity=".9"/><stop offset=".91" stop-color="#fae802" stop-opacity=".97"/><stop offset="1" stop-color="#ffed00"/></linearGradient><linearGradient id="linear-gradient-7" x1="276.31" y1="646.83" x2="103.26" y2="1.03" gradientTransform="translate(71.3 347.54) rotate(-.59) scale(.98 .94) skewX(-1.17)" gradientUnits="userSpaceOnUse"><stop offset="0" stop-color="#736556" stop-opacity=".2"/><stop offset=".1" stop-color="#6c6e69" stop-opacity=".32"/><stop offset=".33" stop-color="#608292" stop-opacity=".55"/><stop offset=".54" stop-color="#5691b2" stop-opacity=".74"/><stop offset=".72" stop-color="#4e9cc9" stop-opacity=".87"/><stop offset=".87" stop-color="#4aa3d7" stop-opacity=".96"/><stop offset=".97" stop-color="#49a6dd" stop-opacity=".99"/><stop offset=".99" stop-color="#2a80c3" stop-opacity="1"/><stop offset="1" stop-color="#1d71b8"/></linearGradient></defs><g id="Layer_22"><polygon class="cls-15" points="-13.76 114.8 1223.81 114.8 1223.81 468.83 -13.76 459.61 -13.76 114.8"/><path class="cls-12" d="M-216.82,1206.13c40.7,4.73,82.54,2.97,123.57,2.18,44.34-.86,88.74-.47,133.1-.85,45.91-.4,91.81-.97,137.72-1.5,92.19-1.06,184.42-1.93,276.62-.72,92.89,1.21,185.48,6.88,278.38,7.46,91.99,.57,183.95-1.93,275.93-2,93.33-.07,186.65,.81,279.98,.57,34.89-.09,70.26-1.85,105.08-.23,25.93,1.2,52.12,3.54,78.13,2.37,4.68-.21,10.25-.35,14.9-1.54V463.48c-184.29-50.3-489.87-115.55-876.98-116.22-393.33-.68-703.53,65.62-888.93,116.22v717.34c13.09,15.84,36.66,22.3,62.5,25.31Z"/><path class="cls-9" d="M525.56,351.9s-16.42-94.88,77.19-90.66c93.61,4.22,69.47,95.69,69.47,95.69l-146.67-5.03Z"/><path class="cls-4" d="M541.7,349.08s-13.71-79.22,64.45-75.7c78.16,3.52,58.01,79.9,58.01,79.9l-122.46-4.2Z"/><path class="cls-2" d="M557.25,349.04s-12.06-61.77,42.27-61.86c54.34-.09,42.82,60.68,42.82,60.68l-85.09,1.17Z"/><path class="cls-5" d="M571.27,338.28s4.11-52.18,34.91-37.86,20.28,37.86,20.28,37.86h-55.19Z"/><path class="cls-7" d="M-26.3,1098.1c.84,22.49-1.3,47.72,7.86,68.9,8.4,19.42,26.27,26.87,46.02,30.16,28.38,4.73,57.56,2.97,86.18,2.18,30.92-.86,61.89-.47,92.82-.85,32.01-.4,64.03-.97,96.04-1.5,64.29-1.06,128.6-1.93,192.9-.72,64.78,1.21,129.35,6.88,194.13,7.46,64.15,.57,128.28-1.93,192.43-2,65.08-.07,130.16,.81,195.25,.57,24.33-.09,49-1.85,73.28-.23,18.08,1.2,36.35,3.54,54.49,2.37,5.73-.37,13.4-.52,16.08-6.53,3.63-8.16,1.87-19.03,1.32-27.64-.72-11.44,.14-22.75,.61-34.19,.64-15.61,1.18-31.22,1.82-46.82,1.4-34.06,3.36-68.27,7.91-102.07-217.87-335.32-480.37-632.68-480.37-632.68-132.05-57.58-294.91,0-294.91,0C290.02,443.04,85.89,825.33-27.7,1061.14c.44,12.32,.94,24.64,1.4,36.95Z"/><path class="cls-13" d="M591.49,339.99c.1-.67,.71-4.73,.81-5.4,.09-.59,.67-4.46,.76-5.04,2.68-.31,5.56-.55,8.62-.66,3.58-.14,6.93-.1,10.01,.06-.16,3.59-.32,7.18-.48,10.77-6.57,.09-13.15,.19-19.72,.28Z"/><path class="cls-13" d="M590.56,397.66h27.52s15.82,94.93,10.32,99.75-58.47,0-58.47,0c0,0,7.57-54.34,20.64-99.75Z"/><path class="cls-1" d="M504.3,381.4c-22.1,18.16-52.43,25.1-87.44,25.68-1.31-51.68-2.62-103.35-3.93-155.03,3.73-.87,7.45-1.75,11.18-2.62,26.73,43.99,53.46,87.98,80.19,131.97Z"/><path class="cls-14" d="M762.25,417.15c-28.43,3.09-57.62-7.71-87.23-26.39,27.2-43.96,54.4-87.91,81.61-131.87,3.6,1.31,7.19,2.62,10.79,3.93-1.72,51.45-3.45,102.89-5.17,154.34Z"/><path class="cls-16" d="M916.33,651.89c-61.28,6.66-124.18-16.62-188-56.89,58.63-94.74,117.26-189.49,175.89-284.23,7.75,2.82,15.51,5.65,23.26,8.47-3.71,110.88-7.43,221.76-11.14,332.65Z"/><path class="cls-10" d="M277.9,617.81c61.28,6.66,124.18-16.62,188-56.89-58.63-94.74-117.26-189.49-175.89-284.23-7.75,2.82-15.51,5.65-23.26,8.47,3.71,110.88,7.43,221.76,11.14,332.65Z"/><polygon class="cls-8" points="428.83 247.87 426.44 239.41 397.45 247.61 393.64 247.61 393.64 256.53 395.32 256.53 395.32 358.91 392.18 361.54 392.18 414.09 408.24 414.09 408.24 361.54 405.1 359 405.1 256.53 406.78 256.53 406.78 254.11 410.43 253.07 411.07 255.33 427.11 250.8 426.47 248.54 428.83 247.87"/><path class="cls-7" d="M386.22,418.01s.62-10.72,3.71-15.46c0,0-3.65,9.85,4.78,12.45,0,0,4.82-7.33,5.17-10.87,.35-3.54,1.59,11.83,1.59,11.83l10.07-16.31,1.15,21.64-26.49-3.27Z"/><polygon class="cls-8" points="751.5 257.08 753.96 248.62 783.78 256.81 787.7 256.81 787.7 265.74 785.97 265.74 785.97 368.11 789.2 370.75 789.2 423.29 772.68 423.29 772.68 370.75 775.91 368.21 775.91 265.74 774.18 265.74 774.18 263.31 770.43 262.28 769.77 264.54 753.27 260.01 753.93 257.75 751.5 257.08"/><path class="cls-7" d="M789.2,425.28s-.96-6.98-3.52-10c0,0,3.22,6.35-3.08,8.21,0,0-4-4.68-4.42-6.98s-.68,7.74-.68,7.74l-8.4-10.43,.09,14.13,20.01-2.67Z"/><polygon class="cls-8" points="893.72 300.55 899.16 281.83 965.12 299.96 973.78 299.96 973.78 319.7 969.96 319.7 969.96 546.16 977.1 551.99 977.1 668.22 940.57 668.22 940.57 551.99 947.71 546.37 947.71 319.7 943.89 319.7 943.89 314.34 935.58 312.05 934.12 317.05 897.64 307.02 899.09 302.02 893.72 300.55"/><path class="cls-6" d="M1066.03,1008.84c-115.04,15.38-232-27.95-350.04-104.59,113.39-188.17,226.79-376.34,340.18-564.51,14.42,5.25,28.83,10.5,43.25,15.75-11.13,217.79-22.26,435.57-33.39,653.36Z"/><polygon class="cls-8" points="299.8 274.12 294.51 255.4 230.38 273.53 221.97 273.53 221.97 293.28 225.68 293.28 225.68 519.74 218.74 525.57 218.74 641.8 254.25 641.8 254.25 525.57 247.31 519.95 247.31 293.28 251.02 293.28 251.02 287.91 259.11 285.63 260.52 290.63 295.99 280.6 294.58 275.6 299.8 274.12"/><path class="cls-11" d="M494.69,865.5c-82.25,77-199.54,110.82-336.71,120.15-17.69-206.34-35.38-412.69-53.07-619.03,14.41-4.24,28.81-8.48,43.21-12.72,115.52,170.53,231.04,341.07,346.57,511.6Z"/><polygon class="cls-8" points="174.48 347.41 164.45 311.91 42.85 346.29 26.88 346.29 26.88 383.73 33.92 383.73 33.92 813.18 20.76 824.24 20.76 1044.64 88.11 1044.64 88.11 824.24 74.94 813.57 74.94 383.73 81.98 383.73 81.98 373.56 97.31 369.23 99.99 378.71 167.25 359.69 164.57 350.21 174.48 347.41"/><polygon class="cls-8" points="1031.05 338.9 1041.37 303.4 1166.46 337.79 1182.88 337.79 1182.88 375.22 1175.64 375.22 1175.64 804.67 1189.18 815.73 1189.18 1036.14 1119.9 1036.14 1119.9 815.73 1133.44 805.07 1133.44 375.22 1126.2 375.22 1126.2 365.06 1110.43 360.72 1107.67 370.2 1038.48 351.18 1041.24 341.7 1031.05 338.9"/><g><path class="cls-3" d="M581.82,311.99s-.07-.1-.09-.19c-.02-.09-.03-.17-.03-.26,.02-.06,.05-.09,.11-.09s.09,.03,.1,.09c0,.14,.03,.25,.09,.32,0,.02,.01,.04,.01,.07s0,.05-.02,.07-.04,.03-.07,.03-.06-.01-.09-.04Zm.44-.44c0,.14,.03,.25,.09,.32,0,.02,.01,.04,.01,.07s0,.05-.03,.07-.04,.03-.08,.03c-.08,0-.14-.08-.17-.23-.02-.08-.03-.16-.03-.25,.02-.06,.05-.09,.11-.09s.09,.03,.1,.09Z"/><path class="cls-3" d="M584.08,311.76s.06,.01,.09,.04c.03,.03,.04,.06,.04,.09,0,.78,0,1.25,.01,1.42,0,.16,.01,.25,.01,.25,0,.04-.01,.09-.04,.12-.02,.04-.05,.06-.08,.06s-.05,0-.07,0c-.01,0-.03,0-.04-.01-.01,0-.02-.01-.04-.02l-.03-.03s-.02-.02-.03-.05c-.01-.02-.02-.04-.03-.06,0-.01-.02-.04-.04-.07-.02-.04-.05-.11-.11-.21-.06-.11-.11-.21-.15-.29-.16-.29-.3-.52-.44-.69,0,.65-.02,1.1-.05,1.35,0,.05-.04,.07-.11,.07-.03,0-.06,0-.08-.02-.02-.02-.03-.04-.03-.08s0-.23,.02-.59,.02-.58,.02-.67v-.17c0-.14,.01-.22,.03-.24,.02-.02,.04-.03,.07-.03,.11,0,.28,.18,.5,.54,.04,.07,.13,.22,.25,.44,.12,.22,.2,.36,.22,.41l-.04-1.25c0-.17,.02-.27,.06-.29,.02-.01,.05-.02,.08-.02Z"/><path class="cls-3" d="M584.76,312.37s.05-.03,.08-.03,.05,0,.06,.02c.01,.01,.02,.02,.03,.03,0,0,0,.02,.01,.04-.01,.16-.02,.3-.02,.42s.01,.27,.04,.43,.06,.24,.1,.24c.05,0,.12-.03,.21-.09,.08-.06,.14-.12,.18-.19-.02-.29-.04-.53-.04-.74,0-.04,.01-.08,.04-.11s.06-.04,.1-.04c.06,0,.09,.04,.09,.13,0,.14,.01,.35,.03,.63,.02,.28,.04,.46,.06,.53,0,.02,0,.03,0,.06s-.01,.04-.04,.06c-.03,.02-.06,.03-.1,.03s-.07-.02-.09-.07c0-.04-.01-.1-.03-.18-.14,.15-.28,.22-.42,.22-.07,0-.12-.02-.18-.07s-.09-.12-.12-.2c-.05-.17-.08-.32-.08-.47s0-.33,.02-.54c0-.03,.02-.06,.05-.09Z"/><path class="cls-3" d="M588.21,313.61c0,.09-.04,.14-.13,.14-.04,0-.08-.09-.15-.27-.06-.18-.15-.31-.25-.41,0,.01-.05,.05-.13,.12s-.12,.1-.13,.12v.3s0,.05-.02,.07-.02,.03-.04,.04c-.02,.01-.05,.02-.09,.02-.05,0-.08-.03-.08-.1,0-.19,0-.47-.02-.87-.02-.39-.02-.74-.02-1.05,0-.04,.02-.07,.05-.09,.03-.02,.06-.03,.1-.03,.05,0,.07,.03,.08,.09v.53c0,.06,0,.11,0,.14s0,.08,0,.14c0,.13,.01,.28,.02,.45,.06-.04,.13-.11,.22-.21s.16-.18,.21-.24c.07-.11,.14-.17,.2-.17,.02,0,.03,0,.05,.01,.04,.02,.06,.05,.06,.08s-.01,.07-.04,.13c-.07,.12-.16,.24-.25,.34,.09,.1,.18,.24,.27,.43,.05,.12,.08,.21,.08,.28Z"/><path class="cls-3" d="M589.49,312.34c.09,0,.13,.07,.13,.22v.26c0,.07,0,.13,0,.2l.04,.68c0,.05-.05,.07-.15,.07h-.04s-.04,0-.05-.03c0-.02,0-.04,0-.07,0-.03,0-.05,0-.09-.09,.1-.21,.15-.37,.15-.28,0-.42-.22-.42-.65,0-.24,.04-.42,.14-.55,.09-.12,.22-.19,.39-.19,.08,0,.16,.01,.24,.04,.03-.04,.06-.05,.11-.05Zm-.31,.27c-.11,0-.2,.03-.25,.1-.06,.07-.08,.19-.08,.36,0,.3,.08,.44,.24,.44,.04,0,.09-.02,.14-.06,.05-.04,.09-.08,.11-.13,.04-.11,.06-.23,.06-.35s-.02-.22-.05-.28c-.03-.06-.08-.09-.16-.09Z"/><path class="cls-3" d="M590.22,313.65l-.03-1.22s.01-.07,.04-.09c.03-.02,.05-.04,.08-.04,.06,0,.1,.03,.11,.08,0,.05,.01,.11,.01,.17,.11-.14,.24-.21,.41-.21,.25,0,.37,.28,.37,.85v.24c0,.1,0,.18-.02,.23-.01,.06-.06,.09-.13,.09-.05,0-.07-.03-.07-.1v-.17c0-.23,0-.39-.02-.48s-.03-.15-.04-.2c-.03-.11-.09-.16-.17-.16-.1,0-.17,.04-.21,.11-.04,.08-.07,.17-.08,.28-.01,.19-.02,.38-.02,.59,0,.04-.01,.07-.04,.1s-.07,.04-.11,.04c-.05,0-.08-.03-.08-.1Z"/><path class="cls-3" d="M592.85,312.37s.07-.03,.12-.03,.08,.03,.09,.07c.03,.25,.04,.48,.04,.7s0,.44-.02,.66-.05,.39-.1,.51c-.07,.16-.19,.24-.37,.24-.09,0-.17-.03-.23-.08-.07-.06-.1-.12-.1-.2,0-.04,.01-.07,.04-.1s.06-.03,.1-.03,.06,0,.08,.03c.02,.02,.03,.04,.04,.06,.02,.06,.05,.09,.1,.09s.09-.04,.13-.12c.04-.08,.06-.18,.07-.32,.01-.13,.02-.28,.02-.43,0-.47-.01-.79-.04-.97,0-.03,0-.06,.03-.08Zm.06-.51s.07,.02,.1,.05c.03,.03,.05,.07,.05,.11s-.02,.07-.05,.11c-.04,.04-.07,.06-.11,.06s-.07-.02-.1-.05c-.03-.03-.05-.07-.05-.12,0-.1,.05-.15,.16-.16h0Z"/><path class="cls-3" d="M594.1,312.35c.11,0,.21,.03,.3,.09,.1,.06,.14,.14,.14,.23s-.04,.18-.12,.26-.18,.14-.31,.15c-.06,0-.14,.01-.25,.01,.02,.17,.07,.28,.13,.34,.02,.02,.05,.03,.08,.03,.12,0,.23-.04,.31-.12s.14-.12,.18-.12c.02,0,.04,.01,.07,.04s.05,.06,.05,.08c0,.05-.06,.13-.19,.23-.06,.05-.12,.08-.2,.12s-.15,.05-.22,.05c-.17,0-.3-.11-.38-.34-.05-.14-.08-.29-.08-.46s.04-.31,.12-.43c.08-.12,.2-.18,.37-.18Zm.01,.21c-.08,0-.14,.04-.19,.13-.02,.03-.04,.1-.06,.2,.28,0,.42-.07,.42-.21,0-.08-.06-.13-.17-.13Z"/><path class="cls-3" d="M595.99,313.62c-.07,.08-.16,.13-.27,.13s-.21-.03-.29-.1c-.17-.13-.25-.33-.25-.6,0-.21,.06-.38,.17-.51s.26-.19,.43-.19,.29,.06,.35,.17c.05,.1,.08,.26,.08,.46v.25c0,.12,0,.28,0,.48,.01,.21,.02,.36,.02,.46,0,.17-.04,.3-.13,.38s-.21,.12-.39,.12c-.1,0-.21-.02-.32-.07-.11-.04-.16-.1-.16-.15,0-.04,.01-.07,.04-.1,.02-.02,.05-.03,.08-.03s.1,.02,.2,.07c.1,.04,.18,.07,.23,.07,.14,0,.22-.12,.22-.35s0-.4-.01-.49Zm0-.63c0-.15-.02-.25-.06-.31s-.11-.09-.2-.09-.17,.04-.22,.13c-.06,.08-.08,.19-.08,.32s.03,.23,.08,.31c.05,.08,.13,.11,.24,.11s.18-.05,.21-.14c.02-.08,.04-.19,.04-.33Z"/><path class="cls-3" d="M597.69,311.8c0-.08,.02-.12,.04-.15,.02-.02,.05-.03,.09-.03,.09,0,.13,.04,.13,.1,0,.05,0,.2-.01,.42s-.01,.43-.01,.61,0,.32,.02,.43c.02,.19,.06,.29,.1,.29s.08-.03,.1-.09c.01-.02,.03-.05,.05-.06,.02-.02,.05-.03,.08-.03,.07,0,.1,.06,.1,.18,0,.06-.03,.13-.1,.19s-.14,.09-.21,.09-.12-.01-.16-.03-.07-.06-.1-.1c-.03-.05-.04-.09-.06-.13-.01-.04-.03-.1-.03-.16-.01-.1-.02-.26-.03-.48s0-.43,0-.63,0-.34,0-.41Z"/><path class="cls-3" d="M599.19,312.35c.11,0,.21,.03,.3,.09,.1,.06,.14,.14,.14,.23s-.04,.18-.12,.26-.18,.14-.31,.15c-.06,0-.14,.01-.25,.01,.02,.17,.07,.28,.13,.34,.02,.02,.05,.03,.08,.03,.12,0,.23-.04,.31-.12s.14-.12,.18-.12c.02,0,.04,.01,.07,.04s.05,.06,.05,.08c0,.05-.06,.13-.19,.23-.06,.05-.12,.08-.2,.12s-.15,.05-.22,.05c-.17,0-.3-.11-.38-.34-.05-.14-.08-.29-.08-.46s.04-.31,.12-.43c.08-.12,.2-.18,.37-.18Zm.01,.21c-.08,0-.14,.04-.19,.13-.02,.03-.04,.1-.06,.2,.28,0,.42-.07,.42-.21,0-.08-.06-.13-.17-.13Z"/><path class="cls-3" d="M601.2,312.33s.05,0,.06,.03c.01,.02,.02,.04,.02,.06v.03c-.09,.21-.15,.39-.19,.52-.03,.09-.04,.16-.06,.21-.01,.05-.04,.13-.06,.24-.03,.12-.05,.19-.06,.23-.03,.07-.08,.1-.15,.1-.03,0-.06-.02-.07-.07-.06-.2-.16-.43-.28-.68s-.19-.4-.21-.43c-.02-.04-.03-.07-.03-.1s.01-.06,.04-.09c.03-.03,.06-.04,.09-.04s.06,.02,.09,.05c.02,.04,.08,.17,.19,.37,.1,.2,.17,.36,.22,.48,0-.01,0-.04,.02-.07,.1-.35,.18-.61,.25-.76,.03-.05,.08-.08,.13-.08Z"/><path class="cls-3" d="M602.13,312.35c.11,0,.21,.03,.3,.09,.1,.06,.14,.14,.14,.23s-.04,.18-.12,.26-.18,.14-.31,.15c-.06,0-.14,.01-.25,.01,.02,.17,.07,.28,.13,.34,.02,.02,.05,.03,.08,.03,.12,0,.23-.04,.31-.12s.14-.12,.18-.12c.02,0,.04,.01,.07,.04s.05,.06,.05,.08c0,.05-.06,.13-.19,.23-.06,.05-.12,.08-.2,.12s-.15,.05-.22,.05c-.17,0-.3-.11-.38-.34-.05-.14-.08-.29-.08-.46s.04-.31,.12-.43c.08-.12,.2-.18,.37-.18Zm.01,.21c-.08,0-.14,.04-.19,.13-.02,.03-.04,.1-.06,.2,.28,0,.42-.07,.42-.21,0-.08-.06-.13-.17-.13Z"/><path class="cls-3" d="M604.11,311.8c0-.08,.02-.12,.04-.15,.02-.02,.05-.03,.09-.03,.09,0,.13,.04,.13,.1,0,.05,0,.2-.01,.42s-.01,.43-.01,.61,0,.32,.02,.43c.02,.19,.06,.29,.1,.29s.08-.03,.1-.09c.01-.02,.03-.05,.05-.06,.02-.02,.05-.03,.08-.03,.07,0,.1,.06,.1,.18,0,.06-.03,.13-.1,.19s-.14,.09-.21,.09-.12-.01-.16-.03-.07-.06-.1-.1c-.03-.05-.04-.09-.06-.13-.01-.04-.03-.1-.03-.16-.01-.1-.02-.26-.03-.48s0-.43,0-.63,0-.34,0-.41Z"/><path class="cls-3" d="M605.39,311.85s.07,.02,.1,.05,.05,.07,.05,.11-.02,.07-.05,.11-.07,.06-.11,.06-.07-.02-.1-.05-.05-.07-.05-.12c0-.1,.05-.15,.16-.16h0Zm.13,1.57v.21s-.01,.07-.04,.09c-.03,.02-.06,.04-.1,.04-.05,0-.08-.03-.08-.07-.03-.64-.04-.99-.04-1.06s0-.15,0-.25c0-.04,.03-.05,.07-.05,.11,0,.17,.04,.18,.13,0,.04,0,.08,0,.1v.19s-.01,.67-.01,.67Z"/><path class="cls-3" d="M607.1,312.33s.05,0,.06,.03c.01,.02,.02,.04,.02,.06v.03c-.09,.21-.15,.39-.19,.52-.03,.09-.04,.16-.06,.21-.01,.05-.04,.13-.06,.24-.03,.12-.05,.19-.06,.23-.03,.07-.08,.1-.15,.1-.03,0-.06-.02-.07-.07-.06-.2-.16-.43-.28-.68s-.19-.4-.21-.43c-.02-.04-.03-.07-.03-.1s.01-.06,.04-.09c.03-.03,.06-.04,.09-.04s.06,.02,.09,.05c.02,.04,.08,.17,.19,.37,.1,.2,.17,.36,.22,.48,0-.01,0-.04,.02-.07,.1-.35,.18-.61,.25-.76,.03-.05,.08-.08,.13-.08Z"/><path class="cls-3" d="M608.03,312.35c.11,0,.21,.03,.3,.09,.1,.06,.14,.14,.14,.23s-.04,.18-.12,.26-.18,.14-.31,.15c-.06,0-.14,.01-.25,.01,.02,.17,.07,.28,.13,.34,.02,.02,.05,.03,.08,.03,.12,0,.23-.04,.31-.12s.14-.12,.18-.12c.02,0,.04,.01,.07,.04s.05,.06,.05,.08c0,.05-.06,.13-.19,.23-.06,.05-.12,.08-.2,.12s-.15,.05-.22,.05c-.17,0-.3-.11-.38-.34-.05-.14-.08-.29-.08-.46s.04-.31,.12-.43c.08-.12,.2-.18,.37-.18Zm.01,.21c-.08,0-.14,.04-.19,.13-.02,.03-.04,.1-.06,.2,.28,0,.42-.07,.42-.21,0-.08-.06-.13-.17-.13Z"/><path class="cls-3" d="M609.14,312.34h.15s.05,0,.06,0v-.62s.02-.06,.05-.09c.03-.02,.06-.04,.09-.04s.05,0,.07,.03c.02,.02,.02,.05,.02,.08,0,.04,0,.25,0,.62h.35c.06-.01,.09,.02,.09,.09,0,.05-.02,.09-.05,.12-.03,.03-.06,.04-.1,.04-.04,0-.07,0-.1,0h-.18c0,.08,0,.24,.03,.48,.02,.24,.03,.4,.04,.47s.01,.12,0,.14-.02,.04-.03,.04c-.03,.01-.06,.02-.1,.02s-.07-.02-.08-.07c-.04-.26-.07-.62-.08-1.08-.02,0-.09,0-.21,0s-.18-.03-.18-.1c0-.1,.06-.15,.17-.15Z"/><path class="cls-3" d="M611.53,311.85s.07,.02,.1,.05,.05,.07,.05,.11-.02,.07-.05,.11-.07,.06-.11,.06-.07-.02-.1-.05-.05-.07-.05-.12c0-.1,.05-.15,.16-.16h0Zm.13,1.57v.21s-.01,.07-.04,.09c-.03,.02-.06,.04-.1,.04-.05,0-.08-.03-.08-.07-.03-.64-.04-.99-.04-1.06s0-.15,0-.25c0-.04,.03-.05,.07-.05,.11,0,.17,.04,.18,.13,0,.04,0,.08,0,.1v.19s-.01,.67-.01,.67Z"/><path class="cls-3" d="M613.13,313.62c-.07,.08-.16,.13-.27,.13s-.21-.03-.29-.1c-.17-.13-.25-.33-.25-.6,0-.21,.06-.38,.17-.51s.26-.19,.43-.19,.29,.06,.35,.17c.05,.1,.08,.26,.08,.46v.25c0,.12,0,.28,0,.48,.01,.21,.02,.36,.02,.46,0,.17-.04,.3-.13,.38s-.21,.12-.39,.12c-.1,0-.21-.02-.32-.07-.11-.04-.16-.1-.16-.15,0-.04,.01-.07,.04-.1,.02-.02,.05-.03,.08-.03s.1,.02,.2,.07c.1,.04,.18,.07,.23,.07,.14,0,.22-.12,.22-.35s0-.4-.01-.49Zm0-.63c0-.15-.02-.25-.06-.31s-.11-.09-.2-.09-.17,.04-.22,.13c-.06,.08-.08,.19-.08,.32s.03,.23,.08,.31c.05,.08,.13,.11,.24,.11s.18-.05,.21-.14c.02-.08,.04-.19,.04-.33Z"/><path class="cls-3" d="M614.31,312.35c.11,0,.21,.03,.3,.09,.1,.06,.14,.14,.14,.23s-.04,.18-.12,.26-.18,.14-.31,.15c-.06,0-.14,.01-.25,.01,.02,.17,.07,.28,.13,.34,.02,.02,.05,.03,.08,.03,.12,0,.23-.04,.31-.12s.14-.12,.18-.12c.02,0,.04,.01,.07,.04s.05,.06,.05,.08c0,.05-.06,.13-.19,.23-.06,.05-.12,.08-.2,.12s-.15,.05-.22,.05c-.17,0-.3-.11-.38-.34-.05-.14-.08-.29-.08-.46s.04-.31,.12-.43c.08-.12,.2-.18,.37-.18Zm.01,.21c-.08,0-.14,.04-.19,.13-.02,.03-.04,.1-.06,.2,.28,0,.42-.07,.42-.21,0-.08-.06-.13-.17-.13Z"/><path class="cls-3" d="M615.45,313.65l-.03-1.22s.01-.07,.04-.09c.03-.02,.05-.04,.08-.04,.06,0,.1,.03,.11,.08,0,.05,.01,.11,.01,.17,.11-.14,.24-.21,.41-.21,.25,0,.37,.28,.37,.85v.24c0,.1,0,.18-.02,.23-.01,.06-.06,.09-.13,.09-.05,0-.07-.03-.07-.1v-.17c0-.23,0-.39-.02-.48s-.03-.15-.04-.2c-.03-.11-.09-.16-.17-.16-.1,0-.17,.04-.21,.11-.04,.08-.07,.17-.08,.28-.01,.19-.02,.38-.02,.59,0,.04-.01,.07-.04,.1s-.07,.04-.11,.04c-.05,0-.08-.03-.08-.1Z"/><path class="cls-3" d="M617.17,313.38s.08,.02,.11,.05c.03,.03,.05,.08,.06,.13,0,.04-.02,.08-.05,.12-.03,.04-.07,.06-.11,.06s-.08-.01-.12-.03c-.03-.02-.05-.06-.05-.11s.02-.1,.05-.14c.03-.05,.07-.07,.11-.07Z"/><path class="cls-3" d="M582.23,315.43s.02-.04,.05-.06c.03-.02,.06-.03,.09-.03s.05,0,.07,.02c.02,.01,.03,.03,.03,.05,.04,.54,.06,.88,.06,1.02s0,.25,0,.32-.01,.15-.03,.23c-.02,.08-.04,.15-.07,.2-.07,.11-.17,.17-.32,.17s-.26-.05-.36-.15c-.09-.1-.14-.24-.14-.42,0-.03,.01-.06,.05-.08,.03-.02,.06-.04,.1-.04,.04,0,.07,.04,.08,.12,.03,.23,.11,.35,.26,.35,.04,0,.07-.01,.1-.04,.03-.02,.05-.05,.06-.09,.01-.03,.03-.08,.03-.14,.01-.08,.02-.18,.02-.3s-.01-.33-.04-.64c-.03-.31-.04-.48-.04-.5Z"/><path class="cls-3" d="M583.44,315.95c.11,0,.21,.03,.3,.09,.1,.06,.14,.14,.14,.23s-.04,.18-.12,.26-.18,.14-.31,.15c-.06,0-.14,.01-.25,.01,.02,.17,.07,.28,.13,.34,.02,.02,.05,.03,.08,.03,.12,0,.23-.04,.31-.12s.14-.12,.18-.12c.02,0,.04,.01,.07,.04s.05,.06,.05,.08c0,.05-.06,.13-.19,.23-.06,.05-.12,.08-.2,.12s-.15,.05-.22,.05c-.17,0-.3-.11-.38-.34-.05-.14-.08-.29-.08-.46s.04-.31,.12-.43c.08-.12,.2-.18,.37-.18Zm.01,.21c-.08,0-.14,.04-.19,.13-.02,.03-.04,.1-.06,.2,.28,0,.42-.07,.42-.21,0-.08-.06-.13-.17-.13Z"/><path class="cls-3" d="M585.34,317.22c-.07,.08-.16,.13-.27,.13s-.21-.03-.29-.1c-.17-.13-.25-.33-.25-.6,0-.21,.06-.38,.17-.51s.26-.19,.43-.19,.29,.06,.35,.17c.05,.1,.08,.26,.08,.46v.25c0,.12,0,.28,0,.48,.01,.21,.02,.36,.02,.46,0,.17-.04,.3-.13,.38s-.21,.12-.39,.12c-.1,0-.21-.02-.32-.07-.11-.04-.16-.1-.16-.15,0-.04,.01-.07,.04-.1,.02-.02,.05-.03,.08-.03s.1,.02,.2,.07c.1,.04,.18,.07,.23,.07,.14,0,.22-.12,.22-.35s0-.4-.01-.49Zm0-.63c0-.15-.02-.25-.06-.31s-.11-.09-.2-.09-.17,.04-.22,.13c-.06,.08-.08,.19-.08,.32s.03,.23,.08,.31c.05,.08,.13,.11,.24,.11s.18-.05,.21-.14c.02-.08,.04-.19,.04-.33Z"/><path class="cls-3" d="M587.45,315.24s.06-.04,.08-.04c.02,0,.08,0,.16,0s.15,.01,.21,.04c.05,.02,.08,.07,.08,.14s-.03,.11-.09,.11c-.01,0-.05-.01-.1-.03-.06-.02-.09-.03-.11-.03-.07,0-.11,.04-.13,.13,0,.03,0,.09,0,.18v.23h.21c.09,0,.13,.03,.13,.09,0,.08-.06,.13-.18,.13-.02,0-.04,0-.07,0s-.06,0-.09,0c0,.08,.01,.22,.03,.43,.01,.21,.02,.4,.02,.6,0,.04-.02,.07-.05,.1s-.07,.04-.1,.04c-.05,0-.08-.03-.08-.1,0-.18,0-.35-.02-.52-.01-.17-.02-.35-.03-.54-.18,0-.29-.02-.32-.05-.01-.01-.02-.03-.02-.05,0-.05,.02-.09,.06-.1,.04-.02,.09-.02,.15-.02h.12c0-.33,.02-.53,.05-.61,.02-.05,.04-.08,.07-.11Z"/><path class="cls-3" d="M589.21,315.9c.07,0,.11,.02,.11,.07,0,.03-.02,.09-.05,.16,.1,.14,.16,.32,.16,.55,0,.14-.04,.28-.11,.43-.04,.07-.09,.13-.15,.18-.06,.04-.13,.07-.2,.07s-.14-.02-.22-.05c-.04,.07-.07,.11-.11,.11s-.06,0-.08-.02c-.02-.01-.03-.03-.03-.06s.02-.08,.06-.15c-.14-.15-.22-.33-.22-.52,0-.07,.01-.15,.04-.23,.03-.09,.07-.17,.12-.23,.05-.07,.11-.12,.18-.17s.15-.06,.22-.06,.13,.01,.19,.04c.03-.06,.07-.09,.11-.09Zm-.22,.34s-.08-.04-.12-.04-.09,.02-.15,.07c-.09,.09-.14,.2-.14,.34,0,.09,.04,.19,.11,.31l.31-.67Zm.18,.48c0-.1-.02-.19-.05-.29l-.3,.64s.1,.06,.17,.06c.12-.06,.18-.2,.18-.41Z"/><path class="cls-3" d="M589.91,315.4c0-.08,.02-.12,.04-.15,.02-.02,.05-.03,.09-.03,.09,0,.13,.04,.13,.1,0,.05,0,.2-.01,.42s-.01,.43-.01,.61,0,.32,.02,.43c.02,.19,.06,.29,.1,.29s.08-.03,.1-.09c.01-.02,.03-.05,.05-.06,.02-.02,.05-.03,.08-.03,.07,0,.1,.06,.1,.18,0,.06-.03,.13-.1,.19s-.14,.09-.21,.09-.12-.01-.16-.03-.07-.06-.1-.1c-.03-.05-.04-.09-.06-.13-.01-.04-.03-.1-.03-.16-.01-.1-.02-.26-.03-.48s0-.43,0-.63,0-.34,0-.41Z"/><path class="cls-3" d="M591.42,315.95c.11,0,.21,.03,.3,.09,.1,.06,.14,.14,.14,.23s-.04,.18-.12,.26-.18,.14-.31,.15c-.06,0-.14,.01-.25,.01,.02,.17,.07,.28,.13,.34,.02,.02,.05,.03,.08,.03,.12,0,.23-.04,.31-.12s.14-.12,.18-.12c.02,0,.04,.01,.07,.04s.05,.06,.05,.08c0,.05-.06,.13-.19,.23-.06,.05-.12,.08-.2,.12s-.15,.05-.22,.05c-.17,0-.3-.11-.38-.34-.05-.14-.08-.29-.08-.46s.04-.31,.12-.43c.08-.12,.2-.18,.37-.18Zm.01,.21c-.08,0-.14,.04-.19,.13-.02,.03-.04,.1-.06,.2,.28,0,.42-.07,.42-.21,0-.08-.06-.13-.17-.13Z"/><path class="cls-3" d="M592.84,316.9v.31s-.01,.07-.05,.1c-.03,.03-.07,.04-.1,.04-.05,0-.08-.04-.09-.11,0-.02,0-.16-.02-.44s-.04-.49-.08-.65c-.02-.08-.03-.12-.03-.14,0-.07,.04-.1,.12-.1,.03,0,.06,.01,.08,.04,.02,.03,.03,.05,.04,.08,0,.03,0,.06,.01,.11,0,.05,0,.07,0,.09,.04-.1,.1-.18,.19-.23,.08-.05,.18-.07,.28-.07,.16,0,.25,.04,.25,.13,0,.04-.01,.08-.04,.1s-.06,.04-.1,.04c-.17,0-.29,.05-.36,.16-.07,.11-.11,.29-.11,.54Z"/><path class="cls-3" d="M595.01,317.34c-.05,0-.08-.03-.09-.09,0-.4-.02-.76-.07-1.08,0-.04,.01-.08,.04-.11,.03-.03,.06-.05,.1-.05s.06,.02,.08,.06c.07-.1,.17-.15,.3-.15,.16,0,.28,.08,.37,.23,.1-.14,.23-.22,.4-.22s.29,.07,.37,.2c.05,.08,.09,.19,.11,.32,.02,.13,.03,.32,.03,.57,0,.1,0,.17-.03,.22-.02,.05-.06,.08-.13,.08-.05,0-.08-.03-.08-.1v-.38c0-.45-.11-.68-.34-.68-.07,0-.13,.03-.16,.08-.03,.06-.05,.13-.06,.2,0,.12-.01,.23-.01,.33v.43s-.02,.06-.05,.08c-.03,.02-.07,.03-.1,.03-.04,0-.07-.03-.08-.09v-.62c0-.22-.03-.36-.1-.41-.04-.03-.09-.04-.16-.04s-.13,.03-.16,.08c-.04,.05-.05,.14-.05,.26l.02,.56c0,.17-.05,.26-.14,.26Z"/><path class="cls-3" d="M597.34,315.45s.07,.02,.1,.05,.05,.07,.05,.11-.02,.07-.05,.11-.07,.06-.11,.06-.07-.02-.1-.05-.05-.07-.05-.12c0-.1,.05-.15,.16-.16h0Zm.13,1.57v.21s-.01,.07-.04,.09c-.03,.02-.06,.04-.1,.04-.05,0-.08-.03-.08-.07-.03-.64-.04-.99-.04-1.06s0-.15,0-.25c0-.04,.03-.05,.07-.05,.11,0,.17,.04,.18,.13,0,.04,0,.08,0,.1v.19s-.01,.67-.01,.67Z"/><path class="cls-3" d="M598.95,317.22c-.07,.08-.16,.13-.27,.13s-.21-.03-.29-.1c-.17-.13-.25-.33-.25-.6,0-.21,.06-.38,.17-.51s.26-.19,.43-.19,.29,.06,.35,.17c.05,.1,.08,.26,.08,.46v.25c0,.12,0,.28,0,.48,.01,.21,.02,.36,.02,.46,0,.17-.04,.3-.13,.38s-.21,.12-.39,.12c-.1,0-.21-.02-.32-.07-.11-.04-.16-.1-.16-.15,0-.04,.01-.07,.04-.1,.02-.02,.05-.03,.08-.03s.1,.02,.2,.07c.1,.04,.18,.07,.23,.07,.14,0,.22-.12,.22-.35s0-.4-.01-.49Zm0-.63c0-.15-.02-.25-.06-.31s-.11-.09-.2-.09-.17,.04-.22,.13c-.06,.08-.08,.19-.08,.32s.03,.23,.08,.31c.05,.08,.13,.11,.24,.11s.18-.05,.21-.14c.02-.08,.04-.19,.04-.33Z"/><path class="cls-3" d="M601.06,315.24s.06-.04,.08-.04c.02,0,.08,0,.16,0s.15,.01,.21,.04c.05,.02,.08,.07,.08,.14s-.03,.11-.09,.11c-.01,0-.05-.01-.1-.03-.06-.02-.09-.03-.11-.03-.07,0-.11,.04-.13,.13,0,.03,0,.09,0,.18v.23h.21c.09,0,.13,.03,.13,.09,0,.08-.06,.13-.18,.13-.02,0-.04,0-.07,0s-.06,0-.09,0c0,.08,.01,.22,.03,.43,.01,.21,.02,.4,.02,.6,0,.04-.02,.07-.05,.1s-.07,.04-.1,.04c-.05,0-.08-.03-.08-.1,0-.18,0-.35-.02-.52-.01-.17-.02-.35-.03-.54-.18,0-.29-.02-.32-.05-.01-.01-.02-.03-.02-.05,0-.05,.02-.09,.06-.1,.04-.02,.09-.02,.15-.02h.12c0-.33,.02-.53,.05-.61,.02-.05,.04-.08,.07-.11Z"/><path class="cls-3" d="M602.39,316.9v.31s-.01,.07-.05,.1c-.03,.03-.07,.04-.1,.04-.05,0-.08-.04-.09-.11,0-.02,0-.16-.02-.44s-.04-.49-.08-.65c-.02-.08-.03-.12-.03-.14,0-.07,.04-.1,.12-.1,.03,0,.06,.01,.08,.04,.02,.03,.03,.05,.04,.08,0,.03,0,.06,.01,.11,0,.05,0,.07,0,.09,.04-.1,.1-.18,.19-.23,.08-.05,.18-.07,.28-.07,.16,0,.25,.04,.25,.13,0,.04-.01,.08-.04,.1s-.06,.04-.1,.04c-.17,0-.29,.05-.36,.16-.07,.11-.11,.29-.11,.54Z"/><path class="cls-3" d="M603.62,315.45s.07,.02,.1,.05,.05,.07,.05,.11-.02,.07-.05,.11-.07,.06-.11,.06-.07-.02-.1-.05-.05-.07-.05-.12c0-.1,.05-.15,.16-.16h0Zm.13,1.57v.21s-.01,.07-.04,.09c-.03,.02-.06,.04-.1,.04-.05,0-.08-.03-.08-.07-.03-.64-.04-.99-.04-1.06s0-.15,0-.25c0-.04,.03-.05,.07-.05,.11,0,.17,.04,.18,.13,0,.04,0,.08,0,.1v.19s-.01,.67-.01,.67Z"/><path class="cls-3" d="M604.54,316.04c.08-.07,.18-.1,.29-.1s.22,.02,.32,.06c.1,.04,.15,.09,.15,.16,0,.03-.01,.06-.04,.08-.03,.02-.05,.03-.07,.03s-.03,0-.04,0c-.01,0-.05-.02-.12-.06-.07-.04-.13-.05-.19-.05s-.11,.01-.15,.04-.06,.07-.06,.13,.02,.1,.07,.13c.05,.03,.13,.06,.25,.08s.21,.06,.27,.1c.06,.04,.09,.12,.09,.23,0,.17-.04,.28-.13,.35-.09,.07-.19,.1-.32,.1s-.23-.02-.32-.05c-.09-.03-.13-.08-.13-.15,0-.08,.04-.12,.12-.12,.02,0,.06,.01,.13,.04,.07,.03,.14,.04,.2,.04s.12-.02,.15-.06,.05-.09,.05-.15-.02-.1-.07-.12c-.05-.03-.12-.05-.21-.06-.09-.02-.16-.03-.21-.05-.12-.05-.18-.16-.18-.32,0-.12,.04-.21,.13-.28Z"/><path class="cls-3" d="M606.86,317.21c0,.09-.04,.14-.13,.14-.04,0-.08-.09-.15-.27-.06-.18-.15-.31-.25-.41,0,.01-.05,.05-.13,.12s-.12,.1-.13,.12v.3s0,.05-.02,.07-.02,.03-.04,.04c-.02,.01-.05,.02-.09,.02-.05,0-.08-.03-.08-.1,0-.19,0-.47-.02-.87-.02-.39-.02-.74-.02-1.05,0-.04,.02-.07,.05-.09,.03-.02,.06-.03,.1-.03,.05,0,.07,.03,.08,.09v.53c0,.06,0,.11,0,.14s0,.08,0,.14c0,.13,.01,.28,.02,.45,.06-.04,.13-.11,.22-.21s.16-.18,.21-.24c.07-.11,.14-.17,.2-.17,.02,0,.03,0,.05,.01,.04,.02,.06,.05,.06,.08s-.01,.07-.04,.13c-.07,.12-.16,.24-.25,.34,.09,.1,.18,.24,.27,.43,.05,.12,.08,.21,.08,.28Z"/><path class="cls-3" d="M607.52,316.98s.08,.02,.11,.05c.03,.03,.05,.08,.06,.13,0,.04-.02,.08-.05,.12-.03,.04-.07,.06-.11,.06s-.08-.01-.12-.03c-.03-.02-.05-.06-.05-.11s.02-.1,.05-.14c.03-.05,.07-.07,.11-.07Z"/><path class="cls-3" d="M609.78,315.43s.02-.04,.05-.06c.03-.02,.06-.03,.09-.03s.05,0,.07,.02c.02,.01,.03,.03,.03,.05,.04,.54,.06,.88,.06,1.02s0,.25,0,.32-.01,.15-.03,.23c-.02,.08-.04,.15-.07,.2-.07,.11-.17,.17-.32,.17s-.26-.05-.36-.15c-.09-.1-.14-.24-.14-.42,0-.03,.01-.06,.05-.08,.03-.02,.06-.04,.1-.04,.04,0,.07,.04,.08,.12,.03,.23,.11,.35,.26,.35,.04,0,.07-.01,.1-.04,.03-.02,.05-.05,.06-.09,.01-.03,.03-.08,.03-.14,.01-.08,.02-.18,.02-.3s-.01-.33-.04-.64c-.03-.31-.04-.48-.04-.5Z"/><path class="cls-3" d="M610.99,315.95c.11,0,.21,.03,.3,.09,.1,.06,.14,.14,.14,.23s-.04,.18-.12,.26-.18,.14-.31,.15c-.06,0-.14,.01-.25,.01,.02,.17,.07,.28,.13,.34,.02,.02,.05,.03,.08,.03,.12,0,.23-.04,.31-.12s.14-.12,.18-.12c.02,0,.04,.01,.07,.04s.05,.06,.05,.08c0,.05-.06,.13-.19,.23-.06,.05-.12,.08-.2,.12s-.15,.05-.22,.05c-.17,0-.3-.11-.38-.34-.05-.14-.08-.29-.08-.46s.04-.31,.12-.43c.08-.12,.2-.18,.37-.18Zm.01,.21c-.08,0-.14,.04-.19,.13-.02,.03-.04,.1-.06,.2,.28,0,.42-.07,.42-.21,0-.08-.06-.13-.17-.13Z"/><path class="cls-3" d="M612.88,317.22c-.07,.08-.16,.13-.27,.13s-.21-.03-.29-.1c-.17-.13-.25-.33-.25-.6,0-.21,.06-.38,.17-.51s.26-.19,.43-.19,.29,.06,.35,.17c.05,.1,.08,.26,.08,.46v.25c0,.12,0,.28,0,.48,.01,.21,.02,.36,.02,.46,0,.17-.04,.3-.13,.38s-.21,.12-.39,.12c-.1,0-.21-.02-.32-.07-.11-.04-.16-.1-.16-.15,0-.04,.01-.07,.04-.1,.02-.02,.05-.03,.08-.03s.1,.02,.2,.07c.1,.04,.18,.07,.23,.07,.14,0,.22-.12,.22-.35s0-.4-.01-.49Zm0-.63c0-.15-.02-.25-.06-.31s-.11-.09-.2-.09-.17,.04-.22,.13c-.06,.08-.08,.19-.08,.32s.03,.23,.08,.31c.05,.08,.13,.11,.24,.11s.18-.05,.21-.14c.02-.08,.04-.19,.04-.33Z"/><path class="cls-3" d="M582.04,318.84s.06-.04,.08-.04c.02,0,.08,0,.16,0s.15,.01,.21,.04c.05,.02,.08,.07,.08,.14s-.03,.11-.09,.11c-.01,0-.05-.01-.1-.03-.06-.02-.09-.03-.11-.03-.07,0-.11,.04-.13,.13,0,.03,0,.09,0,.18v.23h.21c.09,0,.13,.03,.13,.09,0,.08-.06,.13-.18,.13-.02,0-.04,0-.07,0s-.06,0-.09,0c0,.08,.01,.22,.03,.43,.01,.21,.02,.4,.02,.6,0,.04-.02,.07-.05,.1s-.07,.04-.1,.04c-.05,0-.08-.03-.08-.1,0-.18,0-.35-.02-.52-.01-.17-.02-.35-.03-.54-.18,0-.29-.02-.32-.05-.01-.01-.02-.03-.02-.05,0-.05,.02-.09,.06-.1,.04-.02,.09-.02,.15-.02h.12c0-.33,.02-.53,.05-.61,.02-.05,.04-.08,.07-.11Z"/><path class="cls-3" d="M583.8,319.5c.07,0,.11,.02,.11,.07,0,.03-.02,.09-.05,.16,.1,.14,.16,.32,.16,.55,0,.14-.04,.28-.11,.43-.04,.07-.09,.13-.15,.18-.06,.04-.13,.07-.2,.07s-.14-.02-.22-.05c-.04,.07-.07,.11-.11,.11s-.06,0-.08-.02c-.02-.01-.03-.03-.03-.06s.02-.08,.06-.15c-.14-.15-.22-.33-.22-.52,0-.07,.01-.15,.04-.23,.03-.09,.07-.17,.12-.23,.05-.07,.11-.12,.18-.17s.15-.06,.22-.06,.13,.01,.19,.04c.03-.06,.07-.09,.11-.09Zm-.22,.34s-.08-.04-.12-.04-.09,.02-.15,.07c-.09,.09-.14,.2-.14,.34,0,.09,.04,.19,.11,.31l.31-.67Zm.18,.48c0-.1-.02-.19-.05-.29l-.3,.64s.1,.06,.17,.06c.12-.06,.18-.2,.18-.41Z"/><path class="cls-3" d="M584.5,319c0-.08,.02-.12,.04-.15,.02-.02,.05-.03,.09-.03,.09,0,.13,.04,.13,.1,0,.05,0,.2-.01,.42s-.01,.43-.01,.61,0,.32,.02,.43c.02,.19,.06,.29,.1,.29s.08-.03,.1-.09c.01-.02,.03-.05,.05-.06,.02-.02,.05-.03,.08-.03,.07,0,.1,.06,.1,.18,0,.06-.03,.13-.1,.19s-.14,.09-.21,.09-.12-.01-.16-.03-.07-.06-.1-.1c-.03-.05-.04-.09-.06-.13-.01-.04-.03-.1-.03-.16-.01-.1-.02-.26-.03-.48s0-.43,0-.63,0-.34,0-.41Z"/><path class="cls-3" d="M586.01,319.55c.11,0,.21,.03,.3,.09,.1,.06,.14,.14,.14,.23s-.04,.18-.12,.26-.18,.14-.31,.15c-.06,0-.14,.01-.25,.01,.02,.17,.07,.28,.13,.34,.02,.02,.05,.03,.08,.03,.12,0,.23-.04,.31-.12s.14-.12,.18-.12c.02,0,.04,.01,.07,.04s.05,.06,.05,.08c0,.05-.06,.13-.19,.23-.06,.05-.12,.08-.2,.12s-.15,.05-.22,.05c-.17,0-.3-.11-.38-.34-.05-.14-.08-.29-.08-.46s.04-.31,.12-.43c.08-.12,.2-.18,.37-.18Zm.01,.21c-.08,0-.14,.04-.19,.13-.02,.03-.04,.1-.06,.2,.28,0,.42-.07,.42-.21,0-.08-.06-.13-.17-.13Z"/><path class="cls-3" d="M587.43,320.5v.31s-.01,.07-.05,.1c-.03,.03-.07,.04-.1,.04-.05,0-.08-.04-.09-.11,0-.02,0-.16-.02-.44s-.04-.49-.08-.65c-.02-.08-.03-.12-.03-.14,0-.07,.04-.1,.12-.1,.03,0,.06,.01,.08,.04,.02,.03,.03,.05,.04,.08,0,.03,0,.06,.01,.11,0,.05,0,.07,0,.09,.04-.1,.1-.18,.19-.23,.08-.05,.18-.07,.28-.07,.16,0,.25,.04,.25,.13,0,.04-.01,.08-.04,.1s-.06,.04-.1,.04c-.17,0-.29,.05-.36,.16-.07,.11-.11,.29-.11,.54Z"/><path class="cls-3" d="M589.6,320.94c-.05,0-.08-.03-.09-.09,0-.4-.02-.76-.07-1.08,0-.04,.01-.08,.04-.11,.03-.03,.06-.05,.1-.05s.06,.02,.08,.06c.07-.1,.17-.15,.3-.15,.16,0,.28,.08,.37,.23,.1-.14,.23-.22,.4-.22s.29,.07,.37,.2c.05,.08,.09,.19,.11,.32,.02,.13,.03,.32,.03,.57,0,.1,0,.17-.03,.22-.02,.05-.06,.08-.13,.08-.05,0-.08-.03-.08-.1v-.38c0-.45-.11-.68-.34-.68-.07,0-.13,.03-.16,.08-.03,.06-.05,.13-.06,.2,0,.12-.01,.23-.01,.33v.43s-.02,.06-.05,.08c-.03,.02-.07,.03-.1,.03-.04,0-.07-.03-.08-.09v-.62c0-.22-.03-.36-.1-.41-.04-.03-.09-.04-.16-.04s-.13,.03-.16,.08c-.04,.05-.05,.14-.05,.26l.02,.56c0,.17-.05,.26-.14,.26Z"/><path class="cls-3" d="M591.93,319.05s.07,.02,.1,.05,.05,.07,.05,.11-.02,.07-.05,.11-.07,.06-.11,.06-.07-.02-.1-.05-.05-.07-.05-.12c0-.1,.05-.15,.16-.16h0Zm.13,1.57v.21s-.01,.07-.04,.09c-.03,.02-.06,.04-.1,.04-.05,0-.08-.03-.08-.07-.03-.64-.04-.99-.04-1.06s0-.15,0-.25c0-.04,.03-.05,.07-.05,.11,0,.17,.04,.18,.13,0,.04,0,.08,0,.1v.19s-.01,.67-.01,.67Z"/><path class="cls-3" d="M593.54,320.82c-.07,.08-.16,.13-.27,.13s-.21-.03-.29-.1c-.17-.13-.25-.33-.25-.6,0-.21,.06-.38,.17-.51s.26-.19,.43-.19,.29,.06,.35,.17c.05,.1,.08,.26,.08,.46v.25c0,.12,0,.28,0,.48,.01,.21,.02,.36,.02,.46,0,.17-.04,.3-.13,.38s-.21,.12-.39,.12c-.1,0-.21-.02-.32-.07-.11-.04-.16-.1-.16-.15,0-.04,.01-.07,.04-.1,.02-.02,.05-.03,.08-.03s.1,.02,.2,.07c.1,.04,.18,.07,.23,.07,.14,0,.22-.12,.22-.35s0-.4-.01-.49Zm0-.63c0-.15-.02-.25-.06-.31s-.11-.09-.2-.09-.17,.04-.22,.13c-.06,.08-.08,.19-.08,.32s.03,.23,.08,.31c.05,.08,.13,.11,.24,.11s.18-.05,.21-.14c.02-.08,.04-.19,.04-.33Z"/><path class="cls-3" d="M595.65,318.84s.06-.04,.08-.04c.02,0,.08,0,.16,0s.15,.01,.21,.04c.05,.02,.08,.07,.08,.14s-.03,.11-.09,.11c-.01,0-.05-.01-.1-.03-.06-.02-.09-.03-.11-.03-.07,0-.11,.04-.13,.13,0,.03,0,.09,0,.18v.23h.21c.09,0,.13,.03,.13,.09,0,.08-.06,.13-.18,.13-.02,0-.04,0-.07,0s-.06,0-.09,0c0,.08,.01,.22,.03,.43,.01,.21,.02,.4,.02,.6,0,.04-.02,.07-.05,.1s-.07,.04-.1,.04c-.05,0-.08-.03-.08-.1,0-.18,0-.35-.02-.52-.01-.17-.02-.35-.03-.54-.18,0-.29-.02-.32-.05-.01-.01-.02-.03-.02-.05,0-.05,.02-.09,.06-.1,.04-.02,.09-.02,.15-.02h.12c0-.33,.02-.53,.05-.61,.02-.05,.04-.08,.07-.11Z"/><path class="cls-3" d="M596.98,320.5v.31s-.01,.07-.05,.1c-.03,.03-.07,.04-.1,.04-.05,0-.08-.04-.09-.11,0-.02,0-.16-.02-.44s-.04-.49-.08-.65c-.02-.08-.03-.12-.03-.14,0-.07,.04-.1,.12-.1,.03,0,.06,.01,.08,.04,.02,.03,.03,.05,.04,.08,0,.03,0,.06,.01,.11,0,.05,0,.07,0,.09,.04-.1,.1-.18,.19-.23,.08-.05,.18-.07,.28-.07,.16,0,.25,.04,.25,.13,0,.04-.01,.08-.04,.1s-.06,.04-.1,.04c-.17,0-.29,.05-.36,.16-.07,.11-.11,.29-.11,.54Z"/><path class="cls-3" d="M598.21,319.05s.07,.02,.1,.05,.05,.07,.05,.11-.02,.07-.05,.11-.07,.06-.11,.06-.07-.02-.1-.05-.05-.07-.05-.12c0-.1,.05-.15,.16-.16h0Zm.13,1.57v.21s-.01,.07-.04,.09c-.03,.02-.06,.04-.1,.04-.05,0-.08-.03-.08-.07-.03-.64-.04-.99-.04-1.06s0-.15,0-.25c0-.04,.03-.05,.07-.05,.11,0,.17,.04,.18,.13,0,.04,0,.08,0,.1v.19s-.01,.67-.01,.67Z"/><path class="cls-3" d="M599.17,320.58s.08,.02,.11,.05c.03,.03,.05,.08,.06,.13,0,.04-.02,.08-.05,.12-.03,.04-.07,.06-.11,.06s-.08-.01-.12-.03c-.03-.02-.05-.06-.05-.11s.02-.1,.05-.14c.03-.05,.07-.07,.11-.07Z"/><path class="cls-3" d="M601.43,319.04s.02-.04,.05-.06c.03-.02,.06-.03,.09-.03s.05,0,.07,.02c.02,.01,.03,.03,.03,.05,.04,.54,.06,.88,.06,1.02s0,.25,0,.32-.01,.15-.03,.23c-.02,.08-.04,.15-.07,.2-.07,.11-.17,.17-.32,.17s-.26-.05-.36-.15c-.09-.1-.14-.24-.14-.42,0-.03,.01-.06,.05-.08,.03-.02,.06-.04,.1-.04,.04,0,.07,.04,.08,.12,.03,.23,.11,.35,.26,.35,.04,0,.07-.01,.1-.04,.03-.02,.05-.05,.06-.09,.01-.03,.03-.08,.03-.14,.01-.08,.02-.18,.02-.3s-.01-.33-.04-.64c-.03-.31-.04-.48-.04-.5Z"/><path class="cls-3" d="M602.64,319.55c.11,0,.21,.03,.3,.09,.1,.06,.14,.14,.14,.23s-.04,.18-.12,.26-.18,.14-.31,.15c-.06,0-.14,.01-.25,.01,.02,.17,.07,.28,.13,.34,.02,.02,.05,.03,.08,.03,.12,0,.23-.04,.31-.12s.14-.12,.18-.12c.02,0,.04,.01,.07,.04s.05,.06,.05,.08c0,.05-.06,.13-.19,.23-.06,.05-.12,.08-.2,.12s-.15,.05-.22,.05c-.17,0-.3-.11-.38-.34-.05-.14-.08-.29-.08-.46s.04-.31,.12-.43c.08-.12,.2-.18,.37-.18Zm.01,.21c-.08,0-.14,.04-.19,.13-.02,.03-.04,.1-.06,.2,.28,0,.42-.07,.42-.21,0-.08-.06-.13-.17-.13Z"/><path class="cls-3" d="M604.53,320.82c-.07,.08-.16,.13-.27,.13s-.21-.03-.29-.1c-.17-.13-.25-.33-.25-.6,0-.21,.06-.38,.17-.51s.26-.19,.43-.19,.29,.06,.35,.17c.05,.1,.08,.26,.08,.46v.25c0,.12,0,.28,0,.48,.01,.21,.02,.36,.02,.46,0,.17-.04,.3-.13,.38s-.21,.12-.39,.12c-.1,0-.21-.02-.32-.07-.11-.04-.16-.1-.16-.15,0-.04,.01-.07,.04-.1,.02-.02,.05-.03,.08-.03s.1,.02,.2,.07c.1,.04,.18,.07,.23,.07,.14,0,.22-.12,.22-.35s0-.4-.01-.49Zm0-.63c0-.15-.02-.25-.06-.31s-.11-.09-.2-.09-.17,.04-.22,.13c-.06,.08-.08,.19-.08,.32s.03,.23,.08,.31c.05,.08,.13,.11,.24,.11s.18-.05,.21-.14c.02-.08,.04-.19,.04-.33Z"/><path class="cls-3" d="M606.65,318.84s.06-.04,.08-.04c.02,0,.08,0,.16,0s.15,.01,.21,.04c.05,.02,.08,.07,.08,.14s-.03,.11-.09,.11c-.01,0-.05-.01-.1-.03-.06-.02-.09-.03-.11-.03-.07,0-.11,.04-.13,.13,0,.03,0,.09,0,.18v.23h.21c.09,0,.13,.03,.13,.09,0,.08-.06,.13-.18,.13-.02,0-.04,0-.07,0s-.06,0-.09,0c0,.08,.01,.22,.03,.43,.01,.21,.02,.4,.02,.6,0,.04-.02,.07-.05,.1s-.07,.04-.1,.04c-.05,0-.08-.03-.08-.1,0-.18,0-.35-.02-.52-.01-.17-.02-.35-.03-.54-.18,0-.29-.02-.32-.05-.01-.01-.02-.03-.02-.05,0-.05,.02-.09,.06-.1,.04-.02,.09-.02,.15-.02h.12c0-.33,.02-.53,.05-.61,.02-.05,.04-.08,.07-.11Z"/><path class="cls-3" d="M608.41,319.5c.07,0,.11,.02,.11,.07,0,.03-.02,.09-.05,.16,.1,.14,.16,.32,.16,.55,0,.14-.04,.28-.11,.43-.04,.07-.09,.13-.15,.18-.06,.04-.13,.07-.2,.07s-.14-.02-.22-.05c-.04,.07-.07,.11-.11,.11s-.06,0-.08-.02c-.02-.01-.03-.03-.03-.06s.02-.08,.06-.15c-.14-.15-.22-.33-.22-.52,0-.07,.01-.15,.04-.23,.03-.09,.07-.17,.12-.23,.05-.07,.11-.12,.18-.17s.15-.06,.22-.06,.13,.01,.19,.04c.03-.06,.07-.09,.11-.09Zm-.22,.34s-.08-.04-.12-.04-.09,.02-.15,.07c-.09,.09-.14,.2-.14,.34,0,.09,.04,.19,.11,.31l.31-.67Zm.18,.48c0-.1-.02-.19-.05-.29l-.3,.64s.1,.06,.17,.06c.12-.06,.18-.2,.18-.41Z"/><path class="cls-3" d="M609.11,319c0-.08,.02-.12,.04-.15,.02-.02,.05-.03,.09-.03,.09,0,.13,.04,.13,.1,0,.05,0,.2-.01,.42s-.01,.43-.01,.61,0,.32,.02,.43c.02,.19,.06,.29,.1,.29s.08-.03,.1-.09c.01-.02,.03-.05,.05-.06,.02-.02,.05-.03,.08-.03,.07,0,.1,.06,.1,.18,0,.06-.03,.13-.1,.19s-.14,.09-.21,.09-.12-.01-.16-.03-.07-.06-.1-.1c-.03-.05-.04-.09-.06-.13-.01-.04-.03-.1-.03-.16-.01-.1-.02-.26-.03-.48s0-.43,0-.63,0-.34,0-.41Z"/><path class="cls-3" d="M610.62,319.55c.11,0,.21,.03,.3,.09,.1,.06,.14,.14,.14,.23s-.04,.18-.12,.26-.18,.14-.31,.15c-.06,0-.14,.01-.25,.01,.02,.17,.07,.28,.13,.34,.02,.02,.05,.03,.08,.03,.12,0,.23-.04,.31-.12s.14-.12,.18-.12c.02,0,.04,.01,.07,.04s.05,.06,.05,.08c0,.05-.06,.13-.19,.23-.06,.05-.12,.08-.2,.12s-.15,.05-.22,.05c-.17,0-.3-.11-.38-.34-.05-.14-.08-.29-.08-.46s.04-.31,.12-.43c.08-.12,.2-.18,.37-.18Zm.01,.21c-.08,0-.14,.04-.19,.13-.02,.03-.04,.1-.06,.2,.28,0,.42-.07,.42-.21,0-.08-.06-.13-.17-.13Z"/><path class="cls-3" d="M612.04,320.5v.31s-.01,.07-.05,.1c-.03,.03-.07,.04-.1,.04-.05,0-.08-.04-.09-.11,0-.02,0-.16-.02-.44s-.04-.49-.08-.65c-.02-.08-.03-.12-.03-.14,0-.07,.04-.1,.12-.1,.03,0,.06,.01,.08,.04,.02,.03,.03,.05,.04,.08,0,.03,0,.06,.01,.11,0,.05,0,.07,0,.09,.04-.1,.1-.18,.19-.23,.08-.05,.18-.07,.28-.07,.16,0,.25,.04,.25,.13,0,.04-.01,.08-.04,.1s-.06,.04-.1,.04c-.17,0-.29,.05-.36,.16-.07,.11-.11,.29-.11,.54Z"/><path class="cls-3" d="M581.8,324.54c-.05,0-.08-.03-.09-.09,0-.4-.02-.76-.07-1.08,0-.04,.01-.08,.04-.11,.03-.03,.06-.05,.1-.05s.06,.02,.08,.06c.07-.1,.17-.15,.3-.15,.16,0,.28,.08,.37,.23,.1-.14,.23-.22,.4-.22s.29,.07,.37,.2c.05,.08,.09,.19,.11,.32,.02,.13,.03,.32,.03,.57,0,.1,0,.17-.03,.22-.02,.05-.06,.08-.13,.08-.05,0-.08-.03-.08-.1v-.38c0-.45-.11-.68-.34-.68-.07,0-.13,.03-.16,.08-.03,.06-.05,.13-.06,.2,0,.12-.01,.23-.01,.33v.43s-.02,.06-.05,.08c-.03,.02-.07,.03-.1,.03-.04,0-.07-.03-.08-.09v-.62c0-.22-.03-.36-.1-.41-.04-.03-.09-.04-.16-.04s-.13,.03-.16,.08c-.04,.05-.05,.14-.05,.26l.02,.56c0,.17-.05,.26-.14,.26Z"/><path class="cls-3" d="M584.14,322.65s.07,.02,.1,.05,.05,.07,.05,.11-.02,.07-.05,.11-.07,.06-.11,.06-.07-.02-.1-.05-.05-.07-.05-.12c0-.1,.05-.15,.16-.16h0Zm.13,1.57v.21s-.01,.07-.04,.09c-.03,.02-.06,.04-.1,.04-.05,0-.08-.03-.08-.07-.03-.64-.04-.99-.04-1.06s0-.15,0-.25c0-.04,.03-.05,.07-.05,.11,0,.17,.04,.18,.13,0,.04,0,.08,0,.1v.19s-.01,.67-.01,.67Z"/><path class="cls-3" d="M585.74,324.42c-.07,.08-.16,.13-.27,.13s-.21-.03-.29-.1c-.17-.13-.25-.33-.25-.6,0-.21,.06-.38,.17-.51s.26-.19,.43-.19,.29,.06,.35,.17c.05,.1,.08,.26,.08,.46v.25c0,.12,0,.28,0,.48,.01,.21,.02,.36,.02,.46,0,.17-.04,.3-.13,.38s-.21,.12-.39,.12c-.1,0-.21-.02-.32-.07-.11-.04-.16-.1-.16-.15,0-.04,.01-.07,.04-.1,.02-.02,.05-.03,.08-.03s.1,.02,.2,.07c.1,.04,.18,.07,.23,.07,.14,0,.22-.12,.22-.35s0-.4-.01-.49Zm0-.63c0-.15-.02-.25-.06-.31s-.11-.09-.2-.09-.17,.04-.22,.13c-.06,.08-.08,.19-.08,.32s.03,.23,.08,.31c.05,.08,.13,.11,.24,.11s.18-.05,.21-.14c.02-.08,.04-.19,.04-.33Z"/><path class="cls-3" d="M588.31,324.42c-.07,.08-.16,.13-.27,.13s-.21-.03-.29-.1c-.17-.13-.25-.33-.25-.6,0-.21,.06-.38,.17-.51s.26-.19,.43-.19,.29,.06,.35,.17c.05,.1,.08,.26,.08,.46v.25c0,.12,0,.28,0,.48,.01,.21,.02,.36,.02,.46,0,.17-.04,.3-.13,.38s-.21,.12-.39,.12c-.1,0-.21-.02-.32-.07-.11-.04-.16-.1-.16-.15,0-.04,.01-.07,.04-.1,.02-.02,.05-.03,.08-.03s.1,.02,.2,.07c.1,.04,.18,.07,.23,.07,.14,0,.22-.12,.22-.35s0-.4-.01-.49Zm0-.63c0-.15-.02-.25-.06-.31s-.11-.09-.2-.09-.17,.04-.22,.13c-.06,.08-.08,.19-.08,.32s.03,.23,.08,.31c.05,.08,.13,.11,.24,.11s.18-.05,.21-.14c.02-.08,.04-.19,.04-.33Z"/><path class="cls-3" d="M589.48,323.15c.11,0,.21,.03,.3,.09,.1,.06,.14,.14,.14,.23s-.04,.18-.12,.26-.18,.14-.31,.15c-.06,0-.14,.01-.25,.01,.02,.17,.07,.28,.13,.34,.02,.02,.05,.03,.08,.03,.12,0,.23-.04,.31-.12s.14-.12,.18-.12c.02,0,.04,.01,.07,.04s.05,.06,.05,.08c0,.05-.06,.13-.19,.23-.06,.05-.12,.08-.2,.12s-.15,.05-.22,.05c-.17,0-.3-.11-.38-.34-.05-.14-.08-.29-.08-.46s.04-.31,.12-.43c.08-.12,.2-.18,.37-.18Zm.01,.21c-.08,0-.14,.04-.19,.13-.02,.03-.04,.1-.06,.2,.28,0,.42-.07,.42-.21,0-.08-.06-.13-.17-.13Z"/><path class="cls-3" d="M590.63,324.45l-.03-1.22s.01-.07,.04-.09c.03-.02,.05-.04,.08-.04,.06,0,.1,.03,.11,.08,0,.05,.01,.11,.01,.17,.11-.14,.24-.21,.41-.21,.25,0,.37,.28,.37,.85v.24c0,.1,0,.18-.02,.23-.01,.06-.06,.09-.13,.09-.05,0-.07-.03-.07-.1v-.17c0-.23,0-.39-.02-.48s-.03-.15-.04-.2c-.03-.11-.09-.16-.17-.16-.1,0-.17,.04-.21,.11-.04,.08-.07,.17-.08,.28-.01,.19-.02,.38-.02,.59,0,.04-.01,.07-.04,.1s-.07,.04-.11,.04c-.05,0-.08-.03-.08-.1Z"/><path class="cls-3" d="M592.55,322.44s.06-.04,.08-.04c.02,0,.08,0,.16,0s.15,.01,.21,.04c.05,.02,.08,.07,.08,.14s-.03,.11-.09,.11c-.01,0-.05-.01-.1-.03-.06-.02-.09-.03-.11-.03-.07,0-.11,.04-.13,.13,0,.03,0,.09,0,.18v.23h.21c.09,0,.13,.03,.13,.09,0,.08-.06,.13-.18,.13-.02,0-.04,0-.07,0s-.06,0-.09,0c0,.08,.01,.22,.03,.43,.01,.21,.02,.4,.02,.6,0,.04-.02,.07-.05,.1s-.07,.04-.1,.04c-.05,0-.08-.03-.08-.1,0-.18,0-.35-.02-.52-.01-.17-.02-.35-.03-.54-.18,0-.29-.02-.32-.05-.01-.01-.02-.03-.02-.05,0-.05,.02-.09,.06-.1,.04-.02,.09-.02,.15-.02h.12c0-.33,.02-.53,.05-.61,.02-.05,.04-.08,.07-.11Z"/><path class="cls-3" d="M594.31,323.1c.07,0,.11,.02,.11,.07,0,.03-.02,.09-.05,.16,.1,.14,.16,.32,.16,.55,0,.14-.04,.28-.11,.43-.04,.07-.09,.13-.15,.18-.06,.04-.13,.07-.2,.07s-.14-.02-.22-.05c-.04,.07-.07,.11-.11,.11s-.06,0-.08-.02c-.02-.01-.03-.03-.03-.06s.02-.08,.06-.15c-.14-.15-.22-.33-.22-.52,0-.07,.01-.15,.04-.23,.03-.09,.07-.17,.12-.23,.05-.07,.11-.12,.18-.17s.15-.06,.22-.06,.13,.01,.19,.04c.03-.06,.07-.09,.11-.09Zm-.22,.34s-.08-.04-.12-.04-.09,.02-.15,.07c-.09,.09-.14,.2-.14,.34,0,.09,.04,.19,.11,.31l.31-.67Zm.18,.48c0-.1-.02-.19-.05-.29l-.3,.64s.1,.06,.17,.06c.12-.06,.18-.2,.18-.41Z"/><path class="cls-3" d="M595.74,323.14v-.58c0-.11,.03-.16,.1-.16s.11,.03,.12,.09c0,.03,0,.18,.01,.47,0,.29,.02,.56,.03,.81,.01,.25,.02,.49,.02,.7,0,.06-.04,.09-.14,.09-.06,0-.09-.04-.09-.13-.09,.07-.19,.1-.31,.1-.15,0-.27-.06-.36-.17-.09-.11-.14-.25-.14-.41s.03-.32,.1-.46c.07-.14,.17-.25,.31-.31,.09-.04,.17-.06,.25-.06,.03,0,.06,0,.09,0Zm.02,.41s-.03-.08-.05-.1c-.02-.02-.04-.04-.06-.04-.02,0-.05,0-.08,0s-.07,.01-.12,.04c-.05,.02-.08,.06-.12,.12-.06,.11-.1,.22-.1,.34s.02,.22,.07,.29c.05,.07,.11,.11,.2,.11s.16-.04,.21-.13,.08-.2,.08-.33c0-.15,0-.25-.02-.29Z"/><path class="cls-3" d="M596.54,323.14h.15s.05,0,.06,0v-.62s.02-.06,.05-.09c.03-.02,.06-.04,.09-.04s.05,0,.07,.03c.02,.02,.02,.05,.02,.08,0,.04,0,.25,0,.62h.35c.06-.01,.09,.02,.09,.09,0,.05-.02,.09-.05,.12-.03,.03-.06,.04-.1,.04-.04,0-.07,0-.1,0h-.18c0,.08,0,.24,.03,.48,.02,.24,.03,.4,.04,.47s.01,.12,0,.14-.02,.04-.03,.04c-.03,.01-.06,.02-.1,.02s-.07-.02-.08-.07c-.04-.26-.07-.62-.08-1.08-.02,0-.09,0-.21,0s-.18-.03-.18-.1c0-.1,.06-.15,.17-.15Z"/><path class="cls-3" d="M598.11,322.31c0,.17-.03,.3-.09,.4-.04,.06-.08,.09-.13,.09-.06,0-.1-.03-.1-.1,0-.02,0-.04,0-.06,.06-.07,.09-.18,.09-.32,.01-.06,.04-.09,.1-.09s.09,.03,.11,.09Zm.36,0c0,.17-.03,.3-.09,.4-.04,.06-.07,.09-.11,.09s-.07,0-.08-.03c-.02-.02-.03-.04-.03-.06s0-.05,0-.07c.06-.07,.09-.18,.09-.32,.01-.06,.05-.09,.1-.09s.09,.03,.11,.09Z"/></g></g><g id="Layer_26"><polygon class="cls-9" points="1139.27 184 1142.27 191.65 1147.77 195.84 1142.27 200.02 1139.27 207.68 1136.26 200.02 1130.76 195.84 1136.26 191.65 1139.27 184"/><polygon class="cls-9" points="1133.4 225.43 1135.47 230.71 1139.27 233.6 1135.47 236.49 1133.4 241.77 1131.33 236.49 1127.53 233.6 1131.33 230.71 1133.4 225.43"/><polygon class="cls-9" points="1038.6 92.76 1041.6 100.41 1047.1 104.6 1041.6 108.78 1038.6 116.44 1035.59 108.78 1030.09 104.6 1035.59 100.41 1038.6 92.76"/><polygon class="cls-9" points="1062.6 47.66 1067.44 60 1076.31 66.75 1067.44 73.51 1062.6 85.85 1057.75 73.51 1048.88 66.75 1057.75 60 1062.6 47.66"/><polygon class="cls-9" points="97.96 136.51 101.92 146.61 109.18 152.13 101.92 157.66 97.96 167.75 93.99 157.66 86.74 152.13 93.99 146.61 97.96 136.51"/><polygon class="cls-9" points="728.32 114.8 731.01 121.63 735.92 125.37 731.01 129.11 728.32 135.94 725.64 129.11 720.73 125.37 725.64 121.63 728.32 114.8"/><polygon class="cls-9" points="802.02 58.16 804.7 64.99 809.61 68.73 804.7 72.46 802.02 79.3 799.33 72.46 794.42 68.73 799.33 64.99 802.02 58.16"/><polygon class="cls-9" points="813.24 87.79 817.2 97.88 824.45 103.41 817.2 108.93 813.24 119.03 809.27 108.93 802.02 103.41 809.27 97.88 813.24 87.79"/><polygon class="cls-9" points="271.83 35.96 273.95 41.36 277.82 44.31 273.95 47.26 271.83 52.65 269.71 47.26 265.84 44.31 269.71 41.36 271.83 35.96"/><polygon class="cls-9" points="237.44 74.88 239.02 78.91 241.91 81.11 239.02 83.31 237.44 87.33 235.86 83.31 232.98 81.11 235.86 78.91 237.44 74.88"/><polygon class="cls-9" points="118.76 163.54 121.52 169.13 127.68 170.02 123.22 174.37 124.27 180.5 118.76 177.61 113.25 180.5 114.3 174.37 109.84 170.02 116.01 169.13 118.76 163.54"/><polygon class="cls-9" points="425.12 150.03 427.87 155.61 434.04 156.51 429.58 160.85 430.63 166.99 425.12 164.09 419.61 166.99 420.66 160.85 416.2 156.51 422.36 155.61 425.12 150.03"/><polygon class="cls-9" points="388.51 179.93 390.27 183.49 394.2 184.06 391.36 186.84 392.03 190.75 388.51 188.9 384.99 190.75 385.67 186.84 382.82 184.06 386.75 183.49 388.51 179.93"/><polygon class="cls-9" points="610.21 43.56 612.96 49.14 619.12 50.04 614.66 54.38 615.72 60.52 610.21 57.62 604.7 60.52 605.75 54.38 601.29 50.04 607.45 49.14 610.21 43.56"/><polygon class="cls-9" points="707.07 128.31 709.83 133.89 715.99 134.79 711.53 139.13 712.58 145.27 707.07 142.37 701.56 145.27 702.62 139.13 698.16 134.79 704.32 133.89 707.07 128.31"/></g></svg>